<?xml version="1.0" standalone="no"?>
<!DOCTYPE svg PUBLIC "-//W3C//DTD SVG 1.1//EN" "http://www.w3.org/Graphics/SVG/1.1/DTD/svg11.dtd" >
<svg>
<metadata>
Created by FontForge 20090914 at Tue Dec 25 11:01:15 2018
 By www-data
Copyright (c) 2009 by Alexander Kalachev, Alexey Maslov, Jovanny Lemonad. All rights reserved.
</metadata>
<defs>
<font id="KZDays-Regular" horiz-adv-x="682" >
  <font-face 
    font-family="KZ Days"
    font-weight="400"
    font-stretch="normal"
    units-per-em="1000"
    panose-1="2 0 5 5 5 0 0 2 0 4"
    ascent="800"
    descent="-200"
    x-height="535"
    cap-height="700"
    bbox="-169.999 -276.998 1228 996.001"
    underline-thickness="50"
    underline-position="-50"
    unicode-range="U+0020-U+E000"
  />
<missing-glyph horiz-adv-x="350" 
 />
    <glyph glyph-name=".notdef" horiz-adv-x="350" 
 />
    <glyph glyph-name="space" unicode=" " horiz-adv-x="350" 
 />
    <glyph glyph-name="exclam" unicode="!" horiz-adv-x="319" 
d="M61 654c-0.666992 12.667 3.67188 23.5 13.0049 32.5s20.333 13.5 33 13.5h105c12.667 0 23.667 -4.5 33 -13.5s13.666 -19.833 12.999 -32.5l-14 -401c-0.666992 -12.667 -5.33398 -23.334 -14.001 -32.001s-19.334 -13 -32.001 -13h-77
c-12.667 0 -23.334 4.33301 -32.001 13s-13.334 19.334 -14.001 32.001zM64.0059 61v31c0 21.333 5.66699 37.666 17 48.999s27.666 17 48.999 17h60c21.333 0 37.666 -5.66699 48.999 -17s17 -27.666 17 -48.999v-31c0 -20.667 -5.66699 -36.834 -17 -48.501
s-27.666 -17.5 -48.999 -17.5h-60c-21.333 0 -37.666 5.83301 -48.999 17.5s-17 27.834 -17 48.501z" />
    <glyph glyph-name="quotedbl" unicode="&#x22;" horiz-adv-x="394" 
d="M31 660c-0.666992 11.333 2.66406 20.833 9.99707 28.5s17 11.5 29 11.5h64c12 0 21.667 -3.83301 29 -11.5s10.666 -17.167 9.99902 -28.5l-15 -208c-1.33301 -12 -5.66602 -21.667 -12.999 -29s-16.666 -11 -27.999 -11h-30c-11.333 0 -20.666 3.66699 -27.999 11
s-11.666 17 -12.999 29zM220.998 660c-0.666992 11.333 2.66406 20.833 9.99707 28.5s17 11.5 29 11.5h64c12 0 21.667 -3.83301 29 -11.5s10.666 -17.167 9.99902 -28.5l-15 -208c-1.33301 -12 -5.66602 -21.667 -12.999 -29s-16.666 -11 -27.999 -11h-30
c-11.333 0 -20.666 3.66699 -27.999 11s-11.666 17 -12.999 29z" />
    <glyph glyph-name="numbersign" unicode="#" horiz-adv-x="837" 
d="M20 190v58c0.666992 8.66699 3.66699 15.834 9 21.501s12.333 8.5 21 8.5h106l41 144h-103c-8.66699 0 -15.834 2.83301 -21.501 8.5s-8.5 12.834 -8.5 21.501v58c0 8.66699 2.83301 15.834 8.5 21.501s12.834 8.5 21.501 8.5h136l33 114
c8.66699 30.667 35.334 46 80.001 46h56c12 0 20.333 -4.33301 25 -13c2.66699 -5.33301 4 -11.333 4 -18c0 -4.66699 -0.666992 -9.66699 -2 -15l-33 -114h145l33 114c8.66699 30.667 35.334 46 80.001 46h56c12 0 20.333 -4.33301 25 -13
c2.66699 -5.33301 4 -11.333 4 -18c0 -4.66699 -0.666992 -9.66699 -2 -15l-33 -114h86c8.66699 0 15.667 -2.83301 21 -8.5s8.33301 -12.834 9 -21.501v-58c-0.666992 -8.66699 -3.66699 -15.834 -9 -21.501s-12.333 -8.5 -21 -8.5h-119l-41 -144h103
c8.66699 0 15.834 -2.83301 21.501 -8.5s8.5 -12.834 8.5 -21.501v-58c0 -8.66699 -2.66699 -15.834 -8 -21.501s-12.333 -8.5 -21 -8.5h-137l-32 -114c-8.66699 -30.667 -35.334 -46 -80.001 -46h-56c-12 0 -20.333 4.33301 -25 13c-2.66699 5.33301 -4 11.333 -4 18
c0 4.66699 0.666992 9.66699 2 15l32 114h-145l-32 -114c-8.66699 -30.667 -35.334 -46 -80.001 -46h-56c-12 0 -20.333 4.33301 -25 13c-2.66699 5.33301 -4 11.333 -4 18c0 4.66699 0.666992 9.66699 2 15l32 114h-73c-8.66699 0 -15.834 2.83301 -21.501 8.5
s-8.5 12.834 -8.5 21.501zM315 275h151l42 150h-151z" />
    <glyph glyph-name="dollar" unicode="$" horiz-adv-x="779" 
d="M30 176c0 19.333 5.66895 33.1689 17.002 41.502s22.333 12.5 33 12.5h58c29.333 0 51.333 -15.333 66 -46c16 -33.333 50.667 -50 104 -50h4v155c-30.667 6.66699 -57.834 13.5 -81.501 20.5s-48.334 16.333 -74.001 28s-46.667 24.667 -63 39s-30 32 -41 53
s-16.5 44.5 -16.5 70.5c0 62 20.833 110.333 62.5 145s112.834 54 213.501 58v46c0 8.66699 2.83301 15.834 8.5 21.501s12.834 8.5 21.501 8.5h36v-75h27v75h36c8.66699 0 15.834 -2.83301 21.501 -8.5s8.5 -12.834 8.5 -21.501v-45
c66 -0.666992 125.833 -18.167 179.5 -52.5s80.5 -76.833 80.5 -127.5c0 -19.333 -5.66699 -33.166 -17 -41.499s-22.333 -12.5 -33 -12.5h-58c-29.333 0 -51.333 15.333 -66 46c-14 29.333 -42.667 45.666 -86 48.999v-153c39.333 -8.66699 73.333 -17.834 102 -27.501
s57.5 -22.5 86.5 -38.5s51.167 -36.333 66.5 -61s23 -53 23 -85c0 -62 -21 -110.5 -63 -145.5s-113.667 -54.167 -215 -57.5v-46c0 -8.66699 -2.83301 -15.834 -8.5 -21.501s-12.834 -8.5 -21.501 -8.5h-36v75h-27v-75h-36c-8.66699 0 -15.834 2.83301 -21.501 8.5
s-8.5 12.834 -8.5 21.501v45h-21c-66.667 0 -126.834 17.167 -180.501 51.5s-80.5 77.166 -80.5 128.499zM220.002 510.003c0 -26 30.667 -47.333 92 -64v120h-6c-57.333 0 -86 -18.667 -86 -56zM378.002 134.003h27v135l-27 5v-140zM378.002 431.003l27 -5v140h-27v-135z
M471.002 134.003h8c57.333 0 86 18.667 86 56c0 26 -31.333 47.333 -94 64v-120z" />
    <glyph glyph-name="percent" unicode="%" horiz-adv-x="817" 
d="M78 430c-32 28.667 -47.999 68 -47.999 118s16.167 89.5 48.5 118.5s72.833 43.5 121.5 43.5s89.167 -14.5 121.5 -43.5s48.5 -68.5 48.5 -118.5s-16.167 -89.5 -48.5 -118.5s-72.833 -43.5 -121.5 -43.5s-89.334 14.667 -122.001 44zM67.001 15
c-0.666992 3.33301 -1 6.33301 -1 9c0 7.33301 3 14.666 9 21.999l487 608c24 30.667 52.333 46 85 46h78c12.667 0 21 -5 25 -15c0.666992 -2.66699 1 -5.66699 1 -9c0 -7.33301 -3 -14.666 -9 -21.999l-487 -608c-24 -30.667 -52.333 -46 -85 -46h-78
c-12.667 0 -21 5 -25 15zM159.001 600c-10 -12.667 -15 -30 -15 -52s5 -39.333 15 -52s23.667 -19 41 -19s31 6.33301 41 19s15 30 15 52s-5 39.333 -15 52s-23.667 19 -41 19s-31 -6.33301 -41 -19zM495.001 35c-32 28.667 -47.999 68 -47.999 118s16.167 89.5 48.5 118.5
s72.833 43.5 121.5 43.5s89.167 -14.5 121.5 -43.5s48.5 -68.5 48.5 -118.5s-16.167 -89.5 -48.5 -118.5s-72.833 -43.5 -121.5 -43.5s-89.334 14.667 -122.001 44zM576.002 205c-10 -12.667 -15 -30 -15 -52s5 -39.333 15 -52s23.667 -19 41 -19s31 6.33301 41 19
s15 30 15 52s-5 39.333 -15 52s-23.667 19 -41 19s-31 -6.33301 -41 -19z" />
    <glyph glyph-name="ampersand" unicode="&#x26;" horiz-adv-x="752" 
d="M30 207c0 90.667 39.001 154.002 117.001 190.002c-29.333 32 -44 70 -44 114c0 56.667 22.667 104 68 142s109 57 191 57c82.667 0 147.667 -14.333 195 -43s71 -71 71 -127c0 -8.66699 -2.83301 -15.834 -8.5 -21.501s-12.834 -8.5 -21.501 -8.5h-65
c-22 0 -40.667 12 -56 36c-19.333 30.667 -57 46 -113 46c-28.667 0 -51 -6.33301 -67 -19s-24 -30.334 -24 -53.001c0 -23.333 7.16699 -45 21.5 -65s35.166 -41.667 62.499 -65l169 -147l48 69c6.66699 9.33301 14.334 14 23.001 14c5.33301 0 11 -2 17 -6l53 -36
c10 -7.33301 15 -15.333 15 -24c0 -6 -2.33301 -12 -7 -18l-59 -84l125 -112c6.66699 -6.66699 10 -13.667 10 -21c0 -2.66699 -0.333008 -5.66699 -1 -9c-4.66699 -10.667 -13.334 -16 -26.001 -16h-111c-14 0 -27.333 2.66699 -40 8s-22.667 10.833 -30 16.5
s-17.333 14.5 -30 26.5c-63.333 -40.667 -133.666 -61 -210.999 -61c-87.333 0 -154.5 19.333 -201.5 58s-70.5 91.667 -70.5 159zM194.001 207.002c0 -66 40 -99 120 -99c40 0 74.333 9.66699 103 29l-174 157c-32.667 -16 -49 -45 -49 -87z" />
    <glyph glyph-name="quotesingle" unicode="'" horiz-adv-x="204" 
d="M31 660c-0.666992 11.333 2.66406 20.833 9.99707 28.5s17 11.5 29 11.5h64c12 0 21.667 -3.83301 29 -11.5s10.666 -17.167 9.99902 -28.5l-15 -208c-1.33301 -12 -5.66602 -21.667 -12.999 -29s-16.666 -11 -27.999 -11h-30c-11.333 0 -20.666 3.66699 -27.999 11
s-11.666 17 -12.999 29z" />
    <glyph glyph-name="parenleft" unicode="(" horiz-adv-x="325" 
d="M243 737c4.66699 3.33301 9.33301 4.99902 14 4.99902c2.66699 0 5.33398 -0.333008 8.00098 -1c7.33301 -2.66699 13.333 -7.66699 18 -15l28 -46c2 -3.33301 3 -7 3 -11c0 -8 -5 -17.667 -15 -29c-78 -95.333 -117 -207 -117 -335s39 -239.667 117 -335
c10 -11.333 15 -21.333 15 -30c0 -3.33301 -1 -6.66602 -3 -9.99902l-28 -46c-4.66699 -7.33301 -10.667 -12 -18 -14l-8 -2c-4.66699 0 -9.33398 1.66699 -14.001 5c-70.667 46.667 -123.834 108.5 -159.501 185.5s-53.5 159.167 -53.5 246.5s17.833 169.5 53.5 246.5
s88.834 138.833 159.501 185.5z" />
    <glyph glyph-name="parenright" unicode=")" horiz-adv-x="325" 
d="M14 -70c-2 3.33301 -3 6.66699 -3 10c0 8.66699 5 18.667 15 30c78 95.333 117 207 117 335s-39 239.667 -117 335c-10 11.333 -15 21 -15 29c0 4 1 7.66699 3 11l28 46c4.66699 7.33301 11 12.333 19 15c2 0.666992 4.33301 1 7 1c4.66699 0 9.33398 -1.66699 14.001 -5
c70.667 -46.667 123.834 -108.5 159.501 -185.5s53.5 -159.167 53.5 -246.5s-17.833 -169.5 -53.5 -246.5s-88.834 -138.833 -159.501 -185.5c-4.66699 -3.33301 -9.33398 -5 -14.001 -5c-2.66699 0 -5 0.666992 -7 2c-8 2 -14.333 6.66699 -19 14z" />
    <glyph glyph-name="asterisk" unicode="*" horiz-adv-x="426" 
d="M32 455c2 8 6.66699 14 14 18l70 37l-70 37c-7.33301 4 -12 10 -14 18c-0.666992 3.33301 -1 6.33301 -1 9c0 5.33301 1.33301 10 4 14l20 37c4 7.33301 9.83301 12.166 17.5 14.499s15.5 1.16602 23.5 -3.50098l65 -40l-1 77c0 8 2.83301 14.5 8.5 19.5
s12.834 7.5 21.501 7.5h46c8.66699 0 15.834 -2.5 21.501 -7.5s8.5 -11.5 8.5 -19.5l-1 -77l65 40c8 4.66699 15.833 5.83398 23.5 3.50098s13.5 -7.16602 17.5 -14.499l20 -37c2.66699 -4.66699 4 -9.33398 4 -14.001c0 -2.66699 -0.333008 -5.66699 -1 -9
c-2 -8 -6.66699 -14 -14 -18l-70 -37l70 -37c7.33301 -4 12 -10 14 -18c0.666992 -3.33301 1 -6.33301 1 -9c0 -5.33301 -1.33301 -10 -4 -14l-20 -37c-4 -7.33301 -9.83301 -12.166 -17.5 -14.499s-15.5 -1.16602 -23.5 3.50098l-65 40l1 -77
c0 -8 -2.83301 -14.5 -8.5 -19.5s-12.834 -7.5 -21.501 -7.5h-46c-8.66699 0 -15.834 2.5 -21.501 7.5s-8.5 11.5 -8.5 19.5l1 77l-65 -40c-8 -4.66699 -15.833 -5.83398 -23.5 -3.50098s-13.5 7.16602 -17.5 14.499l-20 37c-2.66699 4.66699 -4 9.33398 -4 14.001
c0 2.66699 0.333008 5.66699 1 9z" />
    <glyph glyph-name="plus" unicode="+" horiz-adv-x="468" 
d="M20 278v58c0 8.66699 2.83301 15.834 8.5 21.501s12.834 8.5 21.501 8.5h122v122c0 8.66699 2.83301 15.834 8.5 21.501s12.834 8.5 21.501 8.5h58c8.66699 0 15.834 -2.83301 21.501 -8.5s8.5 -12.834 8.5 -21.501v-122h128c8.66699 0 15.834 -2.83301 21.501 -8.5
s8.5 -12.834 8.5 -21.501v-58c0 -8.66699 -2.83301 -15.834 -8.5 -21.501s-12.834 -8.5 -21.501 -8.5h-128v-128c0 -8.66699 -2.83301 -15.834 -8.5 -21.501s-12.834 -8.5 -21.501 -8.5h-58c-8.66699 0 -15.834 2.83301 -21.501 8.5s-8.5 12.834 -8.5 21.501v128h-122
c-8.66699 0 -15.834 2.83301 -21.501 8.5s-8.5 12.834 -8.5 21.501z" />
    <glyph glyph-name="comma" unicode="," horiz-adv-x="269" 
d="M23 -55l29.002 156.999c2.66699 15.333 11.5 28.5 26.5 39.5s30.833 16.5 47.5 16.5h40c26 0 44.333 -6.66699 55 -20c5.33301 -7.33301 8 -16 8 -26c0 -8.66699 -2.33301 -18.667 -7 -30l-58 -147c-6.66699 -16 -16.834 -29.333 -30.501 -40s-29.167 -16 -46.5 -16h-19
c-20.667 0 -34.334 5.33301 -41.001 16c-4 6.66699 -6 15.667 -6 27c0 6.66699 0.666992 14.334 2 23.001z" />
    <glyph glyph-name="hyphen" unicode="-" horiz-adv-x="468" 
d="M20 278v58c0 8.66699 2.83301 15.834 8.5 21.501s12.834 8.5 21.501 8.5h368c8.66699 0 15.834 -2.83301 21.501 -8.5s8.5 -12.834 8.5 -21.501v-58c0 -8.66699 -2.83301 -15.834 -8.5 -21.501s-12.834 -8.5 -21.501 -8.5h-368c-8.66699 0 -15.834 2.83301 -21.501 8.5
s-8.5 12.834 -8.5 21.501z" />
    <glyph glyph-name="period" unicode="." horiz-adv-x="272" 
d="M40 61v31c0 21.333 5.66699 37.666 17 48.999s27.666 17 48.999 17h60c21.333 0 37.666 -5.66699 48.999 -17s17 -27.666 17 -48.999v-31c0 -20.667 -5.66699 -36.834 -17 -48.501s-27.666 -17.5 -48.999 -17.5h-60c-21.333 0 -37.666 5.83301 -48.999 17.5
s-17 27.834 -17 48.501z" />
    <glyph glyph-name="slash" unicode="/" horiz-adv-x="515" 
d="M1 14c-0.666992 3.33301 -1 6.33301 -1 9c-0 7.33301 2.33301 15 7 23l317 608c15.333 30.667 43.666 46 84.999 46h82c12 0 19.667 -4.66699 23 -14c0.666992 -2.66699 1 -5.66699 1 -9c0 -7.33301 -2.33301 -15 -7 -23l-317 -608
c-15.333 -30.667 -43.666 -46 -84.999 -46h-82c-12 0 -19.667 4.66699 -23 14z" />
    <glyph glyph-name="zero" unicode="0" horiz-adv-x="796" 
d="M381 704h34c50.667 0 96.334 -6 137.001 -18s77.5 -31.167 110.5 -57.5s58.5 -63 76.5 -110s27 -103.167 27 -168.5s-9 -121.5 -27 -168.5s-43.5 -83.667 -76.5 -110s-69.833 -45.5 -110.5 -57.5s-86.334 -18 -137.001 -18h-34c-50.667 0 -96.334 6 -137.001 18
s-77.5 31.167 -110.5 57.5s-58.5 63 -76.5 110s-27 103.167 -27 168.5s9 121.5 27 168.5s43.5 83.667 76.5 110s69.833 45.5 110.5 57.5s86.334 18 137.001 18zM398 566c-122.667 0 -184 -72 -184 -216s61.333 -216 184 -216s184 72 184 216s-61.333 216 -184 216z" />
    <glyph glyph-name="one" unicode="1" horiz-adv-x="397" 
d="M7 530c-4 5.33301 -6.00098 10.999 -6.00098 16.999c0 9.33301 5.33301 18.333 16 27l119 103c17.333 15.333 41.333 23 72 23h72c13.333 0 24.5 -4.5 33.5 -13.5s13.5 -19.833 13.5 -32.5v-608c0 -12.667 -4.66699 -23.5 -14 -32.5s-20.333 -13.5 -33 -13.5h-91
c-12.667 0 -23.5 4.33301 -32.5 13s-13.5 19.334 -13.5 32.001v472l-56 -41c-6.66699 -4.66699 -14.167 -6.16699 -22.5 -4.5s-15.166 5.5 -20.499 11.5z" />
    <glyph glyph-name="two" unicode="2" horiz-adv-x="702" 
d="M30 46v71.0029c0 41.333 8.5 77.166 25.5 107.499s38.833 54.166 65.5 71.499s56.334 32.166 89.001 44.499s65.334 22.333 98.001 30s62.334 15.5 89.001 23.5s48.5 18.333 65.5 31s25.5 28 25.5 46c0 36.667 -9.5 61.667 -28.5 75s-50.833 20 -95.5 20h-35
c-62.667 0 -104 -20 -124 -60c-14.667 -30.667 -36.667 -46 -66 -46h-58c-6 0 -12.333 1.16699 -19 3.5s-13.5 8 -20.5 17s-10.5 20.167 -10.5 33.5c0 37.333 14.167 70.833 42.5 100.5s63.666 52 105.999 67s86.5 22.5 132.5 22.5h66c43.333 0 81.833 -3.66699 115.5 -11
s64.334 -19.333 92.001 -36s49 -40.667 64 -72s22.5 -69.333 22.5 -114c0 -38 -8.5 -71.5 -25.5 -100.5s-38.833 -52 -65.5 -69s-56.334 -31.667 -89.001 -44s-65.334 -22.5 -98.001 -30.5s-62.334 -15.667 -89.001 -23s-48.5 -16.5 -65.5 -27.5s-25.5 -23.833 -25.5 -38.5
h405c13.333 0 24.5 -4.5 33.5 -13.5s13.5 -19.833 13.5 -32.5v-46c0 -12.667 -4.66699 -23.5 -14 -32.5s-20.333 -13.5 -33 -13.5h-542c-12.667 0 -23.667 4.5 -33 13.5s-14 19.833 -14 32.5z" />
    <glyph glyph-name="three" unicode="3" horiz-adv-x="723" 
d="M25 191c0 19.333 5.66797 33.1699 17.001 41.5029s22.333 12.5 33 12.5h58c30 0 53.333 -18 70 -54c18 -38 58 -57 120 -57h70c40 0 69.333 5.66699 88 17s28 30.666 28 57.999s-9.33301 46.666 -28 57.999s-48 17 -88 17h-88c-12.667 0 -23.5 4.5 -32.5 13.5
s-13.5 19.833 -13.5 32.5v40c0 12 4.33301 22.667 13 32s19 14 31 14h72c43.333 0 74.833 5.66699 94.5 17s29.5 30.666 29.5 57.999s-9.83301 46.666 -29.5 57.999s-51.167 17 -94.5 17h-36c-62.667 0 -104 -20 -124 -60c-14.667 -30.667 -36.667 -46 -66 -46h-58
c-6 0 -12.333 1.16699 -19 3.5s-13.5 8 -20.5 17s-10.5 20.167 -10.5 33.5c0 37.333 14.167 70.833 42.5 100.5s63.666 52 105.999 67s86.5 22.5 132.5 22.5h67c196 0 294 -71.333 294 -214c0 -59.333 -22.333 -106 -67 -140c51.333 -32 77 -79 77 -141
c0 -75.333 -24 -129.666 -72 -162.999s-118.333 -50 -211 -50h-104c-72.667 0 -137.667 18 -195 54s-86 83 -86 141z" />
    <glyph glyph-name="four" unicode="4" horiz-adv-x="750" 
d="M10 169v57.999c0 28.667 10 54 30 76l323 367c18 20 43.333 30 76 30h153c13.333 0 24.5 -4.5 33.5 -13.5s13.5 -19.833 13.5 -32.5v-393h54c13.333 0 24.5 -4.5 33.5 -13.5s13.5 -19.833 13.5 -32.5v-46c0 -12.667 -4.66699 -23.5 -14 -32.5s-20.333 -13.5 -33 -13.5
h-54v-77c0 -12.667 -4.66699 -23.5 -14 -32.5s-20.333 -13.5 -33 -13.5h-91c-12.667 0 -23.5 4.33301 -32.5 13s-13.5 19.334 -13.5 32.001v78h-398c-12.667 0 -23.667 4.5 -33 13.5s-14 19.833 -14 32.5zM206 260.999h249v283z" />
    <glyph glyph-name="five" unicode="5" horiz-adv-x="725" 
d="M40 169c0 19.333 5.66602 33.166 16.999 41.499s22.333 12.5 33 12.5h58c27.333 0 49.333 -15.333 66 -46c16 -28.667 50.667 -43 104 -43h77c40 0 69.333 6.33301 88 19s28 34.334 28 65.001s-9.33301 52.334 -28 65.001s-48 19 -88 19h-284
c-12.667 0 -23.5 4.33301 -32.5 13s-13.5 19.334 -13.5 32.001v307c0 13.333 4.5 24.333 13.5 33s19.833 13 32.5 13h503c13.333 0 24.333 -4.33301 33 -13s13 -19.667 13 -33v-46c0 -13.333 -4.33301 -24.333 -13 -33s-19.667 -13 -33 -13h-365v-122h163
c92.667 0 163 -17.333 211 -52s72 -91.334 72 -170.001s-24 -135.334 -72 -170.001s-118.333 -52 -211 -52h-111c-73.333 0 -135.166 16.5 -185.499 49.5s-75.5 74.167 -75.5 123.5z" />
    <glyph glyph-name="six" unicode="6" horiz-adv-x="743" 
d="M40 236v216c0 92.667 23.5 157.834 70.5 195.501s117.167 56.5 210.5 56.5h124c73.333 0 134.5 -16.167 183.5 -48.5s73.5 -72.833 73.5 -121.5c0 -19.333 -5.66699 -33.166 -17 -41.499s-22.333 -12.5 -33 -12.5h-58c-25.333 0 -47.333 15.333 -66 46
c-16 26.667 -49.333 40 -100 40h-90c-40 0 -69 -8 -87 -24s-27 -46 -27 -90v-18h206c92.667 0 163 -16.833 211 -50.5s72 -89.834 72 -168.501s-24 -134.834 -72 -168.501s-118.333 -50.5 -211 -50.5h-107c-94 0 -164.667 18 -212 54s-71 98 -71 186zM224 236
c0 -40 9 -67.002 27 -81.002s47.667 -21 89 -21h73c40 0 69.333 5.83301 88 17.5s28 32.834 28 63.501s-9.33301 51.834 -28 63.501s-48 17.5 -88 17.5h-189v-60z" />
    <glyph glyph-name="seven" unicode="7" horiz-adv-x="637" 
d="M10 608l-0.000976562 46.001c0 12.667 4.66699 23.5 14 32.5s20.333 13.5 33 13.5h523c12.667 0 23.667 -4.5 33 -13.5s14 -19.833 14 -32.5v-45c0 -22.667 -10 -52.334 -30 -89.001l-256 -474c-16.667 -30.667 -38 -46 -64 -46h-100
c-13.333 -0 -22.666 4.33301 -27.999 13s-5.33301 18 0 28l282 521h-374c-13.333 0 -24.5 4.5 -33.5 13.5s-13.5 19.833 -13.5 32.5z" />
    <glyph glyph-name="eight" unicode="8" horiz-adv-x="756" 
d="M30 210c0 74.667 31.333 128.667 94 162c-44 36 -66 79 -66 129c0 36 7.33301 67.5 22 94.5s35 48.167 61 63.5s54.833 26.666 86.5 33.999s66.5 11 104.5 11h92c38 0 72.833 -3.66699 104.5 -11s60.5 -18.666 86.5 -33.999s46.333 -36.5 61 -63.5s22 -58.5 22 -94.5
c0 -50 -22 -93 -66 -129c62.667 -33.333 94 -87.333 94 -162c0 -68.667 -26 -121.5 -78 -158.5s-119 -55.5 -201 -55.5h-138c-82 0 -149 18.5 -201 55.5s-78 89.833 -78 158.5zM330 134h96c40 0 69.333 5.66699 88 17s28 31.333 28 60s-9.33301 48.667 -28 60s-48 17 -88 17
h-96c-40 0 -69.333 -5.66699 -88 -17s-28 -31.333 -28 -60s9.33301 -48.667 28 -60s48 -17 88 -17zM352 422h50c40 0 69.333 5.5 88 16.5s28 29.5 28 55.5s-9.33301 44.5 -28 55.5s-48 16.5 -88 16.5h-50c-40 0 -69.333 -5.5 -88 -16.5s-28 -29.5 -28 -55.5
s9.33301 -44.5 28 -55.5s48 -16.5 88 -16.5z" />
    <glyph glyph-name="nine" unicode="9" horiz-adv-x="743" 
d="M313 704h107c94 0 164.667 -18 212 -54s71 -98 71 -186v-216c0 -92.667 -23.5 -157.834 -70.5 -195.501s-117.167 -56.5 -210.5 -56.5h-124c-73.333 0 -134.5 16.167 -183.5 48.5s-73.5 72.833 -73.5 121.5c0 19.333 5.66699 33.166 17 41.499s22.333 12.5 33 12.5h58
c25.333 0 47.333 -15.333 66 -46c16 -26.667 49.333 -40 100 -40h90c40 0 69 8 87 24s27 46 27 90v18h-206c-92.667 0 -163 16.833 -211 50.5s-72 89.834 -72 168.501s24 134.834 72 168.501s118.333 50.5 211 50.5zM330 404l189 0.00195312v60c0 40 -9 67 -27 81
s-47.667 21 -89 21h-73c-40 0 -69.333 -5.83301 -88 -17.5s-28 -32.834 -28 -63.501s9.33301 -51.834 28 -63.501s48 -17.5 88 -17.5z" />
    <glyph glyph-name="colon" unicode=":" horiz-adv-x="272" 
d="M40 61v31c0 21.333 5.66699 37.666 17 48.999s27.666 17 48.999 17h60c21.333 0 37.666 -5.66699 48.999 -17s17 -27.666 17 -48.999v-31c0 -20.667 -5.66699 -36.834 -17 -48.501s-27.666 -17.5 -48.999 -17.5h-60c-21.333 0 -37.666 5.83301 -48.999 17.5
s-17 27.834 -17 48.501zM40 448v31c0 20.667 5.66699 36.834 17 48.501s27.666 17.5 48.999 17.5h60c21.333 0 37.666 -5.83301 48.999 -17.5s17 -27.834 17 -48.501v-31c0 -21.333 -5.66699 -37.666 -17 -48.999s-27.666 -17 -48.999 -17h-60
c-21.333 0 -37.666 5.66699 -48.999 17s-17 27.666 -17 48.999z" />
    <glyph glyph-name="semicolon" unicode=";" horiz-adv-x="274" 
d="M23 -55l29.002 156.999c2.66699 15.333 11.5 28.5 26.5 39.5s30.833 16.5 47.5 16.5h40c26 0 44.333 -6.66699 55 -20c5.33301 -7.33301 8 -16 8 -26c0 -8.66699 -2.33301 -18.667 -7 -30l-58 -147c-6.66699 -16 -16.834 -29.333 -30.501 -40s-29.167 -16 -46.5 -16h-19
c-20.667 0 -34.334 5.33301 -41.001 16c-4 6.66699 -6 15.667 -6 27c0 6.66699 0.666992 14.334 2 23.001zM42.002 447.999v31c0 20.667 5.66699 36.834 17 48.501s27.666 17.5 48.999 17.5h60c21.333 0 37.666 -5.83301 48.999 -17.5s17 -27.834 17 -48.501v-31
c0 -21.333 -5.66699 -37.666 -17 -48.999s-27.666 -17 -48.999 -17h-60c-21.333 0 -37.666 5.66699 -48.999 17s-17 27.666 -17 48.999z" />
    <glyph glyph-name="less" unicode="&#x3c;" horiz-adv-x="400" 
d="M10 255v24c0 21.333 9.66699 39 29 53l278 197c11.333 7.33301 21.333 8.83301 30 4.5s13 -12.5 13 -24.5v-84c0 -24 -14.333 -46 -43 -66l-130 -92l130 -92c28.667 -20 43 -42 43 -66v-84c0 -12 -4.33301 -20.167 -13 -24.5s-18.667 -2.83301 -30 4.5l-278 197
c-19.333 14 -29 31.667 -29 53z" />
    <glyph glyph-name="equal" unicode="=" horiz-adv-x="488" 
d="M30 173v58c0 8.66699 2.83301 15.834 8.5 21.501s12.834 8.5 21.501 8.5h368c8.66699 0 15.834 -2.83301 21.501 -8.5s8.5 -12.834 8.5 -21.501v-58c0 -8.66699 -2.83301 -15.834 -8.5 -21.501s-12.834 -8.5 -21.501 -8.5h-368c-8.66699 0 -15.834 2.83301 -21.501 8.5
s-8.5 12.834 -8.5 21.501zM30 379v58c0 8.66699 2.83301 15.834 8.5 21.501s12.834 8.5 21.501 8.5h368c8.66699 0 15.834 -2.83301 21.501 -8.5s8.5 -12.834 8.5 -21.501v-58c0 -8.66699 -2.83301 -15.834 -8.5 -21.501s-12.834 -8.5 -21.501 -8.5h-368
c-8.66699 0 -15.834 2.83301 -21.501 8.5s-8.5 12.834 -8.5 21.501z" />
    <glyph glyph-name="greater" unicode="&#x3e;" horiz-adv-x="400" 
d="M40 25v84c0 24 14.333 46 43 66l130 92l-130 92c-28.667 20 -43 42 -43 66v84c0 12 4.33301 20.333 13 25c3.33301 1.33301 6.66602 2 9.99902 2c6 0 12.667 -2.33301 20 -7l278 -197c19.333 -14 29 -31.667 29 -53v-24c0 -21.333 -9.66699 -39 -29 -53l-278 -197
c-7.33301 -4.66699 -14 -7 -20 -7c-3.33301 0 -6.66602 0.666992 -9.99902 2c-8.66699 4.66699 -13 13 -13 25z" />
    <glyph glyph-name="question" unicode="?" horiz-adv-x="645" 
d="M10 514c0 55.333 28.0059 100.833 84.0059 136.5s117.333 53.5 184 53.5h56c187.333 0 281 -72.667 281 -218c0 -32.667 -7.83301 -61 -23.5 -85s-34.834 -42.333 -57.501 -55s-45.334 -24 -68.001 -34s-41.834 -21 -57.501 -33s-23.5 -25.667 -23.5 -41
c0 -8.66699 -2.83301 -15.834 -8.5 -21.501s-12.834 -8.5 -21.501 -8.5h-110c-8.66699 0 -15.834 2.83301 -21.501 8.5s-8.5 12.834 -8.5 21.501c0 28 5.33301 52.667 16 74s24 38.166 40 50.499s33.333 23.833 52 34.5s36 19.667 52 27s29.333 16.333 40 27
s16 22.334 16 35.001c0 28 -8.83301 48.333 -26.5 61s-45.834 19 -84.501 19h-25c-54 0 -91 -20 -111 -60c-14.667 -30.667 -36.667 -46 -66 -46h-58c-6 0 -12.333 1.16699 -19 3.5s-13.5 8 -20.5 17s-10.5 20.167 -10.5 33.5zM205.006 61v31
c0 21.333 5.83301 37.666 17.5 48.999s27.834 17 48.501 17h60c20.667 0 36.834 -5.66699 48.501 -17s17.5 -27.666 17.5 -48.999v-31c0 -20.667 -5.83301 -36.834 -17.5 -48.501s-27.834 -17.5 -48.501 -17.5h-60c-20.667 0 -36.834 5.83301 -48.501 17.5
s-17.5 27.834 -17.5 48.501z" />
    <glyph glyph-name="at" unicode="@" horiz-adv-x="830" 
d="M425 710c116.667 0 208.332 -27.1641 274.999 -81.4971s100 -139.166 100 -254.499c0 -70.667 -19.167 -128.334 -57.5 -173.001s-96.166 -67 -173.499 -67h-47c-6 0 -11 2 -15 6s-6 8.66699 -6 14v11c-34.667 -24.667 -75 -37 -121 -37
c-46.667 0 -84.667 10.167 -114 30.5s-44 49.166 -44 86.499c0 36.667 14.667 65 44 85s67.333 30 114 30h110c0 26 -5.33301 44.167 -16 54.5s-28 15.5 -52 15.5c-30 0 -51.667 -7.33301 -65 -22c-8 -12 -20.667 -18 -38 -18h-50c-5.33301 0 -10 1.83301 -14 5.5
s-6 8.5 -6 14.5c0 64 60.667 96 182 96c52.667 0 95.167 -12 127.5 -36s48.5 -60.667 48.5 -110v-131c45.333 0 68 48.333 68 145c0 78 -22 135.5 -66 172.5s-105.333 55.5 -184 55.5c-84.667 0 -150.834 -25.833 -198.501 -77.5s-71.5 -119.834 -71.5 -204.501
s24 -152.834 72 -204.501s114 -77.5 198 -77.5c44 0 79.333 2.5 106 7.5s43.334 7.5 50.001 7.5h14c8.66699 0 15.834 -3.16699 21.501 -9.5s8.5 -13.833 8.5 -22.5v-46c0 -7.33301 -2.83301 -13.833 -8.5 -19.5s-12.834 -9.16699 -21.501 -10.5
c-50 -10 -106.667 -15 -170 -15c-121.333 0 -217.5 34.5 -288.5 103.5s-106.5 164.5 -106.5 286.5s35.5 217.5 106.5 286.5s167.167 103.5 288.5 103.5zM336.998 245.003c0 -12.667 4.83203 -22.833 14.499 -30.5s23.167 -11.5 40.5 -11.5c34.667 0 67.334 10 98.001 30v52
h-101c-16 0 -28.667 -3.83301 -38 -11.5s-14 -17.167 -14 -28.5z" />
    <glyph glyph-name="A" unicode="A" horiz-adv-x="834" 
d="M12 45l123 465.001c33.333 126.667 141.333 190 324 190h263c12 0 22 -4.5 30 -13.5s12 -19.5 12 -31.5v-610c0 -12.667 -4.5 -23.334 -13.5 -32.001s-19.833 -13 -32.5 -13h-92c-13.333 -0 -24.333 4.33301 -33 13s-13 19.667 -13 33v123h-347l-33 -123
c-3.33301 -13.333 -10.666 -24.333 -21.999 -33s-23.333 -13 -36 -13h-96c-12.667 -0 -22.334 4.33301 -29.001 13c-4.66699 6 -7 12.667 -7 20zM269 307.001h310.999v255h-139c-31.333 0 -58.666 -8.83301 -81.999 -26.5s-39 -41.5 -47 -71.5z" />
    <glyph glyph-name="B" unicode="B" horiz-adv-x="825" 
d="M70 654c0 12.667 4.49805 23.501 13.498 32.501s19.833 13.5 32.5 13.5h397c44.667 0 85.334 -6.16699 122.001 -18.5s67.834 -34 93.501 -65s38.5 -69.5 38.5 -115.5c0 -50 -22 -93 -66 -129c62.667 -33.333 94 -87.333 94 -162c0 -66.667 -25 -118.334 -75 -155.001
s-111.333 -55 -184 -55h-420c-12.667 0 -23.5 4.5 -32.5 13.5s-13.5 19.833 -13.5 32.5v608zM253.998 132.001h279c25.333 0 44.666 7.5 57.999 22.5s20 35.5 20 61.5s-6.66699 46.5 -20 61.5s-32.666 22.5 -57.999 22.5h-279v-168zM253.998 428.001h261
c20.667 0 37.167 6.16699 49.5 18.5s18.5 29.5 18.5 51.5s-6.16699 39.167 -18.5 51.5s-28.833 18.5 -49.5 18.5h-261v-140z" />
    <glyph glyph-name="C" unicode="C" horiz-adv-x="817" 
d="M392 704l109 -0.000976562c74 0 139.333 -19.167 196 -57.5s85 -90.833 85 -157.5c0 -19.333 -5.66699 -33.166 -17 -41.499s-22.333 -12.5 -33 -12.5h-58c-30 0 -53.333 18 -70 54c-24 51.333 -64 77 -120 77h-87c-71.333 0 -119.666 -15.333 -144.999 -46
s-38 -87.334 -38 -170.001s12.667 -139.334 38 -170.001s73.666 -46 144.999 -46h97c56 0 96 25.667 120 77c16.667 36 40 54 70 54h58c6 0 12.333 -1.16699 19 -3.5s13.5 -8 20.5 -17s10.5 -20.167 10.5 -33.5c0 -66.667 -28.333 -119.167 -85 -157.5
s-122 -57.5 -196 -57.5h-119c-120.667 0 -211.167 28.833 -271.5 86.5s-90.5 146.834 -90.5 267.501s30.167 209.834 90.5 267.501s150.833 86.5 271.5 86.5z" />
    <glyph glyph-name="D" unicode="D" horiz-adv-x="824" 
d="M70 45v607.999c0 13.333 4.5 24.5 13.5 33.5s19.833 13.5 32.5 13.5h273c141.333 0 244.166 -28.167 308.499 -84.5s96.5 -144.833 96.5 -265.5s-32.167 -209.167 -96.5 -265.5s-167.166 -84.5 -308.499 -84.5h-273c-12.667 0 -23.5 4.33301 -32.5 13
s-13.5 19.334 -13.5 32.001zM254 137.999h130c87.333 0 146.833 16 178.5 48s47.5 86.667 47.5 164s-15.833 132 -47.5 164s-91.167 48 -178.5 48h-130v-424z" />
    <glyph glyph-name="E" unicode="E" horiz-adv-x="745" 
d="M70 47l-0.000976562 608c0 12.667 4.5 23.334 13.5 32.001s19.833 13 32.5 13h563c12.667 0 23.5 -4.5 32.5 -13.5s13.5 -19.833 13.5 -32.5v-46c0 -12.667 -4.5 -23.5 -13.5 -32.5s-19.833 -13.5 -32.5 -13.5h-425v-142h366c12.667 0 23.5 -4.5 32.5 -13.5
s13.5 -19.833 13.5 -32.5v-46c0 -12.667 -4.5 -23.5 -13.5 -32.5s-19.833 -13.5 -32.5 -13.5h-366v-144h424c12.667 0 23.334 -4.33301 32.001 -13s13 -19.334 13 -32.001v-47c0 -12.667 -4.5 -23.5 -13.5 -32.5s-19.833 -13.5 -32.5 -13.5h-561
c-12.667 0 -23.5 4.5 -32.5 13.5s-13.5 20.167 -13.5 33.5z" />
    <glyph glyph-name="F" unicode="F" horiz-adv-x="735" 
d="M70 47v607.999c0 12.667 4.5 23.334 13.5 32.001s19.833 13 32.5 13h563c12.667 0 23.5 -4.5 32.5 -13.5s13.5 -19.833 13.5 -32.5v-46c0 -12.667 -4.5 -23.5 -13.5 -32.5s-19.833 -13.5 -32.5 -13.5h-425v-172h346c12.667 0 23.5 -4.5 32.5 -13.5
s13.5 -19.833 13.5 -32.5v-46c0 -12.667 -4.5 -23.5 -13.5 -32.5s-19.833 -13.5 -32.5 -13.5h-346v-205c0 -13.333 -4.5 -24.5 -13.5 -33.5s-19.833 -13.5 -32.5 -13.5h-92c-12.667 0 -23.5 4.5 -32.5 13.5s-13.5 20.167 -13.5 33.5z" />
    <glyph glyph-name="G" unicode="G" horiz-adv-x="828" 
d="M30 350c0 120.667 30.1641 209.832 90.4971 267.499s150.833 86.5 271.5 86.5h109c72 0 136.833 -17.167 194.5 -51.5s86.5 -77.166 86.5 -128.499c0 -19.333 -5.66699 -33.166 -17 -41.499s-22.333 -12.5 -33 -12.5h-58c-28 0 -50 15.333 -66 46
c-17.333 33.333 -58.666 50 -123.999 50h-87c-71.333 0 -119.666 -15.333 -144.999 -46s-38 -87.334 -38 -170.001c0 -81.333 11.333 -137.666 34 -168.999s63.334 -47 122.001 -47h100c52.667 0 90.167 10 112.5 30s33.833 48.667 34.5 86h-110
c-12.667 0 -23.5 4.5 -32.5 13.5s-13.5 19.833 -13.5 32.5v38c0 12.667 4.5 23.5 13.5 32.5s19.833 13.5 32.5 13.5h245c12.667 0 23.5 -4.5 32.5 -13.5s13.5 -19.833 13.5 -32.5v-54c0 -91.333 -27.333 -161.5 -82 -210.5s-135 -73.5 -241 -73.5h-110
c-108 0 -190.833 29.167 -248.5 87.5s-86.5 147.166 -86.5 266.499z" />
    <glyph glyph-name="H" unicode="H" horiz-adv-x="844" 
d="M70 46v608c0 12.667 4.5 23.5 13.5 32.5s20.167 13.5 33.5 13.5h91c12.667 0 23.5 -4.5 32.5 -13.5s13.5 -19.833 13.5 -32.5v-220h336v220c0 12.667 4.5 23.5 13.5 32.5s19.833 13.5 32.5 13.5h91c13.333 0 24.5 -4.5 33.5 -13.5s13.5 -19.833 13.5 -32.5v-608
c0 -12.667 -4.66699 -23.5 -14 -32.5s-20.333 -13.5 -33 -13.5h-91c-12.667 -0 -23.5 4.33301 -32.5 13s-13.5 19.334 -13.5 32.001v251h-336v-251c0 -12.667 -4.5 -23.334 -13.5 -32.001s-19.833 -13 -32.5 -13h-91c-12.667 0 -23.667 4.5 -33 13.5s-14 19.833 -14 32.5z
" />
    <glyph glyph-name="I" unicode="I" horiz-adv-x="324" 
d="M70 45v608.999c0 12.667 4.5 23.5 13.5 32.5s19.833 13.5 32.5 13.5h91c13.333 0 24.5 -4.5 33.5 -13.5s13.5 -19.833 13.5 -32.5v-608c0 -12.667 -4.66699 -23.5 -14 -32.5s-20.333 -13.5 -33 -13.5h-91c-12.667 0 -23.5 4.33301 -32.5 13s-13.5 19.334 -13.5 32.001z
" />
    <glyph glyph-name="J" unicode="J" horiz-adv-x="552" 
d="M0 46l0.000976562 54.999c0 12.667 4.33301 23.5 13 32.5s19.667 13.5 33 13.5h16c8.66699 0 22 -1.5 40 -4.5s32 -4.5 42 -4.5h35c45.333 0 78.166 9.33301 98.499 28s30.5 50 30.5 94v394c0 12.667 4.5 23.5 13.5 32.5s19.833 13.5 32.5 13.5h91
c13.333 0 24.5 -4.5 33.5 -13.5s13.5 -19.833 13.5 -32.5v-393c0 -83.333 -27.667 -147.666 -83 -192.999s-130.333 -68 -225 -68h-138c-12.667 0 -23.5 4.5 -32.5 13.5s-13.5 19.833 -13.5 32.5z" />
    <glyph glyph-name="K" unicode="K" horiz-adv-x="795" 
d="M70 47l0.00195312 606.999c0 12.667 4.5 23.667 13.5 33s19.833 14 32.5 14h92c12.667 0 23.5 -4.66699 32.5 -14s13.5 -20.333 13.5 -33v-234h105c28.667 0 53.834 7.83301 75.501 23.5s42.167 40.834 61.5 75.501l76 135c17.333 31.333 40.666 47 69.999 47h113
c12.667 0 20 -4.66699 22 -14c0.666992 -2 1 -4 1 -6c0 -8 -2.66699 -17 -8 -27l-106 -192c-15.333 -28 -32.5 -51.167 -51.5 -69.5s-43.833 -31.166 -74.5 -38.499c21.333 -4.66699 43.333 -18.167 66 -40.5s42.667 -46.833 60 -73.5l122 -194
c5.33301 -9.33301 8 -17.666 8 -24.999c0 -2.66699 -0.333008 -5.33398 -1 -8.00098c-3.33301 -8.66699 -11.333 -13 -24 -13h-112c-12.667 0 -26.334 4.5 -41.001 13.5s-26 19.833 -34 32.5l-86 136c-20.667 33.333 -41.334 58.333 -62.001 75s-45.667 25 -75 25h-105v-237
c0 -12.667 -4.5 -23.334 -13.5 -32.001s-19.833 -13 -32.5 -13h-92c-12.667 0 -23.5 4.66699 -32.5 14s-13.5 20.333 -13.5 33z" />
    <glyph glyph-name="L" unicode="L" horiz-adv-x="735" 
d="M70 45v607.999c0 13.333 4.5 24.5 13.5 33.5s19.833 13.5 32.5 13.5h92c12.667 0 23.5 -4.5 32.5 -13.5s13.5 -20.167 13.5 -33.5v-515h425c12.667 0 23.5 -4.5 32.5 -13.5s13.5 -19.833 13.5 -32.5v-46c0 -12.667 -4.5 -23.5 -13.5 -32.5s-19.833 -13.5 -32.5 -13.5
h-563c-12.667 0 -23.5 4.33301 -32.5 13s-13.5 19.334 -13.5 32.001z" />
    <glyph glyph-name="M" unicode="M" horiz-adv-x="1034" 
d="M70 47l-0.00195312 606c0 13.333 4.33301 24.5 13 33.5s19.334 13.5 32.001 13.5h199c12.667 0 24.667 -4.5 36 -13.5s19 -19.833 23 -32.5l144 -417l144 417c4 12.667 11.667 23.5 23 32.5s23.333 13.5 36 13.5h199c12.667 0 23.334 -4.5 32.001 -13.5
s13 -20.167 13 -33.5v-606c0 -13.333 -4.5 -24.5 -13.5 -33.5s-19.833 -13.5 -32.5 -13.5h-88c-12.667 0 -23.5 4.5 -32.5 13.5s-13.5 20.167 -13.5 33.5v477l-172 -480c-4.66699 -12 -12.667 -22.333 -24 -31s-23.333 -13 -36 -13h-70c-12.667 -0 -24.667 4.33301 -36 13
s-19.333 19 -24 31l-172 480v-477c0 -13.333 -4.5 -24.5 -13.5 -33.5s-19.833 -13.5 -32.5 -13.5h-88c-12.667 0 -23.5 4.5 -32.5 13.5s-13.5 20.167 -13.5 33.5z" />
    <glyph glyph-name="N" unicode="N" horiz-adv-x="867" 
d="M70 46l-0.000976562 607.999c0 12.667 4.33301 23.5 13 32.5s19.334 13.5 32.001 13.5h144c11.333 0 23.333 -4.5 36 -13.5s23 -19.833 31 -32.5l295 -454v455c0 12.667 4.5 23.334 13.5 32.001s19.833 13 32.5 13h84c12.667 0 23.5 -4.33301 32.5 -13
s13.5 -19.667 13.5 -33v-608c0 -12.667 -4.5 -23.5 -13.5 -32.5s-19.833 -13.5 -32.5 -13.5h-162c-12.667 0 -25.667 4.5 -39 13.5s-24 19.833 -32 32.5l-270 419v-419c0 -12.667 -4.5 -23.5 -13.5 -32.5s-19.833 -13.5 -32.5 -13.5h-86c-12.667 0 -23.5 4.5 -32.5 13.5
s-13.5 19.833 -13.5 32.5z" />
    <glyph glyph-name="O" unicode="O" horiz-adv-x="846" 
d="M130 72c-66.667 58.667 -100 151.333 -100 278s33.333 219.167 100 277.5s164.334 87.5 293.001 87.5s226.334 -29.167 293.001 -87.5s100 -150.833 100 -277.5s-33.333 -219.167 -100 -277.5s-164.334 -87.5 -293.001 -87.5s-226.334 29 -293.001 87zM263 523.999
c-32.667 -38.667 -49.001 -96.667 -49.001 -174s16.5 -135.5 49.5 -174.5s86.167 -58.5 159.5 -58.5s126.5 19.5 159.5 58.5s49.5 97.167 49.5 174.5s-16.5 135.5 -49.5 174.5s-86.167 58.5 -159.5 58.5s-126.666 -19.667 -159.999 -59z" />
    <glyph glyph-name="P" unicode="P" horiz-adv-x="803" 
d="M70 46l-0.000976562 608c0 12.667 4.33301 23.5 13 32.5s19.334 13.5 32.001 13.5h373c196.667 0 295 -90.667 295 -272s-98.333 -272 -295 -272h-234v-110c0 -12.667 -4.5 -23.5 -13.5 -32.5s-19.833 -13.5 -32.5 -13.5h-92c-12.667 0 -23.5 4.5 -32.5 13.5
s-13.5 19.833 -13.5 32.5zM253.999 294h178c54.667 0 96.167 9.16699 124.5 27.5s42.5 53.833 42.5 106.5s-14.167 88.167 -42.5 106.5s-69.833 27.5 -124.5 27.5h-178v-268z" />
    <glyph glyph-name="Q" unicode="Q" horiz-adv-x="844" 
d="M423 715c130 0 228 -27.501 294 -82.501s99 -144.167 99 -267.5c0 -31.333 -3.16699 -60.5 -9.5 -87.5s-15.833 -50.833 -28.5 -71.5s-22.5 -35.667 -29.5 -45s-16.5 -20.666 -28.5 -33.999h78c13.333 0 24.333 -4.5 33 -13.5s13 -19.833 13 -32.5v-40
c0 -12.667 -4.33301 -23.5 -13 -32.5s-19.667 -13.5 -33 -13.5h-375c-128.667 0 -226.334 29 -293.001 87s-100 149 -100 273s33.333 215 100 273s164.334 87 293.001 87zM423 126.999c139.333 0 209 79.335 209 238.002c0 74 -16.5 128.833 -49.5 164.5
s-86.167 53.5 -159.5 53.5c-72.667 0 -125.667 -19.333 -159 -58s-50 -95.334 -50 -170.001s16.667 -131.334 50 -170.001s86.333 -58 159 -58z" />
    <glyph glyph-name="R" unicode="R" horiz-adv-x="808" 
d="M70 46l-0.000976562 607.998c0 12.667 4.33301 23.5 13 32.5s19.334 13.5 32.001 13.5h403c74.667 0 135.834 -20 183.501 -60s71.5 -94 71.5 -162c0 -94.667 -61.333 -154 -184 -178c19.333 -7.33301 37.333 -19.666 54 -36.999s35.667 -42.666 57 -75.999l89 -141
c5.33301 -9.33301 8 -17.666 8 -24.999c0 -2.66699 -0.333008 -5.33398 -1 -8.00098c-3.33301 -8.66699 -11.333 -13 -24 -13h-117c-12.667 0 -26.334 4.5 -41.001 13.5s-26 19.833 -34 32.5l-83 130c-34 53.333 -75.333 80 -124 80h-119v-210
c0 -12.667 -4.5 -23.5 -13.5 -32.5s-19.833 -13.5 -32.5 -13.5h-92c-12.667 0 -23.5 4.5 -32.5 13.5s-13.5 19.833 -13.5 32.5zM253.999 393.998l208 0.00195312c33.333 0 62.833 6.66699 88.5 20s38.5 34.666 38.5 63.999s-12.833 50.666 -38.5 63.999s-55.167 20 -88.5 20
h-208v-168z" />
    <glyph glyph-name="S" unicode="S" horiz-adv-x="779" 
d="M30 179c0 19.333 5.66406 33.168 16.9971 41.501s22.333 12.5 33 12.5h58c29.333 0 51.333 -15.333 66 -46c16 -33.333 50.667 -50 104 -50l171 -3c57.333 0 86 18.667 86 56c0 15.333 -9.66699 28.5 -29 39.5s-44.666 20.167 -75.999 27.5s-65.833 14.666 -103.5 21.999
s-75.167 16.5 -112.5 27.5s-71.666 24 -102.999 39s-56.666 35.667 -75.999 62s-29 57.166 -29 92.499c0 65.333 23.333 115.666 70 150.999s126.667 53 240 53l124 -3c66.667 0 126.834 -17.167 180.501 -51.5s80.5 -77.166 80.5 -128.499
c0 -19.333 -5.66699 -33.166 -17 -41.499s-22.333 -12.5 -33 -12.5h-58c-29.333 0 -51.333 15.333 -66 46c-16 33.333 -50.667 50 -104 50l-147 3c-57.333 0 -86 -18.667 -86 -56c0 -20.667 18.167 -37.5 54.5 -50.5s80.333 -24.5 132 -34.5s103.5 -22 155.5 -36
s96.167 -37 132.5 -69s54.5 -72 54.5 -120c0 -65.333 -23.333 -115.666 -70 -150.999s-126.667 -53 -240 -53l-148 3c-66.667 0 -126.834 17.167 -180.501 51.5s-80.5 77.166 -80.5 128.499z" />
    <glyph glyph-name="T" unicode="T" horiz-adv-x="732" 
d="M10 608v46c0 13.333 4.33301 24.333 13 33s19.667 13 33 13h620c13.333 0 24.333 -4.33301 33 -13s13 -19.667 13 -33v-46c0 -13.333 -4.33301 -24.333 -13 -33s-19.667 -13 -33 -13h-218v-517c0 -12.667 -4.5 -23.334 -13.5 -32.001s-19.833 -13 -32.5 -13h-92
c-12.667 0 -23.5 4.33301 -32.5 13s-13.5 19.334 -13.5 32.001v517h-218c-13.333 0 -24.333 4.33301 -33 13s-13 19.667 -13 33z" />
    <glyph glyph-name="U" unicode="U" horiz-adv-x="824" 
d="M60 277v377c0 12.667 4.5 23.5 13.5 32.5s20.167 13.5 33.5 13.5h91c12.667 0 23.5 -4.5 32.5 -13.5s13.5 -19.833 13.5 -32.5v-378c0 -48 10.5 -83.667 31.5 -107s53.5 -35 97.5 -35h78c44 0 76.5 11.667 97.5 35s31.5 59 31.5 107v378c0 12.667 4.5 23.5 13.5 32.5
s19.833 13.5 32.5 13.5h91c13.333 0 24.5 -4.5 33.5 -13.5s13.5 -19.833 13.5 -32.5v-377c0 -89.333 -26.167 -158.5 -78.5 -207.5s-128.833 -73.5 -229.5 -73.5h-88c-100.667 0 -177.167 24.5 -229.5 73.5s-78.5 118.167 -78.5 207.5z" />
    <glyph glyph-name="V" unicode="V" horiz-adv-x="798" 
d="M13 659c-2 4 -2.99805 7.66699 -2.99805 11c0 6 2.33301 11.667 7 17c7.33301 8.66699 16.666 13 27.999 13h107c25.333 0 44.666 -15.333 57.999 -46l189 -421l189 421c13.333 30.667 32.666 46 57.999 46h107c11.333 0 20.666 -4.33301 27.999 -13
c4.66699 -5.33301 7 -11 7 -17c0 -3.33301 -1 -7 -3 -11l-281 -609c-15.333 -33.333 -38.666 -50 -69.999 -50h-70c-31.333 0 -54.666 16.667 -69.999 50z" />
    <glyph glyph-name="W" unicode="W" horiz-adv-x="1120" 
d="M12 659c-1.33301 4 -2.00098 7.66699 -2.00098 11c0 6.66699 2.33301 12.334 7 17.001c6.66699 8.66699 15.667 13 27 13h107c12.667 0 24.334 -4.33301 35.001 -13s18.334 -19.667 23.001 -33l129 -387l119 387c9.33301 30.667 28.666 46 57.999 46h90
c29.333 0 48.666 -15.333 57.999 -46l119 -387l129 387c4.66699 13.333 12.334 24.333 23.001 33s22.334 13 35.001 13h107c11.333 0 20.666 -4.33301 27.999 -13c4 -4.66699 6 -10.334 6 -17.001c0 -3.33301 -0.666992 -7 -2 -11l-218 -609
c-12 -33.333 -35.333 -50 -70 -50h-71c-36 0 -59.333 16.667 -70 50l-119 376l-119 -376c-10.667 -33.333 -34 -50 -70 -50h-71c-34.667 0 -58 16.667 -70 50z" />
    <glyph glyph-name="X" unicode="X" horiz-adv-x="750" 
d="M12 14c-1.33301 2.66699 -2.00195 5.33398 -2.00195 8.00098c0 7.33301 3.33301 15.333 10 24l246 314l-232 294c-6.66699 8.66699 -10 16.667 -10 24c0 2.66699 0.333008 5.33398 1 8.00098c4 9.33301 12.667 14 26 14h105c32.667 0 61 -15.333 85 -46l134 -170l134 170
c24 30.667 52.333 46 85 46h105c13.333 0 22 -4.66699 26 -14c0.666992 -2.66699 1 -5.33398 1 -8.00098c0 -7.33301 -3.33301 -15.333 -10 -24l-232 -294l246 -314c6.66699 -8.66699 10 -16.667 10 -24c0 -2.66699 -0.666992 -5.33398 -2 -8.00098
c-3.33301 -9.33301 -11.666 -14 -24.999 -14h-104c-32.667 -0 -61 15.333 -85 46l-149 190l-149 -190c-24 -30.667 -52.333 -46 -85 -46h-104c-13.333 0 -21.666 4.66699 -24.999 14z" />
    <glyph glyph-name="Y" unicode="Y" horiz-adv-x="742" 
d="M11 686c3.33301 9.33301 11.333 14 24 14h93c36.667 0 65 -15.333 85 -46l158 -244l158 244c20 30.667 48.333 46 85 46h93c12.667 0 20.667 -4.66699 24 -14c0.666992 -3.33301 1 -6.33301 1 -9c0 -7.33301 -2.66699 -15 -8 -23l-261 -404v-205
c0 -12.667 -4.5 -23.334 -13.5 -32.001s-19.833 -13 -32.5 -13h-92c-12.667 0 -23.5 4.33301 -32.5 13s-13.5 19.334 -13.5 32.001v205l-261 404c-5.33301 8 -8 15.667 -8 23c0 2.66699 0.333008 5.66699 1 9z" />
    <glyph glyph-name="Z" unicode="Z" horiz-adv-x="717" 
d="M25 608l0.000976562 45.998c0 13.333 4.5 24.333 13.5 33s19.833 13 32.5 13h570c12.667 0 23.5 -4.33301 32.5 -13s13.5 -19.667 13.5 -33v-55c0 -13.333 -2.83301 -26.166 -8.5 -38.499s-10.834 -21.166 -15.501 -26.499l-22 -22l-384 -374h389
c13.333 0 24.333 -4.33301 33 -13s13 -19.667 13 -33v-46c0 -13.333 -4.33301 -24.333 -13 -33s-19.667 -13 -33 -13h-567c-12.667 -0 -23.5 4.33301 -32.5 13s-13.5 19.667 -13.5 33v54c0 31.333 15.333 62.333 46 93l372 369h-380c-12.667 0 -23.5 4.33301 -32.5 13
s-13.5 19.667 -13.5 33z" />
    <glyph glyph-name="bracketleft" unicode="[" horiz-adv-x="389" 
d="M70 -100v810.002c0 8.66699 2.83301 15.834 8.5 21.501s12.834 8.5 21.501 8.5h249c8.66699 0 15.834 -2.83301 21.501 -8.5s8.5 -12.834 8.5 -21.501v-53c0 -8.66699 -2.83301 -15.834 -8.5 -21.501s-12.834 -8.5 -21.501 -8.5h-120v-644h120
c8.66699 0 15.834 -2.83301 21.501 -8.5s8.5 -12.834 8.5 -21.501v-53c0 -8.66699 -2.83301 -15.834 -8.5 -21.501s-12.834 -8.5 -21.501 -8.5h-249c-8.66699 0 -15.834 2.83301 -21.501 8.5s-8.5 12.834 -8.5 21.501z" />
    <glyph glyph-name="backslash" unicode="\" horiz-adv-x="515" 
d="M1 686c3.33301 9.33301 11 14 23 14h82c41.333 0 69.666 -15.333 84.999 -46l317 -608c4.66699 -8 7 -15.667 7 -23c0 -3.33301 -0.333008 -6.33301 -1 -9c-3.33301 -9.33301 -11 -14 -23 -14h-82c-41.333 -0 -69.666 15.333 -84.999 46l-317 608
c-4.66699 8 -7 15.667 -7 23c-0 3.33301 0.333008 6.33301 1 9z" />
    <glyph glyph-name="bracketright" unicode="]" horiz-adv-x="389" 
d="M10 -47c0 8.66699 2.83301 15.832 8.5 21.499s12.834 8.5 21.501 8.5h120v644h-120c-8.66699 0 -15.834 2.83301 -21.501 8.5s-8.5 12.834 -8.5 21.501v53c0 8.66699 2.83301 15.834 8.5 21.501s12.834 8.5 21.501 8.5h249c8.66699 0 15.834 -2.83301 21.501 -8.5
s8.5 -12.834 8.5 -21.501v-810c0 -8.66699 -2.83301 -15.834 -8.5 -21.501s-12.834 -8.5 -21.501 -8.5h-249c-8.66699 0 -15.834 2.83301 -21.501 8.5s-8.5 12.834 -8.5 21.501v53z" />
    <glyph glyph-name="asciicircum" unicode="^" horiz-adv-x="532" 
d="M2 391c-1.33301 3.33301 -2 6.66602 -2 9.99902c-0 6 2.33301 12.333 7 19l157 237c19.333 28.667 41.333 43 66 43h72c24.667 0 46.667 -14.333 66 -43l157 -237c4.66699 -6.66699 7 -13 7 -19c0 -3.33301 -1 -6.66602 -3 -9.99902c-4 -9.33301 -12 -14 -24 -14h-77
c-25.333 0 -47 13.667 -65 41l-97 146l-97 -146c-18 -27.333 -39.667 -41 -65 -41h-77c-12 0 -20.333 4.66699 -25 14z" />
    <glyph glyph-name="underscore" unicode="_" horiz-adv-x="400" 
d="M0 -30c0 8.66699 2.83301 15.834 8.5 21.501s12.834 8.5 21.501 8.5h340c8.66699 0 15.834 -2.83301 21.501 -8.5s8.5 -12.834 8.5 -21.501v-58c0 -8.66699 -2.83301 -15.834 -8.5 -21.501s-12.834 -8.5 -21.501 -8.5h-340c-8.66699 0 -15.834 2.83301 -21.501 8.5
s-8.5 12.834 -8.5 21.501v58z" />
    <glyph glyph-name="grave" unicode="`" horiz-adv-x="275" 
d="M28 679c11.333 14 30.334 21.001 57.001 21.001h40c16 0 31 -5.5 45 -16.5s23.667 -24.167 29 -39.5l51 -158c3.33301 -10.667 5 -20 5 -28c0 -25.333 -16.667 -38 -50 -38h-19c-31.333 0 -57 18.667 -77 56l-80 148c-6 11.333 -8.66699 21.666 -8 30.999
c-0.666992 9.33301 1.66602 17.333 6.99902 24z" />
    <glyph glyph-name="a" unicode="a" horiz-adv-x="652" 
d="M261 332h162.003c0 38 -8 64.5 -24 79.5s-41.333 22.5 -76 22.5c-45.333 0 -77 -11 -95 -33c-14 -17.333 -32.667 -26 -56 -26h-73c-8.66699 0 -15.834 2.83301 -21.501 8.5s-8.5 12.834 -8.5 21.501c0 93.333 88.667 140 266 140c77.333 0 139.5 -17.333 186.5 -52
s70.5 -88.334 70.5 -161.001v-302c0 -8.66699 -2.83301 -15.834 -8.5 -21.501s-12.834 -8.5 -21.501 -8.5h-94c-8.66699 0 -15.834 2.83301 -21.501 8.5s-8.5 12.834 -8.5 21.501v15c-51.333 -36.667 -110.333 -55 -177 -55c-68 0 -123.5 15 -166.5 45
s-64.5 72.333 -64.5 127s21.5 96.667 64.5 126s98.5 44 166.5 44zM199.003 162c0 -18 6.83301 -32.667 20.5 -44s33.167 -17 58.5 -17c50 0 98.333 14.667 145 44v76h-150c-22.667 0 -40.667 -5.5 -54 -16.5s-20 -25.167 -20 -42.5z" />
    <glyph glyph-name="b" unicode="b" horiz-adv-x="662" 
d="M60 670c0 8.66699 2.83105 15.834 8.49805 21.501s12.834 8.5 21.501 8.5h109c8.66699 0 15.834 -2.83301 21.501 -8.5s8.5 -12.834 8.5 -21.501v-150c52.667 16.667 99.667 25 141 25c80 0 143.667 -23.833 191 -71.5s71 -116.5 71 -206.5
c0 -184.667 -103.333 -277 -310 -277c-47.333 0 -96.333 5.33301 -147 16s-89 23.667 -115 39v625zM228.998 407l0.000976562 -288c28 -7.33301 62.333 -11 103 -11c46 0 78.5 12.5 97.5 37.5s28.5 65.5 28.5 121.5s-9.33301 96.667 -28 122s-50.334 38 -95.001 38
c-28.667 0 -64 -6.66699 -106 -20z" />
    <glyph glyph-name="c" unicode="c" horiz-adv-x="621" 
d="M30 267c0 91.333 25.167 160.502 75.5 207.502s121.833 70.5 214.5 70.5c87.333 0 155.166 -14.333 203.499 -43s72.5 -71 72.5 -127c0 -8.66699 -2.83301 -15.834 -8.5 -21.501s-12.834 -8.5 -21.501 -8.5h-73c-22 0 -40.667 12 -56 36
c-19.333 30.667 -54.333 46 -105 46c-46.667 0 -79.667 -12.5 -99 -37.5s-29 -65.833 -29 -122.5c0 -56 10 -96.5 30 -121.5s54.333 -37.5 103 -37.5c50.667 0 85.667 15.333 105 46c15.333 24 34 36 56 36h73c8.66699 0 15.834 -2.83301 21.501 -8.5
s8.5 -12.834 8.5 -21.501c0 -56 -24.167 -98.333 -72.5 -127s-116.166 -43 -203.499 -43c-95.333 0 -168.333 23.5 -219 70.5s-76 115.833 -76 206.5z" />
    <glyph glyph-name="d" unicode="d" horiz-adv-x="662" 
d="M30 267c0 90 23.667 158.833 71 206.5s111 71.5 191 71.5c41.333 0 88.333 -8.33301 141 -25v150c0 8.66699 2.83301 15.834 8.5 21.501s12.834 8.5 21.501 8.5h109c8.66699 0 15.834 -2.83301 21.501 -8.5s8.5 -12.834 8.5 -21.501v-640
c0 -8.66699 -2.83301 -15.834 -8.5 -21.501s-12.834 -8.5 -21.501 -8.5h-94c-8.66699 0 -15.834 2.83301 -21.501 8.5s-8.5 12.834 -8.5 21.501v15c-51.333 -36.667 -108.333 -55 -171 -55c-73.333 0 -132.833 24 -178.5 72s-68.5 116.333 -68.5 205zM204 267
c0 -55.333 8.83301 -95.667 26.5 -121s46.5 -38 86.5 -38c30.667 0 69.334 14.667 116.001 44v255c-42 13.333 -77.333 20 -106 20c-44.667 0 -76.334 -12.667 -95.001 -38s-28 -66 -28 -122z" />
    <glyph glyph-name="e" unicode="e" horiz-adv-x="630" 
d="M315 545c90 0 160 -23.3311 210 -69.998s75 -113.667 75 -201v-28c0 -8.66699 -2.83301 -15.834 -8.5 -21.501s-12.834 -8.5 -21.501 -8.5h-368c3.33301 -40 14.833 -69.167 34.5 -87.5s49.834 -27.5 90.501 -27.5c46 0 78 11 96 33c14 17.333 32.667 26 56 26h73
c8.66699 0 15.834 -2.83301 21.501 -8.5s8.5 -12.834 8.5 -21.501c0 -93.333 -89 -140 -267 -140c-90 0 -160 23.833 -210 71.5s-75 116.167 -75 205.5s25.167 158 75.5 206s120.166 72 209.499 72zM201 319.002h227c-3.33301 76.667 -41 115 -113 115
s-110 -38.333 -114 -115z" />
    <glyph glyph-name="f" unicode="f" horiz-adv-x="480" 
d="M60 30l0.00585938 430.003c0 90.667 20.667 155 62 193s114 57 218 57c53.333 0 96.666 -3.33301 129.999 -10c8.66699 -1.33301 15.834 -4.83301 21.501 -10.5s8.5 -12.167 8.5 -19.5v-54c0 -8.66699 -2.83301 -15.834 -8.5 -21.501s-12.834 -8.5 -21.501 -8.5h-18
c-6.66699 0 -17.334 1.33301 -32.001 4s-26.334 4 -35.001 4c-64.667 0 -106.834 -8.66699 -126.501 -26s-29.5 -53.333 -29.5 -108v-8h177c8.66699 0 15.834 -2.83301 21.501 -8.5s8.5 -12.834 8.5 -21.501v-58c0 -8.66699 -2.83301 -15.834 -8.5 -21.501
s-12.834 -8.5 -21.501 -8.5h-177v-304c0 -8.66699 -2.83301 -15.834 -8.5 -21.501s-12.834 -8.5 -21.501 -8.5h-109c-8.66699 0 -15.834 2.83301 -21.501 8.5s-8.5 12.834 -8.5 21.501z" />
    <glyph glyph-name="g" unicode="g" horiz-adv-x="652" 
d="M30 291c0 80.667 25.832 143.167 77.499 187.5s125.834 66.5 222.501 66.5c47.333 0 96.333 -5.33301 147 -16s89 -23.667 115 -39v-452c0 -72.667 -24 -126.334 -72 -161.001s-113 -52 -195 -52c-90.667 0 -159.334 10.833 -206.001 32.5s-70 57.5 -70 107.5
c0 8.66699 2.83301 15.834 8.5 21.501s12.834 8.5 21.501 8.5h73c23.333 0 42 -8.66699 56 -26c18 -22 53 -33 105 -33c39.333 0 67.5 7.5 84.5 22.5s25.5 41.5 25.5 79.5v23c-52 -13.333 -100.667 -20 -146 -20c-74 0 -133.667 22.333 -179 67s-68 105.667 -68 183z
M203.999 291c0 -88 37.668 -132 113.001 -132c31.333 0 66.666 5 105.999 15v242c-28 7.33301 -62.333 11 -103 11c-77.333 0 -116 -45.333 -116 -136z" />
    <glyph glyph-name="h" unicode="h" 
d="M60 30l0.00195312 640c0 8.66699 2.83301 15.834 8.5 21.501s12.834 8.5 21.501 8.5h109c8.66699 0 15.834 -2.83301 21.501 -8.5s8.5 -12.834 8.5 -21.501v-196c56 47.333 113 71 171 71c68.667 0 122.834 -19.333 162.501 -58s59.5 -97.667 59.5 -177v-280
c0 -8.66699 -2.83301 -15.834 -8.5 -21.501s-12.834 -8.5 -21.501 -8.5h-109c-8.66699 0 -15.834 2.83301 -21.501 8.5s-8.5 12.834 -8.5 21.501v280c0 78 -31 117 -93 117c-40.667 0 -84.334 -23.333 -131.001 -70v-327c0 -8.66699 -2.83301 -15.834 -8.5 -21.501
s-12.834 -8.5 -21.501 -8.5h-109c-8.66699 0 -15.834 2.83301 -21.501 8.5s-8.5 12.834 -8.5 21.501z" />
    <glyph glyph-name="i" unicode="i" horiz-adv-x="293" 
d="M60 637v17c0 17.333 5 31 15 41s23.667 15 41 15h61c17.333 0 31 -5 41 -15s15 -23.667 15 -41v-17c0 -17.333 -5 -31 -15 -41s-23.667 -15 -41 -15h-61c-17.333 0 -31 5 -41 15s-15 23.667 -15 41zM62 30v463c0 8.66699 2.83301 15.834 8.5 21.501
s12.834 8.5 21.501 8.5h109c8.66699 0 15.834 -2.83301 21.501 -8.5s8.5 -12.834 8.5 -21.501v-463c0 -8.66699 -2.83301 -15.834 -8.5 -21.501s-12.834 -8.5 -21.501 -8.5h-109c-8.66699 0 -15.834 2.83301 -21.501 8.5s-8.5 12.834 -8.5 21.501z" />
    <glyph glyph-name="j" unicode="j" horiz-adv-x="301" 
d="M-90 -82c0 8.66699 2.83105 15.833 8.49805 21.5s12.834 8.5 21.501 8.5h15c6 0 14.167 -1.16699 24.5 -3.5s18.833 -3.5 25.5 -3.5c18 0 33.333 9 46 27s19 47 19 87v438c0 8.66699 2.83301 15.834 8.5 21.501s12.834 8.5 21.501 8.5h109
c8.66699 0 15.834 -2.83301 21.501 -8.5s8.5 -12.834 8.5 -21.501v-438c0 -153.333 -63 -230 -189 -230c-44.667 0 -81.334 3.33301 -110.001 10c-20 4.66699 -30 14.667 -30 30v53zM67.998 636.999v17c0 17.333 5 31 15 41s23.667 15 41 15h61c17.333 0 31 -5 41 -15
s15 -23.667 15 -41v-17c0 -17.333 -5 -31 -15 -41s-23.667 -15 -41 -15h-61c-17.333 0 -31 5 -41 15s-15 23.667 -15 41z" />
    <glyph glyph-name="k" unicode="k" horiz-adv-x="610" 
d="M60 30l-0.000976562 640c0 8.66699 2.83301 15.834 8.5 21.501s12.834 8.5 21.501 8.5h109c8.66699 0 15.834 -2.83301 21.501 -8.5s8.5 -12.834 8.5 -21.501v-347c56.667 0 95.334 22 116.001 66l47 100c6.66699 14 16.334 25.167 29.001 33.5s26.334 12.5 41.001 12.5
h92c16.667 0 25 -6.33301 25 -19c0 -7.33301 -2.66699 -16.333 -8 -27l-63 -133c-10.667 -22 -25.334 -41 -44.001 -57s-38.667 -26.333 -60 -31c40 -12 74.667 -41.333 104 -88l83 -134c5.33301 -9.33301 8.33301 -17.666 9 -24.999
c0 -2.66699 -0.666992 -5.33398 -2 -8.00098c-3.33301 -8.66699 -11.333 -13 -24 -13h-92c-31.333 -0 -56.333 15.333 -75 46l-62 101c-26.667 43.333 -65.334 65 -116.001 65v-182c0 -8.66699 -2.83301 -15.834 -8.5 -21.501s-12.834 -8.5 -21.501 -8.5h-109
c-8.66699 0 -15.834 2.83301 -21.501 8.5s-8.5 12.834 -8.5 21.501z" />
    <glyph glyph-name="l" unicode="l" horiz-adv-x="289" 
d="M60 30v640c0 8.66699 2.83301 15.834 8.5 21.501s12.834 8.5 21.501 8.5h109c8.66699 0 15.834 -2.83301 21.501 -8.5s8.5 -12.834 8.5 -21.501v-640c0 -8.66699 -2.83301 -15.834 -8.5 -21.501s-12.834 -8.5 -21.501 -8.5h-109c-8.66699 0 -15.834 2.83301 -21.501 8.5
s-8.5 12.834 -8.5 21.501z" />
    <glyph glyph-name="m" unicode="m" horiz-adv-x="1005" 
d="M60 30l0.00488281 475c0 8.66699 2.83301 15.834 8.5 21.501s12.834 8.5 21.501 8.5h109c8.66699 0 15.834 -2.83301 21.501 -8.5s8.5 -12.834 8.5 -21.501v-31c23.333 22.667 46.333 40.167 69 52.5s50 18.5 82 18.5c76 0 133.333 -31.333 172 -94
c60.667 62.667 122.667 94 186 94c64 0 114.5 -19.167 151.5 -57.5s55.5 -97.5 55.5 -177.5v-280c0 -8.66699 -2.83301 -15.834 -8.5 -21.501s-12.834 -8.5 -21.501 -8.5h-109c-8.66699 0 -15.834 2.83301 -21.501 8.5s-8.5 12.834 -8.5 21.501v280
c0 78 -28.333 117 -85 117c-34.667 0 -70.334 -25 -107.001 -75c2 -14 3 -28 3 -42v-280c0 -8.66699 -2.83301 -15.834 -8.5 -21.501s-12.834 -8.5 -21.501 -8.5h-109c-8.66699 0 -15.834 2.83301 -21.501 8.5s-8.5 12.834 -8.5 21.501v280c0 78 -28.333 117 -85 117
c-36 0 -70.667 -23.333 -104 -70v-327c0 -8.66699 -2.83301 -15.834 -8.5 -21.501s-12.834 -8.5 -21.501 -8.5h-109c-8.66699 0 -15.834 2.83301 -21.501 8.5s-8.5 12.834 -8.5 21.501z" />
    <glyph glyph-name="n" unicode="n" 
d="M60 30l0.00195312 475c0 8.66699 2.83301 15.834 8.5 21.501s12.834 8.5 21.501 8.5h109c8.66699 0 15.834 -2.83301 21.501 -8.5s8.5 -12.834 8.5 -21.501v-31c56 47.333 113 71 171 71c68.667 0 122.834 -19.333 162.501 -58s59.5 -97.667 59.5 -177v-280
c0 -8.66699 -2.83301 -15.834 -8.5 -21.501s-12.834 -8.5 -21.501 -8.5h-109c-8.66699 0 -15.834 2.83301 -21.501 8.5s-8.5 12.834 -8.5 21.501v280c0 78 -31 117 -93 117c-40.667 0 -84.334 -23.333 -131.001 -70v-327c0 -8.66699 -2.83301 -15.834 -8.5 -21.501
s-12.834 -8.5 -21.501 -8.5h-109c-8.66699 0 -15.834 2.83301 -21.501 8.5s-8.5 12.834 -8.5 21.501z" />
    <glyph glyph-name="o" unicode="o" horiz-adv-x="650" 
d="M106 61c-50.667 46.667 -76 115.667 -76 207s25.333 160.333 76 207s123.667 70 219 70s168.333 -23.333 219 -70s76 -115.667 76 -207s-25.333 -160.5 -76 -207.5s-123.667 -70.5 -219 -70.5s-168.333 23.667 -219 71zM229 395c-20 -26.667 -29.999 -69 -29.999 -127
s10.167 -100.333 30.5 -127s52.166 -40 95.499 -40s75.166 13.333 95.499 40s30.5 69 30.5 127s-10.167 100.167 -30.5 126.5s-52.166 39.5 -95.499 39.5s-75.333 -13 -96 -39z" />
    <glyph glyph-name="p" unicode="p" horiz-adv-x="662" 
d="M60 -135v640c0 8.66699 2.83301 15.834 8.5 21.501s12.834 8.5 21.501 8.5h94c8.66699 0 15.834 -2.83301 21.501 -8.5s8.5 -12.834 8.5 -21.501v-15c51.333 36.667 108.333 55 171 55c73.333 0 132.833 -24 178.5 -72s68.5 -116.333 68.5 -205
c0 -90 -23.667 -158.833 -71 -206.5s-111 -71.5 -191 -71.5c-41.333 0 -88.333 8.33301 -141 25v-150c0 -8.66699 -2.83301 -15.834 -8.5 -21.501s-12.834 -8.5 -21.501 -8.5h-109c-8.66699 0 -15.834 2.83301 -21.501 8.5s-8.5 12.834 -8.5 21.501zM229 128
c42 -13.333 77.333 -19.999 106 -19.999c44.667 0 76.334 12.667 95.001 38s28 66 28 122c0 55.333 -8.83301 95.666 -26.5 120.999s-46.5 38 -86.5 38c-30.667 0 -69.334 -14.667 -116.001 -44v-255z" />
    <glyph glyph-name="q" unicode="q" horiz-adv-x="662" 
d="M30 268c0 184.667 103.335 277 310.002 277c47.333 0 96.333 -5.33301 147 -16s89 -23.667 115 -39v-625c0 -8.66699 -2.83301 -15.834 -8.5 -21.501s-12.834 -8.5 -21.501 -8.5h-109c-8.66699 0 -15.834 2.83301 -21.501 8.5s-8.5 12.834 -8.5 21.501v150
c-52.667 -16.667 -99.667 -25 -141 -25c-80 0 -143.667 23.833 -191 71.5s-71 116.5 -71 206.5zM327.002 108c28.667 0 63.999 6.66699 105.999 20v288c-28 7.33301 -62.333 11 -103 11c-46 0 -78.5 -12.5 -97.5 -37.5s-28.5 -65.5 -28.5 -121.5s9.33301 -96.667 28 -122
s50.334 -38 95.001 -38z" />
    <glyph glyph-name="r" unicode="r" horiz-adv-x="486" 
d="M60 30v475.002c0 8.66699 2.83301 15.834 8.5 21.501s12.834 8.5 21.501 8.5h109c8.66699 0 15.834 -2.83301 21.501 -8.5s8.5 -12.834 8.5 -21.501v-31c33.333 24 65.333 41.833 96 53.5s71 17.5 121 17.5c8.66699 0 15.834 -2.83301 21.501 -8.5
s8.5 -12.834 8.5 -21.501v-74c0 -8.66699 -2.83301 -15.834 -8.5 -21.501s-12.834 -8.5 -21.501 -8.5h-16c-7.33301 0 -19.5 0.5 -36.5 1.5s-29.833 1.5 -38.5 1.5c-44 0 -86 -24 -126 -72v-312c0 -8.66699 -2.83301 -15.834 -8.5 -21.501s-12.834 -8.5 -21.501 -8.5h-109
c-8.66699 0 -15.834 2.83301 -21.501 8.5s-8.5 12.834 -8.5 21.501z" />
    <glyph glyph-name="s" unicode="s" horiz-adv-x="598" 
d="M30 387c0 105.333 84.667 157.998 254 157.998c178.667 0 268 -46.667 268 -140c0 -8.66699 -2.83301 -15.834 -8.5 -21.501s-12.834 -8.5 -21.501 -8.5h-73c-23.333 0 -42 8.66699 -56 26c-18 22 -50.333 33 -97 33c-64.667 0 -97 -15.667 -97 -47
c0 -14.667 12.667 -26.834 38 -36.501s56.166 -18.167 92.499 -25.5s72.5 -16.666 108.5 -27.999s66.667 -29.5 92 -54.5s38 -56.5 38 -94.5c0 -105.333 -89.667 -158 -269 -158c-178.667 0 -268 46.667 -268 140c0 8.66699 2.83301 15.834 8.5 21.501
s12.834 8.5 21.501 8.5h73c23.333 0 42 -8.66699 56 -26c18 -22 50.333 -33 97 -33c74.667 0 112 15.667 112 47c0 14.667 -12.667 26.834 -38 36.501s-56.166 18.334 -92.499 26.001s-72.5 17.167 -108.5 28.5s-66.667 29.5 -92 54.5s-38 56.167 -38 93.5z" />
    <glyph glyph-name="t" unicode="t" horiz-adv-x="450" 
d="M60 210l-0.00488281 460.003c0 8.66699 2.83301 15.834 8.5 21.501s12.834 8.5 21.501 8.5h109c8.66699 0 15.834 -2.83301 21.501 -8.5s8.5 -12.834 8.5 -21.501v-163h136c8.66699 0 15.834 -2.83301 21.501 -8.5s8.5 -12.834 8.5 -21.501v-58
c0 -8.66699 -2.83301 -15.834 -8.5 -21.501s-12.834 -8.5 -21.501 -8.5h-136v-179c0 -33.333 7.83301 -59 23.5 -77s36.5 -27 62.5 -27c8.66699 0 20.334 1 35.001 3s25.334 3 32.001 3h18c8.66699 0 15.834 -2.83301 21.501 -8.5s8.5 -12.834 8.5 -21.501v-52
c0 -7.33301 -2.83301 -13.833 -8.5 -19.5s-12.834 -9.16699 -21.501 -10.5c-33.333 -6.66699 -76.666 -10 -129.999 -10c-140 0 -210 73.333 -210 220z" />
    <glyph glyph-name="u" unicode="u" 
d="M60 225l-0.00195312 280c0 8.66699 2.83301 15.834 8.5 21.501s12.834 8.5 21.501 8.5h109c8.66699 0 15.834 -2.83301 21.501 -8.5s8.5 -12.834 8.5 -21.501v-280c0 -78 31 -117 93 -117c40.667 0 84.334 23.333 131.001 70v327c0 8.66699 2.83301 15.834 8.5 21.501
s12.834 8.5 21.501 8.5h109c8.66699 0 15.834 -2.83301 21.501 -8.5s8.5 -12.834 8.5 -21.501v-475c0 -8.66699 -2.83301 -15.834 -8.5 -21.501s-12.834 -8.5 -21.501 -8.5h-109c-8.66699 0 -15.834 2.83301 -21.501 8.5s-8.5 12.834 -8.5 21.501v31
c-56 -47.333 -113 -71 -171 -71c-68.667 0 -122.834 19.333 -162.501 58s-59.5 97.667 -59.5 177z" />
    <glyph glyph-name="v" unicode="v" horiz-adv-x="656" 
d="M13 522c3.33301 8.66699 10.667 13.001 22 13.001h94c14 0 27.167 -4 39.5 -12s21.166 -18.333 26.499 -31l133 -304l133 304c5.33301 12.667 14.166 23 26.499 31s25.5 12 39.5 12h94c11.333 0 19 -4.33301 23 -13c1.33301 -2.66699 2 -6.33398 2 -11.001
c0 -6 -1.66699 -12.333 -5 -19l-211 -449c-6 -12.667 -15.167 -23 -27.5 -31s-25.166 -12 -38.499 -12h-72c-13.333 0 -26.166 4 -38.499 12s-21.5 18.333 -27.5 31l-211 449c-3.33301 7.33301 -5 13.666 -5 18.999c0 4.66699 1 8.33398 3 11.001z" />
    <glyph glyph-name="w" unicode="w" horiz-adv-x="898" 
d="M14 492c-2.66699 8.66699 -4 15.667 -4 21c0 14.667 8 22 24 22h91c15.333 0 29 -3.83301 41 -11.5s20.333 -18.167 25 -31.5l80 -263l79 263c8.66699 28.667 27.334 43 56.001 43h86c28.667 0 47.334 -14.333 56.001 -43l79 -263l80 263
c4.66699 13.333 13 23.833 25 31.5s25.667 11.5 41 11.5h91c16 0 24 -7.33301 24 -22c0 -6 -1.33301 -13 -4 -21l-148 -449c-4.66699 -13.333 -12.834 -23.833 -24.501 -31.5s-24.167 -11.5 -37.5 -11.5h-69c-13.333 0 -26 4 -38 12s-20 18.333 -24 31l-94 291l-94 -291
c-4 -12.667 -12 -23 -24 -31s-24.667 -12 -38 -12h-69c-13.333 -0 -25.833 3.83301 -37.5 11.5s-19.834 18.167 -24.501 31.5z" />
    <glyph glyph-name="x" unicode="x" horiz-adv-x="624" 
d="M17 15c-1.33301 3.33301 -1.99805 6.00098 -1.99805 8.00098c0 7.33301 2.66699 14 8 20l170 225l-159 224c-4.66699 6.66699 -7.16699 13.167 -7.5 19.5s1.5 11.833 5.5 16.5s9.66699 7 17 7h106c31.333 0 56.666 -14.333 75.999 -43l81 -123l81 123
c19.333 28.667 44.666 43 75.999 43h106c7.33301 0 13 -2.33301 17 -7s5.83301 -10.167 5.5 -16.5s-2.83301 -12.833 -7.5 -19.5l-159 -224l170 -225c5.33301 -6 8 -12.667 8 -20c0 -2.66699 -0.666992 -5.33398 -2 -8.00098c-2.66699 -10 -9.66699 -15 -21 -15h-104
c-30 -0 -55.333 14.333 -76 43l-94 127l-94 -127c-20.667 -28.667 -46 -43 -76 -43h-104c-11.333 0 -18.333 5 -21 15z" />
    <glyph glyph-name="y" unicode="y" horiz-adv-x="632" 
d="M17 506c-0.666992 2.66699 -1.00098 5.00195 -1.00098 7.00195c0 4.66699 1.66699 9 5 13c4.66699 6 11 9 19 9h102c9.33301 0 18.333 -3.16699 27 -9.5s14.334 -14.166 17.001 -23.499l64 -207c16 -50.667 32.167 -85.834 48.5 -105.501s35.833 -29.5 58.5 -29.5l97 342
c2.66699 9.33301 7.83398 17.166 15.501 23.499s16.167 9.5 25.5 9.5h103c8 0 14.333 -3 19 -9c3.33301 -4 5 -8.66699 5 -14c0 -2 -0.333008 -4 -1 -6l-128 -456c-22.667 -80.667 -50.834 -138.334 -84.501 -173.001s-78.834 -52 -135.501 -52
c-49.333 0 -91.666 3.33301 -126.999 10c-8.66699 1.33301 -15.834 4.83301 -21.501 10.5s-8.5 12.167 -8.5 19.5v54c0 8.66699 2.83301 15.834 8.5 21.501s12.834 8.5 21.501 8.5h18c7.33301 0 17.833 -1.33301 31.5 -4s24.5 -4 32.5 -4c46 0 78 33.667 96 101
c-55.333 0 -101.5 16.667 -138.5 50s-68.833 92.666 -95.5 177.999z" />
    <glyph glyph-name="z" unicode="z" horiz-adv-x="559" 
d="M25 447v58c0 8.66699 2.83301 15.834 8.5 21.501s12.834 8.5 21.501 8.5h445c8.66699 0 15.834 -2.83301 21.501 -8.5s8.5 -12.834 8.5 -21.501v-47c0 -24 -11.667 -47.667 -35 -71l-266 -269h275c8.66699 0 15.834 -2.83301 21.501 -8.5s8.5 -12.834 8.5 -21.501v-58
c0 -8.66699 -2.83301 -15.834 -8.5 -21.501s-12.834 -8.5 -21.501 -8.5h-449c-8.66699 0 -15.834 2.83301 -21.501 8.5s-8.5 12.834 -8.5 21.501v47c0 24 11.667 47.667 35 71l257 269h-262c-8.66699 0 -15.834 2.83301 -21.501 8.5s-8.5 12.834 -8.5 21.501z" />
    <glyph glyph-name="braceleft" unicode="{" horiz-adv-x="411" 
d="M10 276v58c0 8.66699 2.83301 15.834 8.5 21.501s12.834 8.5 21.501 8.5h20c15.333 0 28.5 5.83301 39.5 17.5s16.5 26.167 16.5 43.5v121c0 66.667 19 115.667 57 147s88 47 150 47h48c8.66699 0 15.834 -2.83301 21.501 -8.5s8.5 -12.834 8.5 -21.501v-53
c0 -8.66699 -2.83301 -15.834 -8.5 -21.501s-12.834 -8.5 -21.501 -8.5h-20c-21.333 0 -39.666 -8.33301 -54.999 -25s-23 -39 -23 -67v-95c0 -37.333 -10.167 -67.666 -30.5 -90.999s-46.833 -38 -79.5 -44c32.667 -6 59.167 -20.667 79.5 -44s30.5 -53.666 30.5 -90.999
v-95c0 -28 7.66699 -50.333 23 -67s33.666 -25 54.999 -25h20c8.66699 0 15.834 -2.83301 21.501 -8.5s8.5 -12.834 8.5 -21.501v-53c0 -8.66699 -2.83301 -15.834 -8.5 -21.501s-12.834 -8.5 -21.501 -8.5h-48c-62 0 -112 15.667 -150 47s-57 80.333 -57 147v121
c0 17.333 -5.5 31.833 -16.5 43.5s-24.167 17.5 -39.5 17.5h-20c-8.66699 0 -15.834 2.83301 -21.501 8.5s-8.5 12.834 -8.5 21.501z" />
    <glyph glyph-name="bar" unicode="|" horiz-adv-x="309" 
d="M70 -135v805c0 8.66699 2.83301 15.834 8.5 21.501s12.834 8.5 21.501 8.5h109c8.66699 0 15.834 -2.83301 21.501 -8.5s8.5 -12.834 8.5 -21.501v-805c0 -8.66699 -2.83301 -15.834 -8.5 -21.501s-12.834 -8.5 -21.501 -8.5h-109
c-8.66699 0 -15.834 2.83301 -21.501 8.5s-8.5 12.834 -8.5 21.501z" />
    <glyph glyph-name="braceright" unicode="}" horiz-adv-x="411" 
d="M10 -47c0 8.66699 2.83301 15.834 8.5 21.501s12.834 8.5 21.501 8.5h20c21.333 0 39.666 8.33301 54.999 25s23 39 23 67v95c0 37.333 10.167 67.666 30.5 90.999s46.833 38 79.5 44c-32.667 6 -59.167 20.667 -79.5 44s-30.5 53.666 -30.5 90.999v95
c0 28 -7.66699 50.333 -23 67s-33.666 25 -54.999 25h-20c-8.66699 0 -15.834 2.83301 -21.501 8.5s-8.5 12.834 -8.5 21.501v53c0 8.66699 2.83301 15.834 8.5 21.501s12.834 8.5 21.501 8.5h48c62 0 112 -15.667 150 -47s57 -80.333 57 -147v-121
c0 -17.333 5.5 -31.833 16.5 -43.5s24.167 -17.5 39.5 -17.5h20c8.66699 0 15.834 -2.83301 21.501 -8.5s8.5 -12.834 8.5 -21.501v-58c0 -8.66699 -2.83301 -15.834 -8.5 -21.501s-12.834 -8.5 -21.501 -8.5h-20c-15.333 0 -28.5 -5.83301 -39.5 -17.5
s-16.5 -26.167 -16.5 -43.5v-121c0 -66.667 -19 -115.667 -57 -147s-88 -47 -150 -47h-48c-8.66699 0 -15.834 2.83301 -21.501 8.5s-8.5 12.834 -8.5 21.501v53z" />
    <glyph glyph-name="asciitilde" unicode="~" horiz-adv-x="594" 
d="M30 271c0 44 13 78.167 39 102.5s61.667 36.5 107 36.5c39.333 0 78.166 -8.33301 116.499 -25s69.5 -25 93.5 -25c24.667 0 44.334 6.16699 59.001 18.5s30 18.5 46 18.5h48c7.33301 0 13.333 -2.5 18 -7.5s7 -10.833 7 -17.5c0 -44 -13 -78.167 -39 -102.5
s-61.667 -36.5 -107 -36.5c-39.333 0 -78.166 8.33301 -116.499 25s-69.5 25 -93.5 25c-24.667 0 -44.334 -6.16699 -59.001 -18.5s-30 -18.5 -46 -18.5h-48c-7.33301 0 -13.333 2.33301 -18 7s-7 10.667 -7 18z" />
    <glyph glyph-name="uni00A0" unicode="&#xa0;" horiz-adv-x="350" 
 />
    <glyph glyph-name="exclamdown" unicode="&#xa1;" horiz-adv-x="319" 
d="M61 -119l13.9941 401c0.666992 12.667 5.33398 23.334 14.001 32.001s19.334 13 32.001 13h77c12.667 0 23.334 -4.33301 32.001 -13s13.334 -19.334 14.001 -32.001l14 -401c0.666992 -12.667 -3.66602 -23.5 -12.999 -32.5s-20.333 -13.5 -33 -13.5h-105
c-12.667 0 -23.667 4.5 -33 13.5s-13.666 19.833 -12.999 32.5zM63.9941 443v31c0 21.333 5.66699 37.666 17 48.999s27.666 17 48.999 17h60c21.333 0 37.666 -5.66699 48.999 -17s17 -27.666 17 -48.999v-31c0 -20.667 -5.66699 -36.834 -17 -48.501
s-27.666 -17.5 -48.999 -17.5h-60c-21.333 0 -37.666 5.83301 -48.999 17.5s-17 27.834 -17 48.501z" />
    <glyph glyph-name="cent" unicode="&#xa2;" horiz-adv-x="621" 
d="M30 267c0 74.667 17.167 134.835 51.5 180.502s83.833 75.167 148.5 88.5v44c0 8.66699 2.83301 15.834 8.5 21.501s12.834 8.5 21.501 8.5h109c8.66699 0 15.834 -2.83301 21.501 -8.5s8.5 -12.834 8.5 -21.501v-40c63.333 -7.33301 112 -25 146 -53s51 -65.333 51 -112
c0 -8.66699 -2.83301 -15.834 -8.5 -21.501s-12.834 -8.5 -21.501 -8.5h-73c-22 0 -40.667 12 -56 36c-19.333 30.667 -54.333 46 -105 46c-46.667 0 -79.667 -12.5 -99 -37.5s-29 -65.833 -29 -122.5c0 -56 10 -96.5 30 -121.5s54.333 -37.5 103 -37.5
c50.667 0 85.667 15.333 105 46c15.333 24 34 36 56 36h73c8.66699 0 15.834 -2.83301 21.501 -8.5s8.5 -12.834 8.5 -21.501c0 -48 -17.5 -85.833 -52.5 -113.5s-84.833 -45.167 -149.5 -52.5v-39c0 -8.66699 -2.83301 -15.834 -8.5 -21.501s-12.834 -8.5 -21.501 -8.5
h-109c-8.66699 0 -15.834 2.83301 -21.501 8.5s-8.5 12.834 -8.5 21.501v44c-133.333 28.667 -200 118 -200 268z" />
    <glyph glyph-name="sterling" unicode="&#xa3;" horiz-adv-x="640" 
d="M10 30l0.00292969 56.001c0 8.66699 2.83301 15.834 8.5 21.501s12.834 8.5 21.501 8.5h15c18 0 33.333 9 46 27s19 47 19 87v230c0 90.667 20.667 155 62 193s114 57 218 57c53.333 0 96.666 -3.33301 129.999 -10c8.66699 -1.33301 15.834 -4.83301 21.501 -10.5
s8.5 -12.167 8.5 -19.5v-54c0 -8.66699 -2.83301 -15.834 -8.5 -21.501s-12.834 -8.5 -21.501 -8.5h-18c-6.66699 0 -17.334 1.33301 -32.001 4s-26.334 4 -35.001 4c-64.667 0 -106.834 -8.66699 -126.501 -26s-29.5 -53.333 -29.5 -108v-28h147
c8.66699 0 15.834 -2.83301 21.501 -8.5s8.5 -12.834 8.5 -21.501v-58c0 -8.66699 -2.83301 -15.834 -8.5 -21.501s-12.834 -8.5 -21.501 -8.5h-147v-74c0 -19.333 -2.5 -38.166 -7.5 -56.499s-9.83301 -31.833 -14.5 -40.5l-7 -13h324c12.667 0 23.5 -4.5 32.5 -13.5
s13.5 -19.833 13.5 -32.5v-38c0 -12.667 -4.5 -23.5 -13.5 -32.5s-19.833 -13.5 -32.5 -13.5h-544c-20 4.66699 -30 14.667 -30 30z" />
    <glyph glyph-name="currency" unicode="&#xa4;" horiz-adv-x="822" 
d="M10 288l0.00195312 16.999h593c19.333 -7.33301 38 -21.5 56 -42.5s38.333 -49.5 61 -85.5l83 -131c6 -9.33301 9 -17.666 9 -24.999c0 -2.66699 -0.666992 -5.33398 -2 -8.00098c-3.33301 -8.66699 -11.333 -13 -24 -13h-117c-12.667 0 -26.334 4.5 -41.001 13.5
s-26 19.833 -34 32.5l-83 130c-34 53.333 -75.333 80 -124 80h-119v-210c0 -12.667 -4.5 -23.5 -13.5 -32.5s-19.833 -13.5 -32.5 -13.5h-92c-12.667 0 -23.5 4.5 -32.5 13.5s-13.5 19.833 -13.5 32.5v212h-44c-8.66699 0 -15.834 2.83301 -21.501 8.5
s-8.5 12.834 -8.5 21.501zM10.002 327.999l-0.00195312 17c0 8.66699 2.83301 15.834 8.5 21.501s12.834 8.5 21.501 8.5h44v279c0 12.667 4.33301 23.5 13 32.5s19.334 13.5 32.001 13.5h403c74 0 135 -18.5 183 -55.5s72 -85.833 72 -146.5
c0 -48.667 -16.833 -86.834 -50.5 -114.501s-78.167 -46.167 -133.5 -55.5h-593zM268 393.999l208 0.00195312c33.333 0 62.833 6.66699 88.5 20s38.5 34.666 38.5 63.999s-12.833 50.666 -38.5 63.999s-55.167 20 -88.5 20h-208v-168z" />
    <glyph glyph-name="yen" unicode="&#xa5;" horiz-adv-x="742" 
d="M11 686c3.33301 9.33301 11.333 14 24 14h93c36.667 0 65 -15.333 85 -46l158 -244l158 244c20 30.667 48.333 46 85 46h93c12.667 0 20.667 -4.66699 24 -14c0.666992 -3.33301 1 -6.33301 1 -9c0 -7.33301 -2.66699 -15 -8 -23l-210 -324h62
c8.66699 0 15.834 -2.83301 21.501 -8.5s8.5 -12.834 8.5 -21.501v-23h-126l-17 -27h143v-23c0 -8.66699 -2.83301 -15.834 -8.5 -21.501s-12.834 -8.5 -21.501 -8.5h-113v-152c0 -12.667 -4.5 -23.334 -13.5 -32.001s-19.833 -13 -32.5 -13h-92
c-12.667 0 -23.5 4.33301 -32.5 13s-13.5 19.334 -13.5 32.001v152h-113c-8.66699 0 -15.834 2.83301 -21.501 8.5s-8.5 12.834 -8.5 21.501v23h143l-18 27h-125v23c0 8.66699 2.83301 15.834 8.5 21.501s12.834 8.5 21.501 8.5h61l-209 324c-5.33301 8 -8 15.667 -8 23
c0 2.66699 0.333008 5.66699 1 9z" />
    <glyph glyph-name="brokenbar" unicode="&#xa6;" horiz-adv-x="289" 
d="M60 -135v340c0 8.66699 2.83301 15.834 8.5 21.501s12.834 8.5 21.501 8.5h109c8.66699 0 15.834 -2.83301 21.501 -8.5s8.5 -12.834 8.5 -21.501v-340c0 -8.66699 -2.83301 -15.834 -8.5 -21.501s-12.834 -8.5 -21.501 -8.5h-109
c-8.66699 0 -15.834 2.83301 -21.501 8.5s-8.5 12.834 -8.5 21.501zM60 330v340c0 8.66699 2.83301 15.834 8.5 21.501s12.834 8.5 21.501 8.5h109c8.66699 0 15.834 -2.83301 21.501 -8.5s8.5 -12.834 8.5 -21.501v-340c0 -8.66699 -2.83301 -15.834 -8.5 -21.501
s-12.834 -8.5 -21.501 -8.5h-109c-8.66699 0 -15.834 2.83301 -21.501 8.5s-8.5 12.834 -8.5 21.501z" />
    <glyph glyph-name="section" unicode="&#xa7;" horiz-adv-x="628" 
d="M40 287c0 54.667 19.667 97.668 59 129.001c-32.667 30.667 -49 67.667 -49 111c0 122 88 183 264 183c175.333 0 263 -46.667 263 -140c0 -8.66699 -2.83301 -15.834 -8.5 -21.501s-12.834 -8.5 -21.501 -8.5h-73c-23.333 0 -42 8.66699 -56 26
c-18 22 -48.667 33 -92 33c-39.333 0 -67 -5.16699 -83 -15.5s-24 -27.5 -24 -51.5c0 -17.333 9.16699 -32.166 27.5 -44.499s41.166 -21.833 68.499 -28.5s56.833 -15.334 88.5 -26.001s61.167 -22.5 88.5 -35.5s50.166 -32.333 68.499 -58s27.5 -56.167 27.5 -91.5
c0 -54.667 -19.667 -98 -59 -130c32.667 -30.667 49 -67.334 49 -110.001c0 -122 -88 -183 -264 -183c-175.333 0 -263 46.667 -263 140c0 8.66699 2.83301 15.834 8.5 21.501s12.834 8.5 21.501 8.5h73c23.333 0 42 -8.66699 56 -26c18 -22 48.667 -33 92 -33
c39.333 0 67 5.16699 83 15.5s24 27.5 24 51.5c0 17.333 -9.16699 32.166 -27.5 44.499s-41.166 21.833 -68.499 28.5s-56.833 15.334 -88.5 26.001s-61.167 22.5 -88.5 35.5s-50.166 32.333 -68.499 58s-27.5 56.167 -27.5 91.5zM209 287.001
c0 -9.33301 2.83105 -17.6699 8.49805 -25.0029s15.834 -14.5 30.501 -21.5s27.334 -12.5 38.001 -16.5s28 -9.66699 52 -17l53 -17c18.667 10 28 29.333 28 58c0 6.66699 -1.66699 12.834 -5 18.501s-8.5 11 -15.5 16s-14.333 9.5 -22 13.5s-17.667 8.33301 -30 13
s-23.5 8.33398 -33.5 11.001l-39 13l-38 12c-18 -11.333 -27 -30.666 -27 -57.999z" />
    <glyph glyph-name="dieresis" unicode="&#xa8;" horiz-adv-x="404" 
d="M0 635v19c0 17.333 5 31 15 41s23.667 15 41 15h47c17.333 0 31 -5 41 -15s15 -23.667 15 -41v-19c0 -17.333 -5 -31 -15 -41s-23.667 -15 -41 -15h-47c-17.333 0 -31 5 -41 15s-15 23.667 -15 41zM245 635v19c0 17.333 5 31 15 41s23.667 15 41 15h47
c17.333 0 31 -5 41 -15s15 -23.667 15 -41v-19c0 -17.333 -5 -31 -15 -41s-23.667 -15 -41 -15h-47c-17.333 0 -31 5 -41 15s-15 23.667 -15 41z" />
    <glyph glyph-name="copyright" unicode="&#xa9;" horiz-adv-x="850" 
d="M136 34c-70.667 68.667 -106.001 164 -106.001 286s35.5 217.5 106.5 286.5s167.167 103.5 288.5 103.5s217.5 -34.5 288.5 -103.5s106.5 -164.5 106.5 -286.5s-35.5 -217.5 -106.5 -286.5s-167.167 -103.5 -288.5 -103.5s-217.666 34.667 -288.999 104zM222.999 528
c-47.333 -51.333 -71.001 -120.666 -71.001 -207.999s23.833 -156.666 71.5 -207.999s114.834 -77 201.501 -77s153.834 25.667 201.501 77s71.5 120.666 71.5 207.999s-23.833 156.666 -71.5 207.999s-114.834 77 -201.501 77s-154 -25.667 -202 -77zM234.998 319
c0 59.333 16.332 104.334 48.999 135.001s79 46 139 46c56.667 0 100.667 -9.33301 132 -28s47 -46.334 47 -83.001c0 -5.33301 -2 -9.83301 -6 -13.5s-8.66699 -5.5 -14 -5.5h-47c-14 0 -26 7.66699 -36 23c-12 20 -34.667 30 -68 30
c-30.667 0 -52.167 -8.16699 -64.5 -24.5s-18.5 -42.833 -18.5 -79.5s6.33301 -63 19 -79s35 -24 67 -24c32.667 0 55.334 10 68.001 30c9.33301 16 21.333 24 36 24h48c5.33301 0 9.83301 -2 13.5 -6s5.5 -8.66699 5.5 -14c0 -36.667 -15.5 -64.167 -46.5 -82.5
s-75.167 -27.5 -132.5 -27.5c-62 0 -109.333 15.167 -142 45.5s-49 74.833 -49 133.5z" />
    <glyph glyph-name="ordfeminine" unicode="&#xaa;" horiz-adv-x="357" 
d="M20 484c0 62.667 43.332 93.9961 129.999 93.9961h95v8c0 13.333 -4 24.166 -12 32.499s-19 12.5 -33 12.5h-29c-21.333 0 -38.333 -5.66699 -51 -17c-1.33301 -1.33301 -3.83301 -3.66602 -7.5 -6.99902s-6.5 -5.66602 -8.5 -6.99902s-4.66699 -2.66602 -8 -3.99902
s-7 -2 -11 -2h-30c-4.66699 0 -9.5 1.83301 -14.5 5.5s-7.5 9.83398 -7.5 18.501c0 22.667 14.333 42.334 43 59.001s59 25 91 25h30c44.667 0 79.167 -10.833 103.5 -32.5s36.5 -49.167 36.5 -82.5v-176c0 -5.33301 -2 -10 -6 -14s-9 -6 -15 -6h-51
c-5.33301 0 -10 1.83301 -14 5.5s-6 8.5 -6 14.5v14c-24.667 -23.333 -54.667 -35 -90 -35h-15c-33.333 0 -61.666 7.16699 -84.999 21.5s-35 38.5 -35 72.5zM146.999 455.996h23c32 0 57 9.66699 75 29v27h-98c-20.667 0 -31 -9.33301 -31 -28s10.333 -28 31 -28z" />
    <glyph glyph-name="guillemotleft" unicode="&#xab;" horiz-adv-x="498" 
d="M20 262v24c0 13.333 6.33301 28.333 19 45l100 128c11.333 14.667 24.666 22 39.999 22h60c10 0 16 -3.83301 18 -11.5s-0.666992 -17.167 -8 -28.5l-102 -167l102 -167c7.33301 -11.333 10 -20.833 8 -28.5s-8 -11.5 -18 -11.5h-60
c-15.333 0 -28.666 7.33301 -39.999 22l-100 128c-12.667 16.667 -19 31.667 -19 45zM240 262v23.999c0 13.333 6.33301 28.333 19 45l100 128c11.333 14.667 24.666 22 39.999 22h60c10 0 16 -3.66699 18 -11c0.666992 -2 1 -4 1 -6c0 -6 -3 -13.667 -9 -23l-102 -167
l102 -167c6 -8.66699 9 -16.667 9 -24c0 -1.33301 -0.333008 -2.66602 -1 -3.99902c-2 -8 -8 -12 -18 -12h-60c-15.333 0 -28.666 7.33301 -39.999 22l-100 128c-12.667 16.667 -19 31.667 -19 45z" />
    <glyph glyph-name="logicalnot" unicode="&#xac;" horiz-adv-x="565" 
d="M20 388v26.001c0 12.667 4.5 23.5 13.5 32.5s19.833 13.5 32.5 13.5h433c12.667 0 23.5 -4.33301 32.5 -13s13.5 -19.334 13.5 -32.001v-170c0 -13.333 -4.5 -24.5 -13.5 -33.5s-19.833 -13.5 -32.5 -13.5h-42c-12.667 0 -23.5 4.5 -32.5 13.5s-13.5 20.167 -13.5 33.5
v97h-345c-12.667 0 -23.5 4.5 -32.5 13.5s-13.5 19.833 -13.5 32.5z" />
    <glyph glyph-name="uni00AD" unicode="&#xad;" horiz-adv-x="468" 
d="M20 278v58c0 8.66699 2.83301 15.834 8.5 21.501s12.834 8.5 21.501 8.5h368c8.66699 0 15.834 -2.83301 21.501 -8.5s8.5 -12.834 8.5 -21.501v-58c0 -8.66699 -2.83301 -15.834 -8.5 -21.501s-12.834 -8.5 -21.501 -8.5h-368c-8.66699 0 -15.834 2.83301 -21.501 8.5
s-8.5 12.834 -8.5 21.501z" />
    <glyph glyph-name="registered" unicode="&#xae;" horiz-adv-x="850" 
d="M136 34c-70.667 68.667 -106.001 164 -106.001 286s35.5 217.5 106.5 286.5s167.167 103.5 288.5 103.5s217.5 -34.5 288.5 -103.5s106.5 -164.5 106.5 -286.5s-35.5 -217.5 -106.5 -286.5s-167.167 -103.5 -288.5 -103.5s-217.666 34.667 -288.999 104zM222.999 528
c-47.333 -51.333 -71.001 -120.666 -71.001 -207.999s23.833 -156.666 71.5 -207.999s114.834 -77 201.501 -77s153.834 25.667 201.501 77s71.5 120.666 71.5 207.999s-23.833 156.666 -71.5 207.999s-114.834 77 -201.501 77s-154 -25.667 -202 -77zM250.998 164
l0.00195312 314.001c0 6.66699 2.33301 12.167 7 16.5s10.334 6.5 17.001 6.5h211c38.667 0 70.5 -10.333 95.5 -31s37.5 -48.334 37.5 -83.001c0 -49.333 -32 -80 -96 -92c17.333 -6.66699 36.666 -26 57.999 -58l47 -73c3.33301 -6 5 -11 5 -15c0 -6 -4.66699 -9 -14 -9
h-61c-16.667 0 -30 8 -40 24l-43 67c-18 27.333 -39.667 41 -65 41h-63v-108c0 -6.66699 -2.33301 -12.334 -7 -17.001s-10.334 -7 -17.001 -7h-48c-6.66699 0 -12.334 2.33301 -17.001 7s-7 10.334 -7 17.001zM347 343.001h109c18 0 33.667 3.5 47 10.5s20 18.167 20 33.5
s-6.66699 26.333 -20 33s-29 10 -47 10h-109v-87z" />
    <glyph glyph-name="degree" unicode="&#xb0;" horiz-adv-x="400" 
d="M78 430c-32 28.667 -47.999 68 -47.999 118s16.167 89.5 48.5 118.5s72.833 43.5 121.5 43.5s89.167 -14.5 121.5 -43.5s48.5 -68.5 48.5 -118.5s-16.167 -89.5 -48.5 -118.5s-72.833 -43.5 -121.5 -43.5s-89.334 14.667 -122.001 44zM152.001 607
c-12 -14 -18 -33.666 -18 -58.999s6 -45.166 18 -59.499s28 -21.5 48 -21.5s36 7.16699 48 21.5s18 34.166 18 59.499s-6 45.166 -18 59.499s-28 21.5 -48 21.5s-36 -7.33301 -48 -22z" />
    <glyph glyph-name="plusminus" unicode="&#xb1;" horiz-adv-x="468" 
d="M20 321l-0.00195312 58c0 8.66699 2.83301 15.834 8.5 21.501s12.834 8.5 21.501 8.5h122v122c0 8.66699 2.83301 15.834 8.5 21.501s12.834 8.5 21.501 8.5h58c8.66699 0 15.834 -2.83301 21.501 -8.5s8.5 -12.834 8.5 -21.501v-122h128
c8.66699 0 15.834 -2.83301 21.501 -8.5s8.5 -12.834 8.5 -21.501v-58c0 -8.66699 -2.83301 -15.834 -8.5 -21.501s-12.834 -8.5 -21.501 -8.5h-128v-89h128c8.66699 0 15.834 -2.83301 21.501 -8.5s8.5 -12.834 8.5 -21.501v-58c0 -8.66699 -2.83301 -15.834 -8.5 -21.501
s-12.834 -8.5 -21.501 -8.5h-368c-8.66699 0 -15.834 2.83301 -21.501 8.5s-8.5 12.834 -8.5 21.501v58c0 8.66699 2.83301 15.834 8.5 21.501s12.834 8.5 21.501 8.5h122v89h-122c-8.66699 0 -15.834 2.83301 -21.501 8.5s-8.5 12.834 -8.5 21.501z" />
    <glyph glyph-name="uni00B2" unicode="&#xb2;" horiz-adv-x="344" 
d="M20 411l0.000976562 31.001c0 21.333 5.16699 39.666 15.5 54.999s23.5 26.833 39.5 34.5s33 14.5 51 20.5s35 10.667 51 14s29.167 7.83301 39.5 13.5s15.5 12.167 15.5 19.5c0 21.333 -18 32 -54 32h-16c-28 0 -46.333 -9 -55 -27
c-6.66699 -13.333 -16.334 -20 -29.001 -20h-36c-4.66699 0 -9.5 1.83301 -14.5 5.5s-7.5 9.83398 -7.5 18.501c0 28.667 14 51.5 42 68.5s59 25.5 93 25.5h29c93.333 0 140 -34.333 140 -103c0 -26 -10.5 -46.833 -31.5 -62.5s-44.333 -25.834 -70 -30.501
s-49 -10.5 -70 -17.5s-31.5 -15.833 -31.5 -26.5h179c6 0 11 -2 15 -6s6 -9 6 -15v-30c0 -5.33301 -2 -10 -6 -14s-9 -6 -15 -6h-259c-6 0 -11 2 -15 6s-6 8.66699 -6 14z" />
    <glyph glyph-name="uni00B3" unicode="&#xb3;" horiz-adv-x="350" 
d="M20 478c0 8.66699 2.5 14.834 7.5 18.501s9.83301 5.5 14.5 5.5h30c4 0 7.83301 -1 11.5 -3s6.33398 -3.66699 8.00098 -5s4.5 -4.33301 8.5 -9s6.33301 -7.33398 7 -8.00098c10 -11.333 27 -17 51 -17h35c30.667 0 46 7.66699 46 23c0 12 -4 19.667 -12 23
s-21.333 5 -40 5h-39c-5.33301 0 -10 2 -14 6s-6 9 -6 15v26c0 5.33301 2 10.166 6 14.499s8.66699 6.5 14 6.5h41c30 0 45 9 45 27c0 16.667 -15 25 -45 25h-29c-24 0 -41 -5.66699 -51 -17c-1.33301 -1.33301 -3.33301 -3.5 -6 -6.5s-4.66699 -5.33301 -6 -7
s-3.33301 -3.5 -6 -5.5s-5.33398 -3.5 -8.00098 -4.5s-5.66699 -1.5 -9 -1.5h-30c-4.66699 0 -9.5 1.83301 -14.5 5.5s-7.5 9.83398 -7.5 18.501c0 24.667 14.333 45.667 43 63s59 26 91 26h30c93.333 0 140 -31.667 140 -95c0 -26 -12 -46.667 -36 -62
c26.667 -13.333 40 -34 40 -62c0 -62.667 -46.667 -94 -140 -94h-36c-32 0 -62.333 8.66699 -91 26s-43 38.333 -43 63z" />
    <glyph glyph-name="acute" unicode="&#xb4;" horiz-adv-x="182" 
d="M4 811l24 92c12.667 37.333 34 56 64 56h44c21.333 0 35.333 -7 42 -21c2.66699 -4.66699 4 -10 4 -16c0 -9.33301 -3.33301 -19 -10 -29l-53 -92c-18 -30.667 -38 -46 -60 -46h-23c-24 0 -36 10.667 -36 32c-0 6.66699 1.33301 14.667 4 24z" />
    <glyph glyph-name="uni00B5" unicode="&#xb5;" 
d="M60 -135l0.000976562 640c0 8.66699 2.83301 15.834 8.5 21.501s12.834 8.5 21.501 8.5h109c8.66699 0 15.834 -2.83301 21.501 -8.5s8.5 -12.834 8.5 -21.501v-265c0 -42 9.66699 -74.5 29 -97.5s42.333 -34.5 69 -34.5c48 0 90 30 126 90v307
c0 8.66699 2.83301 15.834 8.5 21.501s12.834 8.5 21.501 8.5h109c8.66699 0 15.834 -2.83301 21.501 -8.5s8.5 -12.834 8.5 -21.501v-475c0 -8.66699 -2.83301 -15.834 -8.5 -21.501s-12.834 -8.5 -21.501 -8.5h-109c-8.66699 0 -15.834 2.83301 -21.501 8.5
s-8.5 12.834 -8.5 21.501v31c-22 -26 -41.833 -44.333 -59.5 -55s-38.834 -16 -63.501 -16c-43.333 0 -77 11.667 -101 35v-160c0 -8.66699 -2.83301 -15.834 -8.5 -21.501s-12.834 -8.5 -21.501 -8.5h-109c-8.66699 0 -15.834 2.83301 -21.501 8.5s-8.5 12.834 -8.5 21.501
z" />
    <glyph glyph-name="paragraph" unicode="&#xb6;" horiz-adv-x="702" 
d="M240 700l412 0.000976562c8.66699 0 15.834 -2.83301 21.501 -8.5s8.5 -12.834 8.5 -21.501v-51c0 -8.66699 -2.83301 -15.834 -8.5 -21.501s-12.834 -8.5 -21.501 -8.5h-44v-708c0 -12.667 -4.66699 -23.5 -14 -32.5s-20.333 -13.5 -33 -13.5h-112v754h-50v-754h-113
c-12.667 0 -23.5 4.5 -32.5 13.5s-13.5 19.833 -13.5 32.5v457c-60 0 -110 16.167 -150 48.5s-60 76.833 -60 133.5s20 100.834 60 132.501s90 47.5 150 47.5z" />
    <glyph glyph-name="periodcentered" unicode="&#xb7;" horiz-adv-x="392" 
d="M100 291v31c0 21.333 5.66699 37.666 17 48.999s27.666 17 48.999 17h60c21.333 0 37.666 -5.66699 48.999 -17s17 -27.666 17 -48.999v-31c0 -20.667 -5.66699 -36.834 -17 -48.501s-27.666 -17.5 -48.999 -17.5h-60c-21.333 0 -37.666 5.83301 -48.999 17.5
s-17 27.834 -17 48.501z" />
    <glyph glyph-name="cedilla" unicode="&#xb8;" horiz-adv-x="383" 
d="M20 491c0 12 4.66602 23.333 13.999 34l152 162c8.66699 8.66699 20 13 34 13h78c5.33301 0 10 -2 14 -6s6 -8.66699 6 -14v-164h24c6 0 11 -2 15 -6s6 -8.66699 6 -14v-31c0 -5.33301 -2 -10 -6 -14s-9 -6 -15 -6h-24v-34c0 -5.33301 -2 -10 -6 -14s-8.66699 -6 -14 -6
h-51c-5.33301 0 -10 1.83301 -14 5.5s-6 8.5 -6 14.5v34h-186c-5.33301 0 -10.166 2 -14.499 6s-6.5 8.66699 -6.5 14v26zM127.999 516h99v105z" />
    <glyph glyph-name="uni00B9" unicode="&#xb9;" horiz-adv-x="199" 
d="M23 622c-1.33301 2.66699 -2.00098 5 -2.00098 7c0 4.66699 2.33301 9 7 13l57 48c6.66699 6.66699 17 10 31 10h42c6 0 11 -2 15 -6s6 -8.66699 6 -14v-269c0 -5.33301 -2 -10 -6 -14s-9 -6 -15 -6h-50c-5.33301 0 -10 1.83301 -14 5.5s-6 8.5 -6 14.5v198l-25 -18
c-7.33301 -4.66699 -13.666 -3.66699 -18.999 3z" />
    <glyph glyph-name="ordmasculine" unicode="&#xba;" horiz-adv-x="365" 
d="M20 545c0 104.667 51.667 157 155 157h15c103.333 0 155 -52.333 155 -157c0 -104 -51.667 -156 -155 -156h-15c-103.333 0 -155 52 -155 156zM132 610c-14 -14 -21 -35.667 -21 -65s7 -50.833 21 -64.5s31 -20.5 51 -20.5s36.833 6.83301 50.5 20.5
s20.5 35.167 20.5 64.5s-6.83301 51 -20.5 65s-30.5 21 -50.5 21s-37 -7 -51 -21z" />
    <glyph glyph-name="guillemotright" unicode="&#xbb;" horiz-adv-x="498" 
d="M21 79v3.99902c0 6.66699 2.66699 14.667 8 24l102 167l-102 167c-6 8.66699 -8.66699 16.334 -8 23.001v6c2 7.33301 8 11 18 11h60c15.333 0 28.666 -7.33301 39.999 -22l100 -128c12.667 -16.667 19 -31.667 19 -45v-24c0 -13.333 -6.33301 -28.333 -19 -45l-100 -128
c-11.333 -14.667 -24.666 -22 -39.999 -22h-60c-10 0 -16 4 -18 12zM241 78.999c0 1.33301 -0.333008 2.66602 -1 3.99902c0 6.66699 3 14.667 9 24l102 167l-102 167c-6 8.66699 -9 16.334 -9 23.001c0 2 0.333008 4 1 6c2 7.33301 8 11 18 11h60
c15.333 0 28.666 -7.33301 39.999 -22l100 -128c12.667 -16.667 19 -31.667 19 -45v-24c0 -13.333 -6.33301 -28.333 -19 -45l-100 -128c-11.333 -14.667 -24.666 -22 -39.999 -22h-60c-10 0 -16 4 -18 12z" />
    <glyph glyph-name="onequarter" unicode="&#xbc;" horiz-adv-x="672" 
d="M37 32l405.001 636c13.333 21.333 32 32 56 32h68c15.333 0 23.333 -4.33301 24 -13c0 -4.66699 -2.66699 -11 -8 -19l-405 -636c-13.333 -21.333 -32 -32 -56 -32h-68c-14.667 0 -22.334 4.66699 -23.001 14c0 4.66699 2.33301 10.667 7 18zM38.001 622
c-1.33301 2.66699 -2.00098 5 -2.00098 7c0 4.66699 2.33301 9 7 13l57 48c6.66699 6.66699 17 10 31 10h42c6 0 11 -2 15 -6s6 -8.66699 6 -14v-269c0 -5.33301 -2 -10 -6 -14s-9 -6 -15 -6h-50c-5.33301 0 -10 1.83301 -14 5.5s-6 8.5 -6 14.5v198l-25 -18
c-7.33301 -4.66699 -13.666 -3.66699 -18.999 3zM299 100c0 12 4.66602 23.333 13.999 34l152 162c8.66699 8.66699 20 13 34 13h78c5.33301 0 10 -2 14 -6s6 -8.66699 6 -14v-164h24c6 0 11 -2 15 -6s6 -8.66699 6 -14v-31c0 -5.33301 -2 -10 -6 -14s-9 -6 -15 -6h-24v-34
c0 -5.33301 -2 -10 -6 -14s-8.66699 -6 -14 -6h-51c-5.33301 -0 -10 1.83301 -14 5.5s-6 8.5 -6 14.5v34h-186c-5.33301 0 -10.166 2 -14.499 6s-6.5 8.66699 -6.5 14v26zM406.999 125h99v105z" />
    <glyph glyph-name="onehalf" unicode="&#xbd;" horiz-adv-x="680" 
d="M37 32l405.001 636c13.333 21.333 32 32 56 32h68c15.333 0 23.333 -4.33301 24 -13c0 -4.66699 -2.66699 -11 -8 -19l-405 -636c-13.333 -21.333 -32 -32 -56 -32h-68c-14.667 0 -22.334 4.66699 -23.001 14c0 4.66699 2.33301 10.667 7 18zM38.001 622
c-1.33301 2.66699 -2.00098 5 -2.00098 7c0 4.66699 2.33301 9 7 13l57 48c6.66699 6.66699 17 10 31 10h42c6 0 11 -2 15 -6s6 -8.66699 6 -14v-269c0 -5.33301 -2 -10 -6 -14s-9 -6 -15 -6h-50c-5.33301 0 -10 1.83301 -14 5.5s-6 8.5 -6 14.5v198l-25 -18
c-7.33301 -4.66699 -13.666 -3.66699 -18.999 3zM346 20l0.000976562 31.001c0 21.333 5.16699 39.666 15.5 54.999s23.5 26.833 39.5 34.5s33 14.5 51 20.5s35 10.667 51 14s29.167 7.83301 39.5 13.5s15.5 12.167 15.5 19.5c0 21.333 -18 32 -54 32h-16
c-28 0 -46.333 -9 -55 -27c-6.66699 -13.333 -16.334 -20 -29.001 -20h-36c-4.66699 0 -9.5 1.83301 -14.5 5.5s-7.5 9.83398 -7.5 18.501c0 28.667 14 51.5 42 68.5s59 25.5 93 25.5h29c93.333 0 140 -34.333 140 -103c0 -26 -10.5 -46.833 -31.5 -62.5
s-44.333 -25.834 -70 -30.501s-49 -10.5 -70 -17.5s-31.5 -15.833 -31.5 -26.5h179c6 0 11 -2 15 -6s6 -9 6 -15v-30c0 -5.33301 -2 -10 -6 -14s-9 -6 -15 -6h-259c-6 0 -11 2 -15 6s-6 8.66699 -6 14z" />
    <glyph glyph-name="threequarters" unicode="&#xbe;" horiz-adv-x="760" 
d="M30 478c0 8.66699 2.5 14.834 7.5 18.501s9.83301 5.5 14.5 5.5h30c4 0 7.83301 -1 11.5 -3s6.33398 -3.66699 8.00098 -5s4.5 -4.33301 8.5 -9s6.33301 -7.33398 7 -8.00098c10 -11.333 27 -17 51 -17h35c30.667 0 46 7.66699 46 23c0 12 -4 19.667 -12 23
s-21.333 5 -40 5h-39c-5.33301 0 -10 2 -14 6s-6 9 -6 15v26c0 5.33301 2 10.166 6 14.499s8.66699 6.5 14 6.5h41c30 0 45 9 45 27c0 16.667 -15 25 -45 25h-29c-24 0 -41 -5.66699 -51 -17c-1.33301 -1.33301 -3.33301 -3.5 -6 -6.5s-4.66699 -5.33301 -6 -7
s-3.33301 -3.5 -6 -5.5s-5.33398 -3.5 -8.00098 -4.5s-5.66699 -1.5 -9 -1.5h-30c-4.66699 0 -9.5 1.83301 -14.5 5.5s-7.5 9.83398 -7.5 18.501c0 24.667 14.333 45.667 43 63s59 26 91 26h30c93.333 0 140 -31.667 140 -95c0 -26 -12 -46.667 -36 -62
c26.667 -13.333 40 -34 40 -62c0 -62.667 -46.667 -94 -140 -94h-36c-32 0 -62.333 8.66699 -91 26s-43 38.333 -43 63zM125 32l405.001 636c13.333 21.333 32 32 56 32h68c15.333 0 23.333 -4.33301 24 -13c0 -4.66699 -2.66699 -11 -8 -19l-405 -636
c-13.333 -21.333 -32 -32 -56 -32h-68c-14.667 0 -22.334 4.66699 -23.001 14c0 4.66699 2.33301 10.667 7 18zM387.001 100c0 12 4.66602 23.333 13.999 34l152 162c8.66699 8.66699 20 13 34 13h78c5.33301 0 10 -2 14 -6s6 -8.66699 6 -14v-164h24c6 0 11 -2 15 -6
s6 -8.66699 6 -14v-31c0 -5.33301 -2 -10 -6 -14s-9 -6 -15 -6h-24v-34c0 -5.33301 -2 -10 -6 -14s-8.66699 -6 -14 -6h-51c-5.33301 -0 -10 1.83301 -14 5.5s-6 8.5 -6 14.5v34h-186c-5.33301 0 -10.166 2 -14.499 6s-6.5 8.66699 -6.5 14v26zM495 125h99v105z" />
    <glyph glyph-name="questiondown" unicode="&#xbf;" horiz-adv-x="655" 
d="M40 49c0 32.667 7.82715 61 23.4941 85s34.834 42.333 57.501 55s45.334 24 68.001 34s41.834 21 57.501 33s23.5 25.667 23.5 41c0 8.66699 2.83301 15.834 8.5 21.501s12.834 8.5 21.501 8.5h110c8.66699 0 15.834 -2.83301 21.501 -8.5s8.5 -12.834 8.5 -21.501
c0 -28 -5.33301 -52.667 -16 -74s-24 -38.166 -40 -50.499s-33.333 -23.833 -52 -34.5s-36 -19.667 -52 -27s-29.333 -16.333 -40 -27s-16 -22.334 -16 -35.001c0 -28 8.83301 -48.333 26.5 -61s45.834 -19 84.501 -19h25c54 0 91 20 111 60c14.667 30.667 36.667 46 66 46
h58c6 0 12.333 -1.16699 19 -3.5s13.5 -8 20.5 -17s10.5 -20.167 10.5 -33.5c0 -55.333 -28 -100.833 -84 -136.5s-117.333 -53.5 -184 -53.5h-56c-187.333 0 -281 72.667 -281 218zM257.994 443v31c0 21.333 5.66699 37.666 17 48.999s27.666 17 48.999 17h60
c21.333 0 37.666 -5.66699 48.999 -17s17 -27.666 17 -48.999v-31c0 -20.667 -5.66699 -36.834 -17 -48.501s-27.666 -17.5 -48.999 -17.5h-60c-21.333 0 -37.666 5.83301 -48.999 17.5s-17 27.834 -17 48.501z" />
    <glyph glyph-name="Agrave" unicode="&#xc0;" horiz-adv-x="834" 
d="M12 45l123.001 465.002c34 126.667 142 190 324 190h263c12 0 22 -4.33301 30 -13s12 -19.334 12 -32.001v-610c0 -12.667 -4.33301 -23.334 -13 -32.001s-19.667 -13 -33 -13h-92c-12.667 -0 -23.334 4.33301 -32.001 13c-9.33301 9.33301 -14 20.333 -14 33v123h-347
l-33 -123c-8 -30.667 -27.333 -46 -58 -46h-96c-12.667 -0 -22.334 4.33301 -29.001 13c-4.66699 5.33301 -7 12 -7 20c0.666992 3.33301 1.33398 7.33301 2.00098 12zM269.001 307.002h311v255h-139c-68.667 0 -111.667 -32.667 -129 -98zM357.001 938.002
c6.66699 14 20.667 20.999 42 20.999h44c30 0 51.333 -18.667 64 -56l24 -92c2.66699 -9.33301 4 -17.333 4 -24c0 -21.333 -12 -32 -36 -32h-23c-22 0 -42 15.333 -60 46l-53 92c-6.66699 10.667 -10 20.334 -10 29.001c0 6 1.33301 11.333 4 16z" />
    <glyph glyph-name="Aacute" unicode="&#xc1;" horiz-adv-x="834" 
d="M12 45l123.001 465.002c34 126.667 142 190 324 190h263c12 0 22 -4.33301 30 -13s12 -19.334 12 -32.001v-610c0 -12.667 -4.33301 -23.334 -13 -32.001s-19.667 -13 -33 -13h-92c-12.667 -0 -23.334 4.33301 -32.001 13c-9.33301 9.33301 -14 20.333 -14 33v123h-347
l-33 -123c-8 -30.667 -27.333 -46 -58 -46h-96c-12.667 -0 -22.334 4.33301 -29.001 13c-4.66699 5.33301 -7 12 -7 20c0.666992 3.33301 1.33398 7.33301 2.00098 12zM269.001 307.002h311v255h-139c-68.667 0 -111.667 -32.667 -129 -98zM434.001 811.002l24 92
c12.667 37.333 34 56 64 56h44c21.333 0 35.333 -7 42 -21c2.66699 -4.66699 4 -10 4 -16c0 -9.33301 -3.33301 -19 -10 -29l-53 -92c-18 -30.667 -38 -46 -60 -46h-23c-24 0 -36 10.667 -36 32c0 6.66699 1.33301 14.667 4 24z" />
    <glyph glyph-name="Acircumflex" unicode="&#xc2;" horiz-adv-x="834" 
d="M12 45l123 465.001c33.333 126.667 141.333 190 324 190h263c12 0 22 -4.5 30 -13.5s12 -19.5 12 -31.5v-610c0 -12.667 -4.5 -23.334 -13.5 -32.001s-19.833 -13 -32.5 -13h-92c-13.333 -0 -24.333 4.33301 -33 13s-13 19.667 -13 33v123h-347l-33 -123
c-3.33301 -13.333 -10.666 -24.333 -21.999 -33s-23.333 -13 -36 -13h-96c-12.667 -0 -22.334 4.33301 -29.001 13c-4.66699 6 -7 12.667 -7 20zM269 307.001h310.999v255h-139c-31.333 0 -58.666 -8.83301 -81.999 -26.5s-39 -41.5 -47 -71.5zM311.999 767.001
c-2 3.33301 -2.99805 7 -2.99805 11c0 6 3 11.667 9 17l76 70c30 28.667 54 43 72 43h60c18 0 42 -14.333 72 -43l77 -70c6 -5.33301 9 -11 9 -17c0 -4 -1 -7.66699 -3 -11c-5.33301 -10 -14 -15 -26 -15h-71c-18.667 0 -42.334 13.667 -71.001 41l-17 15l-16 -15
c-28.667 -27.333 -52.334 -41 -71.001 -41h-71c-12 0 -20.667 5 -26 15z" />
    <glyph glyph-name="Atilde" unicode="&#xc3;" horiz-adv-x="834" 
d="M12 45l123 465.001c33.333 126.667 141.333 190 324 190h263c12 0 22 -4.5 30 -13.5s12 -19.5 12 -31.5v-610c0 -12.667 -4.5 -23.334 -13.5 -32.001s-19.833 -13 -32.5 -13h-92c-13.333 -0 -24.333 4.33301 -33 13s-13 19.667 -13 33v123h-347l-33 -123
c-3.33301 -13.333 -10.666 -24.333 -21.999 -33s-23.333 -13 -36 -13h-96c-12.667 -0 -22.334 4.33301 -29.001 13c-4.66699 6 -7 12.667 -7 20zM269 307.001h310.999v255h-139c-31.333 0 -58.666 -8.83301 -81.999 -26.5s-39 -41.5 -47 -71.5zM329.999 775.001
c0 42.667 10.501 75 31.501 97s45.5 33 73.5 33c19.333 0 41.333 -6.66699 66 -20s42.667 -20 54 -20c12 0 21.667 5.83301 29 17.5s15.666 17.5 24.999 17.5h40c10 0 15 -5 15 -15c0 -42.667 -10.333 -75 -31 -97s-45 -33 -73 -33c-20 0 -42 6.66699 -66 20s-42 20 -54 20
s-21.833 -5.83301 -29.5 -17.5s-16.167 -17.5 -25.5 -17.5h-40c-10 0 -15 5 -15 15z" />
    <glyph glyph-name="Adieresis" unicode="&#xc4;" horiz-adv-x="834" 
d="M15 45l123.001 465.002c34 126.667 142 190 324 190h263c12 0 22 -4.33301 30 -13s12 -19.334 12 -32.001v-610c0 -12.667 -4.33301 -23.334 -13 -32.001s-19.667 -13 -33 -13h-92c-12.667 -0 -23.334 4.33301 -32.001 13c-9.33301 9.33301 -14 20.333 -14 33v123h-347
l-33 -123c-8 -30.667 -27.333 -46 -58 -46h-96c-12.667 -0 -22.334 4.33301 -29.001 13c-4.66699 5.33301 -7 12 -7 20c0.666992 3.33301 1.33398 7.33301 2.00098 12zM272.001 307.002h311v255h-139c-68.667 0 -111.667 -32.667 -129 -98zM290.001 826.002v19
c0 37.333 18.667 56 56 56h47c37.333 0 56 -18.667 56 -56v-19c0 -37.333 -18.667 -56 -56 -56h-47c-37.333 0 -56 18.667 -56 56zM535.001 826.002v19c0 37.333 18.667 56 56 56h47c37.333 0 56 -18.667 56 -56v-19c0 -37.333 -18.667 -56 -56 -56h-47
c-37.333 0 -56 18.667 -56 56z" />
    <glyph glyph-name="Aring" unicode="&#xc5;" horiz-adv-x="834" 
d="M12 45l123 465.001c33.333 126.667 141.333 190 324 190h263c12 0 22 -4.5 30 -13.5s12 -19.5 12 -31.5v-610c0 -12.667 -4.5 -23.334 -13.5 -32.001s-19.833 -13 -32.5 -13h-92c-13.333 -0 -24.333 4.33301 -33 13s-13 19.667 -13 33v123h-347l-33 -123
c-3.33301 -13.333 -10.666 -24.333 -21.999 -33s-23.333 -13 -36 -13h-96c-12.667 -0 -22.334 4.33301 -29.001 13c-4.66699 6 -7 12.667 -7 20zM269 307.001h310.999v255h-139c-31.333 0 -58.666 -8.83301 -81.999 -26.5s-39 -41.5 -47 -71.5zM341.999 866.001
c0 41.333 13.333 73.333 40 96c24.667 22.667 57 34 97 34c39.333 0 71.333 -11.333 96 -34c26.667 -22.667 40 -54.667 40 -96c0 -40 -13.333 -72 -40 -96c-24.667 -22.667 -56.667 -34 -96 -34c-40 0 -72.333 11.333 -97 34c-26.667 24 -40 56 -40 96zM478.999 801.001
c34.667 0 52 21.667 52 65s-17.333 65 -52 65c-35.333 0 -53 -21.667 -53 -65s17.667 -65 53 -65z" />
    <glyph glyph-name="AE" unicode="&#xc6;" horiz-adv-x="1235" 
d="M12 45l122.999 465.001c33.333 126.667 141.333 190 324 190h710c12.667 0 23.5 -4.5 32.5 -13.5s13.5 -19.833 13.5 -32.5v-46c0 -12.667 -4.5 -23.5 -13.5 -32.5s-19.833 -13.5 -32.5 -13.5h-425v-142h366c12.667 0 23.5 -4.5 32.5 -13.5s13.5 -19.833 13.5 -32.5v-46
c0 -12.667 -4.5 -23.5 -13.5 -32.5s-19.833 -13.5 -32.5 -13.5h-366v-144h424c12.667 0 23.334 -4.33301 32.001 -13s13 -19.334 13 -32.001v-47c0 -12.667 -4.5 -23.5 -13.5 -32.5s-19.833 -13.5 -32.5 -13.5h-561c-12.667 0 -23.5 4.5 -32.5 13.5s-13.5 20.167 -13.5 33.5
v122h-327l-33 -123c-3.33301 -13.333 -10.666 -24.333 -21.999 -33s-23.333 -13 -36 -13h-96c-12.667 -0 -22.334 4.33301 -29.001 13c-4.66699 6 -7 12.667 -7 20zM268.999 307.001h290.999v255h-119c-31.333 0 -58.666 -8.83301 -81.999 -26.5s-39 -41.5 -47 -71.5z" />
    <glyph glyph-name="Ccedilla" unicode="&#xc7;" horiz-adv-x="817" 
d="M30 350c0 120.667 30.167 209.834 90.5 267.501s150.833 86.5 271.5 86.5h109c74 0 139.333 -19.167 196 -57.5s85 -90.833 85 -157.5c0 -19.333 -5.66699 -33.166 -17 -41.499s-22.333 -12.5 -33 -12.5h-58c-30 0 -53.333 18 -70 54c-24 51.333 -64 77 -120 77h-87
c-71.333 0 -119.666 -15.333 -144.999 -46s-38 -87.334 -38 -170.001s12.667 -139.334 38 -170.001s73.666 -46 144.999 -46h97c56 0 96 25.667 120 77c16.667 36 40 54 70 54h58c6 0 12.333 -1.16699 19 -3.5s13.5 -8 20.5 -17s10.5 -20.167 10.5 -33.5
c0 -66.667 -28.333 -119.167 -85 -157.5s-122 -57.5 -196 -57.5h-61v-35c72.667 -6 109 -37 109 -93c0 -70.667 -53 -106 -159 -106h-41c-13.333 0 -20 6.66699 -20 20v41c0 13.333 6.66699 20 20 20h41c43.333 0 65 8.33301 65 25c0 17.333 -22 26 -66 26h-29
c-13.333 0 -20 6.66699 -20 20v84c-108 7.33301 -188.333 39.833 -241 97.5s-79 142.5 -79 254.5z" />
    <glyph glyph-name="Egrave" unicode="&#xc8;" horiz-adv-x="745" 
d="M70 47l-0.00195312 608.002c0 12 4.66699 22.667 14 32c8.66699 8.66699 19.334 13 32.001 13h563c12.667 0 23.334 -4.33301 32.001 -13c9.33301 -9.33301 14 -20.333 14 -33v-46c0 -12.667 -4.66699 -23.667 -14 -33c-8.66699 -8.66699 -19.334 -13 -32.001 -13h-425
v-142h366c12 0 22.667 -4.66699 32 -14s14 -20 14 -32v-46c0 -12 -4.66699 -22.667 -14 -32s-20 -14 -32 -14h-366v-144h424c12.667 0 23.334 -4.33301 32.001 -13s13 -19.334 13 -32.001v-47c0 -12.667 -4.33301 -23.334 -13 -32.001
c-9.33301 -9.33301 -20.333 -14 -33 -14h-561c-12.667 0 -23.667 4.66699 -33 14c-8.66699 8.66699 -13 19.667 -13 33zM279.998 938.002c6.66699 14 20.667 20.999 42 20.999h44c30 0 51.333 -18.667 64 -56l24 -92c2.66699 -9.33301 4 -17.333 4 -24
c0 -21.333 -12 -32 -36 -32h-23c-22 0 -42 15.333 -60 46l-53 92c-6.66699 10.667 -10 20.334 -10 29.001c0 6 1.33301 11.333 4 16z" />
    <glyph glyph-name="Eacute" unicode="&#xc9;" horiz-adv-x="745" 
d="M70 47l-0.00195312 608.002c0 12 4.66699 22.667 14 32c8.66699 8.66699 19.334 13 32.001 13h563c12.667 0 23.334 -4.33301 32.001 -13c9.33301 -9.33301 14 -20.333 14 -33v-46c0 -12.667 -4.66699 -23.667 -14 -33c-8.66699 -8.66699 -19.334 -13 -32.001 -13h-425
v-142h366c12 0 22.667 -4.66699 32 -14s14 -20 14 -32v-46c0 -12 -4.66699 -22.667 -14 -32s-20 -14 -32 -14h-366v-144h424c12.667 0 23.334 -4.33301 32.001 -13s13 -19.334 13 -32.001v-47c0 -12.667 -4.33301 -23.334 -13 -32.001
c-9.33301 -9.33301 -20.333 -14 -33 -14h-561c-12.667 0 -23.667 4.66699 -33 14c-8.66699 8.66699 -13 19.667 -13 33zM356.998 811.002l24 92c12.667 37.333 34 56 64 56h44c21.333 0 35.333 -7 42 -21c2.66699 -4.66699 4 -10 4 -16c0 -9.33301 -3.33301 -19 -10 -29
l-53 -92c-18 -30.667 -38 -46 -60 -46h-23c-24 0 -36 10.667 -36 32c0 6.66699 1.33301 14.667 4 24z" />
    <glyph glyph-name="Ecircumflex" unicode="&#xca;" horiz-adv-x="745" 
d="M70 47l-0.000976562 608c0 12.667 4.5 23.334 13.5 32.001s19.833 13 32.5 13h563c12.667 0 23.5 -4.5 32.5 -13.5s13.5 -19.833 13.5 -32.5v-46c0 -12.667 -4.5 -23.5 -13.5 -32.5s-19.833 -13.5 -32.5 -13.5h-425v-142h366c12.667 0 23.5 -4.5 32.5 -13.5
s13.5 -19.833 13.5 -32.5v-46c0 -12.667 -4.5 -23.5 -13.5 -32.5s-19.833 -13.5 -32.5 -13.5h-366v-144h424c12.667 0 23.334 -4.33301 32.001 -13s13 -19.334 13 -32.001v-47c0 -12.667 -4.5 -23.5 -13.5 -32.5s-19.833 -13.5 -32.5 -13.5h-561
c-12.667 0 -23.5 4.5 -32.5 13.5s-13.5 20.167 -13.5 33.5zM207.999 769c-2 3.33301 -2.99805 7 -2.99805 11c0 6 3 11.667 9 17l76 70c30 28.667 54 43 72 43h60c18 0 42 -14.333 72 -43l77 -70c6 -5.33301 9 -11 9 -17c0 -4 -1 -7.66699 -3 -11
c-5.33301 -10 -14 -15 -26 -15h-71c-18.667 0 -42.334 13.667 -71.001 41l-17 15l-16 -15c-28.667 -27.333 -52.334 -41 -71.001 -41h-71c-12 0 -20.667 5 -26 15z" />
    <glyph glyph-name="Edieresis" unicode="&#xcb;" horiz-adv-x="745" 
d="M70 47l-0.000976562 608c0 12.667 4.5 23.334 13.5 32.001s19.833 13 32.5 13h563c12.667 0 23.5 -4.5 32.5 -13.5s13.5 -19.833 13.5 -32.5v-46c0 -12.667 -4.5 -23.5 -13.5 -32.5s-19.833 -13.5 -32.5 -13.5h-425v-142h366c12.667 0 23.5 -4.5 32.5 -13.5
s13.5 -19.833 13.5 -32.5v-46c0 -12.667 -4.5 -23.5 -13.5 -32.5s-19.833 -13.5 -32.5 -13.5h-366v-144h424c12.667 0 23.334 -4.33301 32.001 -13s13 -19.334 13 -32.001v-47c0 -12.667 -4.5 -23.5 -13.5 -32.5s-19.833 -13.5 -32.5 -13.5h-561
c-12.667 0 -23.5 4.5 -32.5 13.5s-13.5 20.167 -13.5 33.5zM199.999 820v19c0 17.333 5 31 15 41s23.667 15 41 15h47c17.333 0 31 -5 41 -15s15 -23.667 15 -41v-19c0 -17.333 -5 -31 -15 -41s-23.667 -15 -41 -15h-47c-17.333 0 -31 5 -41 15s-15 23.667 -15 41z
M444.999 820v19c0 17.333 5 31 15 41s23.667 15 41 15h47c17.333 0 31 -5 41 -15s15 -23.667 15 -41v-19c0 -17.333 -5 -31 -15 -41s-23.667 -15 -41 -15h-47c-17.333 0 -31 5 -41 15s-15 23.667 -15 41z" />
    <glyph glyph-name="Igrave" unicode="&#xcc;" horiz-adv-x="324" 
d="M30 938c6.66699 14 20.667 20.999 42 20.999h44c30 0 51.333 -18.667 64 -56l24 -92c2.66699 -9.33301 4 -17.333 4 -24c0 -21.333 -12 -32 -36 -32h-23c-22 0 -42 15.333 -60 46l-53 92c-6.66699 10.667 -10 20.334 -10 29.001c0 6 1.33301 11.333 4 16zM70 44.999v609
c0 12.667 4.66699 23.667 14 33c8.66699 8.66699 19.334 13 32.001 13h91c13.333 0 24.333 -4.33301 33 -13c9.33301 -9.33301 14 -20.333 14 -33v-608c0 -12 -4.66699 -22.667 -14 -32s-20.333 -14 -33 -14h-91c-12.667 0 -23.334 4.33301 -32.001 13
c-9.33301 9.33301 -14 20 -14 32z" />
    <glyph glyph-name="Iacute" unicode="&#xcd;" horiz-adv-x="325" 
d="M70 45v609c0 12.667 4.66699 23.667 14 33c8.66699 8.66699 19.334 13 32.001 13h91c13.333 0 24.333 -4.33301 33 -13c9.33301 -9.33301 14 -20.333 14 -33v-608c0 -12 -4.66699 -22.667 -14 -32s-20.333 -14 -33 -14h-91c-12.667 -0 -23.334 4.33301 -32.001 13
c-9.33301 9.33301 -14 20 -14 32zM127 811l24 92c12.667 37.333 34 56 64 56h44c21.333 0 35.333 -7 42 -21c2.66699 -4.66699 4 -10 4 -16c0 -9.33301 -3.33301 -19 -10 -29l-53 -92c-18 -30.667 -38 -46 -60 -46h-23c-24 0 -36 10.667 -36 32
c0 6.66699 1.33301 14.667 4 24z" />
    <glyph glyph-name="Icircumflex" unicode="&#xce;" horiz-adv-x="335" 
d="M-17 759c-2 3.33301 -2.99805 7 -2.99805 11c0 6 3 11.667 9 17l76 70c30 28.667 54 43 72 43h60c18 0 42 -14.333 72 -43l77 -70c6 -5.33301 9 -11 9 -17c0 -4 -1 -7.66699 -3 -11c-5.33301 -10 -14 -15 -26 -15h-71c-18.667 0 -42.334 13.667 -71.001 41l-17 15
l-16 -15c-28.667 -27.333 -52.334 -41 -71.001 -41h-71c-12 0 -20.667 5 -26 15zM75.002 45v608.999c0 12.667 4.5 23.5 13.5 32.5s19.833 13.5 32.5 13.5h91c13.333 0 24.5 -4.5 33.5 -13.5s13.5 -19.833 13.5 -32.5v-608c0 -12.667 -4.66699 -23.5 -14 -32.5
s-20.333 -13.5 -33 -13.5h-91c-12.667 0 -23.5 4.33301 -32.5 13s-13.5 19.334 -13.5 32.001z" />
    <glyph glyph-name="Idieresis" unicode="&#xcf;" horiz-adv-x="344" 
d="M-30 810v19c0 17.333 5 31 15 41s23.667 15 41 15h47c17.333 0 31 -5 41 -15s15 -23.667 15 -41v-19c0 -17.333 -5 -31 -15 -41s-23.667 -15 -41 -15h-47c-17.333 0 -31 5 -41 15s-15 23.667 -15 41zM80 45v608.999c0 12.667 4.5 23.5 13.5 32.5s19.833 13.5 32.5 13.5
h91c13.333 0 24.5 -4.5 33.5 -13.5s13.5 -19.833 13.5 -32.5v-608c0 -12.667 -4.66699 -23.5 -14 -32.5s-20.333 -13.5 -33 -13.5h-91c-12.667 0 -23.5 4.33301 -32.5 13s-13.5 19.334 -13.5 32.001zM215 809.999v19c0 17.333 5 31 15 41s23.667 15 41 15h47
c17.333 0 31 -5 41 -15s15 -23.667 15 -41v-19c0 -17.333 -5 -31 -15 -41s-23.667 -15 -41 -15h-47c-17.333 0 -31 5 -41 15s-15 23.667 -15 41z" />
    <glyph glyph-name="Eth" unicode="&#xd0;" horiz-adv-x="844" 
d="M0 320v49.9971c-0 8.66699 2.83301 15.834 8.5 21.501s12.834 8.5 21.501 8.5h60v253c0 13.333 4.5 24.5 13.5 33.5s19.833 13.5 32.5 13.5h273c141.333 0 244.166 -28.167 308.499 -84.5s96.5 -144.833 96.5 -265.5s-32.167 -209.167 -96.5 -265.5
s-167.166 -84.5 -308.499 -84.5h-273c-12.667 0 -23.5 4.33301 -32.5 13s-13.5 19.334 -13.5 32.001v245h-60c-8.66699 0 -15.834 2.83301 -21.501 8.5s-8.5 12.834 -8.5 21.501zM274 137.997l130 0.00195312c87.333 0 146.833 16 178.5 48s47.5 86.667 47.5 164
s-15.833 132 -47.5 164s-91.167 48 -178.5 48h-130v-162h86c8.66699 0 15.834 -2.83301 21.501 -8.5s8.5 -12.834 8.5 -21.501v-50c0 -8.66699 -2.83301 -15.834 -8.5 -21.501s-12.834 -8.5 -21.501 -8.5h-86v-152z" />
    <glyph glyph-name="Ntilde" unicode="&#xd1;" horiz-adv-x="867" 
d="M70 46l-0.000976562 607.999c0 12.667 4.33301 23.5 13 32.5s19.334 13.5 32.001 13.5h144c11.333 0 23.333 -4.5 36 -13.5s23 -19.833 31 -32.5l295 -454v455c0 12.667 4.5 23.334 13.5 32.001s19.833 13 32.5 13h84c12.667 0 23.5 -4.33301 32.5 -13
s13.5 -19.667 13.5 -33v-608c0 -12.667 -4.5 -23.5 -13.5 -32.5s-19.833 -13.5 -32.5 -13.5h-162c-12.667 0 -25.667 4.5 -39 13.5s-24 19.833 -32 32.5l-270 419v-419c0 -12.667 -4.5 -23.5 -13.5 -32.5s-19.833 -13.5 -32.5 -13.5h-86c-12.667 0 -23.5 4.5 -32.5 13.5
s-13.5 19.833 -13.5 32.5zM285.999 744.999c0 42.667 10.501 75 31.501 97s45.5 33 73.5 33c19.333 0 41.333 -6.66699 66 -20s42.667 -20 54 -20c12 0 21.667 5.83301 29 17.5s15.666 17.5 24.999 17.5h40c10 0 15 -5 15 -15c0 -42.667 -10.333 -75 -31 -97
s-45 -33 -73 -33c-20 0 -42 6.66699 -66 20s-42 20 -54 20s-21.833 -5.83301 -29.5 -17.5s-16.167 -17.5 -25.5 -17.5h-40c-10 0 -15 5 -15 15z" />
    <glyph glyph-name="Ograve" unicode="&#xd2;" horiz-adv-x="846" 
d="M423 -15c-262 0 -393 121.667 -393 365s131 365 393 365s393 -121.667 393 -365s-131 -365 -393 -365zM423 583c-139.333 0 -209 -77.667 -209 -233s69.667 -233 209 -233s209 77.667 209 233s-69.667 233 -209 233zM300 938c6.66699 14 20.667 20.999 42 20.999h44
c30 0 51.333 -18.667 64 -56l24 -92c2.66699 -9.33301 4 -17.333 4 -24c0 -21.333 -12 -32 -36 -32h-23c-22 0 -42 15.333 -60 46l-53 92c-6.66699 10.667 -10 20.334 -10 29.001c0 6 1.33301 11.333 4 16z" />
    <glyph glyph-name="Oacute" unicode="&#xd3;" horiz-adv-x="846" 
d="M423 -15c-262 0 -393 121.667 -393 365s131 365 393 365s393 -121.667 393 -365s-131 -365 -393 -365zM423 583c-139.333 0 -209 -77.667 -209 -233s69.667 -233 209 -233s209 77.667 209 233s-69.667 233 -209 233zM387 811l24 92c12.667 37.333 34 56 64 56h44
c21.333 0 35.333 -7 42 -21c2.66699 -4.66699 4 -10 4 -16c0 -9.33301 -3.33301 -19 -10 -29l-53 -92c-18 -30.667 -38 -46 -60 -46h-23c-24 0 -36 10.667 -36 32c0 6.66699 1.33301 14.667 4 24z" />
    <glyph glyph-name="Ocircumflex" unicode="&#xd4;" horiz-adv-x="846" 
d="M130 72c-66.667 58.667 -100 151.333 -100 278s33.333 219.167 100 277.5s164.334 87.5 293.001 87.5s226.334 -29.167 293.001 -87.5s100 -150.833 100 -277.5s-33.333 -219.167 -100 -277.5s-164.334 -87.5 -293.001 -87.5s-226.334 29 -293.001 87zM263 523.999
c-32.667 -38.667 -49.001 -96.667 -49.001 -174s16.5 -135.5 49.5 -174.5s86.167 -58.5 159.5 -58.5s126.5 19.5 159.5 58.5s49.5 97.167 49.5 174.5s-16.5 135.5 -49.5 174.5s-86.167 58.5 -159.5 58.5s-126.666 -19.667 -159.999 -59zM245.999 800.999
c-2 4 -2.99805 7.66699 -2.99805 11c0 6 3 12 9 18l76 70c30 28.667 54 43 72 43h60c18 0 42 -14.333 72 -43l77 -70c6 -6 9 -12 9 -18c0 -3.33301 -1 -7 -3 -11c-5.33301 -9.33301 -14 -14 -26 -14h-71c-18.667 0 -42.334 13.667 -71.001 41l-17 15l-16 -15
c-28.667 -27.333 -52.334 -41 -71.001 -41h-71c-12 0 -20.667 4.66699 -26 14z" />
    <glyph glyph-name="Otilde" unicode="&#xd5;" horiz-adv-x="846" 
d="M130 72c-66.667 58.667 -100 151.333 -100 278s33.333 219.167 100 277.5s164.334 87.5 293.001 87.5s226.334 -29.167 293.001 -87.5s100 -150.833 100 -277.5s-33.333 -219.167 -100 -277.5s-164.334 -87.5 -293.001 -87.5s-226.334 29 -293.001 87zM263 523.999
c-32.667 -38.667 -49.001 -96.667 -49.001 -174s16.5 -135.5 49.5 -174.5s86.167 -58.5 159.5 -58.5s126.5 19.5 159.5 58.5s49.5 97.167 49.5 174.5s-16.5 135.5 -49.5 174.5s-86.167 58.5 -159.5 58.5s-126.666 -19.667 -159.999 -59zM255.999 774.999
c0 42.667 10.501 75 31.501 97s45.5 33 73.5 33c19.333 0 41.333 -6.66699 66 -20s42.667 -20 54 -20c12 0 21.667 5.83301 29 17.5s15.666 17.5 24.999 17.5h40c10 0 15 -5 15 -15c0 -42.667 -10.333 -75 -31 -97s-45 -33 -73 -33c-20 0 -42 6.66699 -66 20s-42 20 -54 20
s-21.833 -5.83301 -29.5 -17.5s-16.167 -17.5 -25.5 -17.5h-40c-10 0 -15 5 -15 15z" />
    <glyph glyph-name="Odieresis" unicode="&#xd6;" horiz-adv-x="846" 
d="M423 -15c-262 0 -393 121.667 -393 365s131 365 393 365s393 -121.667 393 -365s-131 -365 -393 -365zM423 583c-139.333 0 -209 -77.667 -209 -233s69.667 -233 209 -233s209 77.667 209 233s-69.667 233 -209 233zM224 829v19c0 37.333 18.667 56 56 56h47
c37.333 0 56 -18.667 56 -56v-19c0 -37.333 -18.667 -56 -56 -56h-47c-37.333 0 -56 18.667 -56 56zM469 829v19c0 37.333 18.667 56 56 56h47c37.333 0 56 -18.667 56 -56v-19c0 -37.333 -18.667 -56 -56 -56h-47c-37.333 0 -56 18.667 -56 56z" />
    <glyph glyph-name="multiply" unicode="&#xd7;" horiz-adv-x="468" 
d="M61 221l87 86l-87 87c-6 6 -9 13 -9 21s3 15 9 21l41 41c6 6 13.167 9 21.5 9s15.5 -3 21.5 -9l86 -86l91 90c6 6 13 9 21 9s15 -3 21 -9l41 -41c6 -6 9 -13 9 -21s-3 -15 -9 -21l-91 -91l91 -90c6 -6 9 -13 9 -21s-3 -15 -9 -21l-41 -42c-6 -6 -13 -9 -21 -9
s-15 3 -21 9l-91 91l-86 -86c-6 -6 -13.167 -9 -21.5 -9s-15.5 3 -21.5 9l-41 41c-6 6 -9 13 -9 21s3 15 9 21z" />
    <glyph glyph-name="Oslash" unicode="&#xd8;" horiz-adv-x="846" 
d="M30 350c0 126.667 33.3301 219.167 99.9971 277.5s164.334 87.5 293.001 87.5c84 0 156 -16.333 216 -49c0.666992 0.666992 2.83398 2.66699 6.50098 6s6.33398 5.66602 8.00098 6.99902s4.33398 3.33301 8.00098 6s6.66699 4.66699 9 6s5.33301 2.83301 9 4.5
s7.16699 2.83398 10.5 3.50098s7 1 11 1h82c15.333 0 24.666 -5 27.999 -15c0.666992 -2.66699 1 -5.33398 1 -8.00098c0 -7.33301 -4 -15 -12 -23l-55 -58c47.333 -66.667 71 -148.667 71 -246c0 -126.667 -33.333 -219.167 -100 -277.5s-164.334 -87.5 -293.001 -87.5
c-81.333 0 -153.333 16 -216 48c-1.33301 -1.33301 -3.66602 -3.33301 -6.99902 -6l-8 -6c-2 -2 -4.66699 -4.16699 -8 -6.5s-6.33301 -4.16602 -9 -5.49902l-9 -5c-3.33301 -1.33301 -6.83301 -2.33301 -10.5 -3s-7.16699 -1 -10.5 -1h-82
c-15.333 -0 -24.333 5.33301 -27 16c-0.666992 2 -1 4 -1 6c0 8 3.66699 16 11 24l54 58c-46.667 66 -70 148 -70 246zM213.997 350c0 -44.667 4.66699 -81.333 14 -110l302 323c-30 13.333 -65.667 20 -107 20c-73.333 0 -126.5 -19.5 -159.5 -58.5
s-49.5 -97.167 -49.5 -174.5zM314.997 137.001c30 -13.333 66 -19.999 108 -19.999c73.333 0 126.5 19.5 159.5 58.5s49.5 97.167 49.5 174.5c0 41.333 -5 77.666 -15 108.999z" />
    <glyph glyph-name="Ugrave" unicode="&#xd9;" horiz-adv-x="824" 
d="M60 277l-0.00195312 377c0 12.667 4.66699 23.667 14 33c8.66699 8.66699 19.667 13 33 13h91c12.667 0 23.334 -4.33301 32.001 -13c9.33301 -9.33301 14 -20.333 14 -33v-378c0 -94.667 43 -142 129 -142h78c86 0 129 47.333 129 142v378
c0 12.667 4.66699 23.667 14 33c8.66699 8.66699 19.334 13 32.001 13h91c13.333 0 24.333 -4.33301 33 -13c9.33301 -9.33301 14 -20.333 14 -33v-377c0 -88.667 -25.667 -157.667 -77 -207c-53.333 -49.333 -130.333 -74 -231 -74h-88c-100 0 -176.667 24.667 -230 74
c-52 49.333 -78 118.333 -78 207zM289.998 918c6.66699 14 20.667 20.999 42 20.999h44c30 0 51.333 -18.667 64 -56l24 -92c2.66699 -9.33301 4 -17.333 4 -24c0 -21.333 -12 -32 -36 -32h-23c-22 0 -42 15.333 -60 46l-53 92c-6.66699 10.667 -10 20.334 -10 29.001
c0 6 1.33301 11.333 4 16z" />
    <glyph glyph-name="Uacute" unicode="&#xda;" horiz-adv-x="824" 
d="M60 277l-0.00195312 377c0 12.667 4.66699 23.667 14 33c8.66699 8.66699 19.667 13 33 13h91c12.667 0 23.334 -4.33301 32.001 -13c9.33301 -9.33301 14 -20.333 14 -33v-378c0 -94.667 43 -142 129 -142h78c86 0 129 47.333 129 142v378
c0 12.667 4.66699 23.667 14 33c8.66699 8.66699 19.334 13 32.001 13h91c13.333 0 24.333 -4.33301 33 -13c9.33301 -9.33301 14 -20.333 14 -33v-377c0 -88.667 -25.667 -157.667 -77 -207c-53.333 -49.333 -130.333 -74 -231 -74h-88c-100 0 -176.667 24.667 -230 74
c-52 49.333 -78 118.333 -78 207zM366.998 791l24 92c12.667 37.333 34 56 64 56h44c21.333 0 35.333 -7 42 -21c2.66699 -4.66699 4 -10 4 -16c0 -9.33301 -3.33301 -19 -10 -29l-53 -92c-18 -30.667 -38 -46 -60 -46h-23c-24 0 -36 10.667 -36 32
c0 6.66699 1.33301 14.667 4 24z" />
    <glyph glyph-name="Ucircumflex" unicode="&#xdb;" horiz-adv-x="824" 
d="M60 277v377c0 12.667 4.5 23.5 13.5 32.5s20.167 13.5 33.5 13.5h91c12.667 0 23.5 -4.5 32.5 -13.5s13.5 -19.833 13.5 -32.5v-378c0 -48 10.5 -83.667 31.5 -107s53.5 -35 97.5 -35h78c44 0 76.5 11.667 97.5 35s31.5 59 31.5 107v378c0 12.667 4.5 23.5 13.5 32.5
s19.833 13.5 32.5 13.5h91c13.333 0 24.5 -4.5 33.5 -13.5s13.5 -19.833 13.5 -32.5v-377c0 -89.333 -26.167 -158.5 -78.5 -207.5s-128.833 -73.5 -229.5 -73.5h-88c-100.667 0 -177.167 24.5 -229.5 73.5s-78.5 118.167 -78.5 207.5zM227 747
c-2 3.33301 -2.99805 7 -2.99805 11c0 6 3 11.667 9 17l76 70c30 28.667 54 43 72 43h60c18 0 42 -14.333 72 -43l77 -70c6 -5.33301 9 -11 9 -17c0 -4 -1 -7.66699 -3 -11c-5.33301 -10 -14 -15 -26 -15h-71c-18.667 0 -42.334 13.667 -71.001 41l-17 15l-16 -15
c-28.667 -27.333 -52.334 -41 -71.001 -41h-71c-12 0 -20.667 5 -26 15z" />
    <glyph glyph-name="Udieresis" unicode="&#xdc;" horiz-adv-x="824" 
d="M60 277l-0.00195312 377c0 12.667 4.66699 23.667 14 33c8.66699 8.66699 19.667 13 33 13h91c12.667 0 23.334 -4.33301 32.001 -13c9.33301 -9.33301 14 -20.333 14 -33v-378c0 -94.667 43 -142 129 -142h78c86 0 129 47.333 129 142v378
c0 12.667 4.66699 23.667 14 33c8.66699 8.66699 19.334 13 32.001 13h91c13.333 0 24.333 -4.33301 33 -13c9.33301 -9.33301 14 -20.333 14 -33v-377c0 -88.667 -25.667 -157.667 -77 -207c-53.333 -49.333 -130.333 -74 -231 -74h-88c-100 0 -176.667 24.667 -230 74
c-52 49.333 -78 118.333 -78 207zM212.998 808v19c0 37.333 18.667 56 56 56h47c37.333 0 56 -18.667 56 -56v-19c0 -37.333 -18.667 -56 -56 -56h-47c-37.333 0 -56 18.667 -56 56zM457.998 808v19c0 37.333 18.667 56 56 56h47c37.333 0 56 -18.667 56 -56v-19
c0 -37.333 -18.667 -56 -56 -56h-47c-37.333 0 -56 18.667 -56 56z" />
    <glyph glyph-name="Yacute" unicode="&#xdd;" horiz-adv-x="743" 
d="M12 686c3.33301 9.33301 11.001 14.002 23.001 14.002h93c36.667 0 65 -15.333 85 -46l158 -244l158 244c20 30.667 48.333 46 85 46h93c12.667 0 20.667 -4.66699 24 -14c0.666992 -2.66699 1 -5.66699 1 -9c0 -6.66699 -2.66699 -14.334 -8 -23.001l-261 -404v-205
c0 -12.667 -4.33301 -23.334 -13 -32.001s-19.667 -13 -33 -13h-92c-12.667 -0 -23.334 4.33301 -32.001 13c-9.33301 9.33301 -14 20 -14 32v205l-261 404c-4.66699 8 -7.33398 15.667 -8.00098 23c0.666992 3.33301 1.33398 6.33301 2.00098 9zM344.001 811.002l24 92
c12.667 37.333 34 56 64 56h44c21.333 0 35.333 -7 42 -21c2.66699 -4.66699 4 -10 4 -16c0 -9.33301 -3.33301 -19 -10 -29l-53 -92c-18 -30.667 -38 -46 -60 -46h-23c-24 0 -36 10.667 -36 32c0 6.66699 1.33301 14.667 4 24z" />
    <glyph glyph-name="Thorn" unicode="&#xde;" horiz-adv-x="758" 
d="M70 15v670c0 12.667 4.5 23.5 13.5 32.5s20.167 13.5 33.5 13.5h90c13.333 0 24.5 -4.5 33.5 -13.5s13.5 -19.833 13.5 -32.5v-48h96c252 0 378 -95.667 378 -287s-126 -287 -378 -287h-96v-48c0 -12.667 -4.66699 -23.5 -14 -32.5s-20.333 -13.5 -33 -13.5h-90
c-12.667 0 -23.667 4.5 -33 13.5s-14 19.833 -14 32.5zM249 195h100c64 0 112.5 11.833 145.5 35.5s49.5 63.5 49.5 119.5s-16.5 95.833 -49.5 119.5s-81.5 35.5 -145.5 35.5h-100v-310z" />
    <glyph glyph-name="germandbls" unicode="&#xdf;" horiz-adv-x="783" 
d="M70 46v434.999c0 146 86 219 258 219h50c79.333 0 144.833 -15.667 196.5 -47s77.5 -78.666 77.5 -141.999c0 -26 -12.333 -51 -37 -75s-37 -44 -37 -60c0 -9.33301 6 -19.666 18 -30.999s26.5 -23.5 43.5 -36.5s34.167 -27 51.5 -42s32 -32.833 44 -53.5
s18 -42.334 18 -65.001c0 -54 -21.667 -93.833 -65 -119.5s-101.333 -38.5 -174 -38.5c-81.333 0 -143 10.833 -185 32.5s-63 57.5 -63 107.5c0 8.66699 2.83301 15.834 8.5 21.501s12.834 8.5 21.501 8.5h73c23.333 0 42 -8.66699 56 -26c18 -22 43.667 -33 77 -33
c26.667 0 47 4.16699 61 12.5s21 19.833 21 34.5c0 14 -6.5 27.667 -19.5 41s-28.833 25.666 -47.5 36.999l-56 35c-18.667 11.333 -34.5 25.166 -47.5 41.499s-19.5 33.833 -19.5 52.5c0 21.333 6.16699 39.333 18.5 54s24.666 28 36.999 40s18.5 25 18.5 39
c0 22.667 -8.33301 41.667 -25 57s-37.667 23 -63 23h-53c-26 0 -47.167 -8.16699 -63.5 -24.5s-24.5 -38.166 -24.5 -65.499v-432c0 -12.667 -4.5 -23.5 -13.5 -32.5s-19.833 -13.5 -32.5 -13.5h-77c-12.667 0 -23.5 4.5 -32.5 13.5s-13.5 19.833 -13.5 32.5z" />
    <glyph glyph-name="agrave" unicode="&#xe0;" horiz-adv-x="652" 
d="M96 289c41.333 28.667 96.333 42.998 165 42.998h162c0 38.667 -8.33301 65.334 -25 80.001c-14.667 14.667 -39.667 22 -75 22c-45.333 0 -77 -11 -95 -33c-14 -17.333 -32.667 -26 -56 -26h-73c-20 0 -30 10 -30 30c0 93.333 88.667 140 266 140
c77.333 0 138.333 -16.333 183 -49c49.333 -37.333 74 -92 74 -164v-302c0 -20 -10 -30 -30 -30h-94c-20 0 -30 10 -30 30v15c-50.667 -36.667 -109.667 -55 -177 -55s-122.333 14.667 -165 44c-44 30.667 -66 73.334 -66 128.001s22 97 66 127zM199 161.998
c0 -40.667 26.334 -61 79.001 -61c49.333 0 97.666 14.667 144.999 44v76h-150c-22 0 -40.333 -5.66699 -55 -17c-12.667 -10.667 -19 -24.667 -19 -42zM200.001 768.998c6.66699 13.333 20.667 19.999 42 19.999h44c30 0 51.333 -18.667 64 -56l24 -92
c2.66699 -9.33301 4 -17.333 4 -24c0 -21.333 -12 -32 -36 -32h-23c-22 0 -42 15.333 -60 46l-53 92c-6.66699 10.667 -10 20.334 -10 29.001c0 6 1.33301 11.667 4 17z" />
    <glyph glyph-name="aacute" unicode="&#xe1;" horiz-adv-x="652" 
d="M96 289c41.333 28.667 96.333 42.998 165 42.998h162c0 38.667 -8.33301 65.334 -25 80.001c-14.667 14.667 -39.667 22 -75 22c-45.333 0 -77 -11 -95 -33c-14 -17.333 -32.667 -26 -56 -26h-73c-20 0 -30 10 -30 30c0 93.333 88.667 140 266 140
c77.333 0 138.333 -16.333 183 -49c49.333 -37.333 74 -92 74 -164v-302c0 -20 -10 -30 -30 -30h-94c-20 0 -30 10 -30 30v15c-50.667 -36.667 -109.667 -55 -177 -55s-122.333 14.667 -165 44c-44 30.667 -66 73.334 -66 128.001s22 97 66 127zM199 161.998
c0 -40.667 26.334 -61 79.001 -61c49.333 0 97.666 14.667 144.999 44v76h-150c-22 0 -40.333 -5.66699 -55 -17c-12.667 -10.667 -19 -24.667 -19 -42zM297.001 640.998l24 92c12.667 37.333 34 56 64 56h44c21.333 0 35.333 -6.66699 42 -20c2.66699 -5.33301 4 -11 4 -17
c0 -9.33301 -3.33301 -19 -10 -29l-53 -92c-18 -30.667 -38 -46 -60 -46h-23c-24 0 -36 10.667 -36 32c0 6.66699 1.33301 14.667 4 24z" />
    <glyph glyph-name="acircumflex" unicode="&#xe2;" horiz-adv-x="652" 
d="M261 332h162.003c0 38 -8 64.5 -24 79.5s-41.333 22.5 -76 22.5c-45.333 0 -77 -11 -95 -33c-14 -17.333 -32.667 -26 -56 -26h-73c-8.66699 0 -15.834 2.83301 -21.501 8.5s-8.5 12.834 -8.5 21.501c0 93.333 88.667 140 266 140c77.333 0 139.5 -17.333 186.5 -52
s70.5 -88.334 70.5 -161.001v-302c0 -8.66699 -2.83301 -15.834 -8.5 -21.501s-12.834 -8.5 -21.501 -8.5h-94c-8.66699 0 -15.834 2.83301 -21.501 8.5s-8.5 12.834 -8.5 21.501v15c-51.333 -36.667 -110.333 -55 -177 -55c-68 0 -123.5 15 -166.5 45
s-64.5 72.333 -64.5 127s21.5 96.667 64.5 126s98.5 44 166.5 44zM140.003 599c-2 3.33301 -2.99805 7 -2.99805 11c0 6 3 11.667 9 17l76 70c30 28.667 54 43 72 43h60c18 0 42 -14.333 72 -43l77 -70c6 -5.33301 9 -11 9 -17c0 -4 -1 -7.66699 -3 -11
c-5.33301 -10 -14 -15 -26 -15h-71c-18.667 0 -42.334 13.667 -71.001 41l-17 15l-16 -15c-28.667 -27.333 -52.334 -41 -71.001 -41h-71c-12 0 -20.667 5 -26 15zM199.005 162c0 -18 6.83301 -32.667 20.5 -44s33.167 -17 58.5 -17c50 0 98.333 14.667 145 44v76h-150
c-22.667 0 -40.667 -5.5 -54 -16.5s-20 -25.167 -20 -42.5z" />
    <glyph glyph-name="atilde" unicode="&#xe3;" horiz-adv-x="652" 
d="M261 332h162.003c0 38 -8 64.5 -24 79.5s-41.333 22.5 -76 22.5c-45.333 0 -77 -11 -95 -33c-14 -17.333 -32.667 -26 -56 -26h-73c-8.66699 0 -15.834 2.83301 -21.501 8.5s-8.5 12.834 -8.5 21.501c0 93.333 88.667 140 266 140c77.333 0 139.5 -17.333 186.5 -52
s70.5 -88.334 70.5 -161.001v-302c0 -8.66699 -2.83301 -15.834 -8.5 -21.501s-12.834 -8.5 -21.501 -8.5h-94c-8.66699 0 -15.834 2.83301 -21.501 8.5s-8.5 12.834 -8.5 21.501v15c-51.333 -36.667 -110.333 -55 -177 -55c-68 0 -123.5 15 -166.5 45
s-64.5 72.333 -64.5 127s21.5 96.667 64.5 126s98.5 44 166.5 44zM159.003 600c0 42.667 10.501 75 31.501 97s45.5 33 73.5 33c20 0 42 -6.66699 66 -20s42 -20 54 -20s21.667 5.83301 29 17.5s15.666 17.5 24.999 17.5h40c10 0 15 -5 15 -15
c0 -42.667 -10.333 -75 -31 -97s-45 -33 -73 -33c-19.333 0 -41.333 6.66699 -66 20s-42.667 20 -54 20c-12 0 -21.833 -5.83301 -29.5 -17.5s-16.167 -17.5 -25.5 -17.5h-40c-10 0 -15 5 -15 15zM199.004 162c0 -18 6.83301 -32.667 20.5 -44s33.167 -17 58.5 -17
c50 0 98.333 14.667 145 44v76h-150c-22.667 0 -40.667 -5.5 -54 -16.5s-20 -25.167 -20 -42.5z" />
    <glyph glyph-name="adieresis" unicode="&#xe4;" horiz-adv-x="652" 
d="M96 289c41.333 28.667 96.333 42.998 165 42.998h162c0 38.667 -8.33301 65.334 -25 80.001c-14.667 14.667 -39.667 22 -75 22c-45.333 0 -77 -11 -95 -33c-14 -17.333 -32.667 -26 -56 -26h-73c-20 0 -30 10 -30 30c0 93.333 88.667 140 266 140
c77.333 0 138.333 -16.333 183 -49c49.333 -37.333 74 -92 74 -164v-302c0 -20 -10 -30 -30 -30h-94c-20 0 -30 10 -30 30v15c-50.667 -36.667 -109.667 -55 -177 -55s-122.333 14.667 -165 44c-44 30.667 -66 73.334 -66 128.001s22 97 66 127zM148 671.998v19
c0 37.333 18.667 56 56 56h47c37.333 0 56 -18.667 56 -56v-19c0 -37.333 -18.667 -56 -56 -56h-47c-37.333 0 -56 18.667 -56 56zM199 161.998c0 -40.667 26.334 -61 79.001 -61c49.333 0 97.666 14.667 144.999 44v76h-150c-22 0 -40.333 -5.66699 -55 -17
c-12.667 -10.667 -19 -24.667 -19 -42zM373.001 671.998v19c0 37.333 18.667 56 56 56h47c37.333 0 56 -18.667 56 -56v-19c0 -37.333 -18.667 -56 -56 -56h-47c-37.333 0 -56 18.667 -56 56z" />
    <glyph glyph-name="aring" unicode="&#xe5;" horiz-adv-x="652" 
d="M261 332h162.003c0 38 -8 64.5 -24 79.5s-41.333 22.5 -76 22.5c-45.333 0 -77 -11 -95 -33c-14 -17.333 -32.667 -26 -56 -26h-73c-8.66699 0 -15.834 2.83301 -21.501 8.5s-8.5 12.834 -8.5 21.501c0 93.333 88.667 140 266 140c77.333 0 139.5 -17.333 186.5 -52
s70.5 -88.334 70.5 -161.001v-302c0 -8.66699 -2.83301 -15.834 -8.5 -21.501s-12.834 -8.5 -21.501 -8.5h-94c-8.66699 0 -15.834 2.83301 -21.501 8.5s-8.5 12.834 -8.5 21.501v15c-51.333 -36.667 -110.333 -55 -177 -55c-68 0 -123.5 15 -166.5 45
s-64.5 72.333 -64.5 127s21.5 96.667 64.5 126s98.5 44 166.5 44zM199.003 162c0 -18 6.83301 -32.667 20.5 -44s33.167 -17 58.5 -17c50 0 98.333 14.667 145 44v76h-150c-22.667 0 -40.667 -5.5 -54 -16.5s-20 -25.167 -20 -42.5zM202.003 706
c0 41.333 13.333 73.333 40 96c24.667 22.667 57 34 97 34c39.333 0 71.333 -11.333 96 -34c26.667 -22.667 40 -54.667 40 -96c0 -40 -13.333 -72 -40 -96c-24.667 -22.667 -56.667 -34 -96 -34c-40 0 -72.333 11.333 -97 34c-26.667 24 -40 56 -40 96zM339.003 641
c34.667 0 52 21.667 52 65s-17.333 65 -52 65c-35.333 0 -53 -21.667 -53 -65s17.667 -65 53 -65z" />
    <glyph glyph-name="ae" unicode="&#xe6;" horiz-adv-x="1020" 
d="M30 162c0 54.667 21.499 96.668 64.499 126.001s98.5 44 166.5 44h162c0 38 -8 64.5 -24 79.5s-41.333 22.5 -76 22.5c-45.333 0 -77 -11 -95 -33c-14 -17.333 -32.667 -26 -56 -26h-73c-8.66699 0 -15.834 2.83301 -21.501 8.5s-8.5 12.834 -8.5 21.501
c0 93.333 82 140 246 140c83.333 0 148.333 -20.667 195 -62c50 41.333 115 62 195 62c90 0 160 -23.333 210 -70s75 -113.667 75 -201v-28c0 -8.66699 -2.83301 -15.834 -8.5 -21.501s-12.834 -8.5 -21.501 -8.5h-368c3.33301 -40 14.833 -69.167 34.5 -87.5
s49.834 -27.5 90.501 -27.5c46 0 78 11 96 33c14 17.333 32.667 26 56 26h73c8.66699 0 15.834 -2.83301 21.501 -8.5s8.5 -12.834 8.5 -21.501c0 -93.333 -85.667 -140 -257 -140c-83.333 0 -150.666 24.667 -201.999 74c-48 -49.333 -128.667 -74 -242 -74
c-72.667 0 -131 14.833 -175 44.5s-66 72.167 -66 127.5zM198.999 162.001c0 -18 6.83301 -32.667 20.5 -44s33.167 -17 58.5 -17c62.667 0 111 14.667 145 44v70c0 0.666992 -0.166992 1.66699 -0.5 3s-0.5 2.33301 -0.5 3h-149c-22.667 0 -40.667 -5.5 -54 -16.5
s-20 -25.167 -20 -42.5zM591.999 319.001h226c-3.33301 76.667 -41 115 -113 115c-68 0 -105.667 -34.667 -113 -104v-11z" />
    <glyph glyph-name="ccedilla" unicode="&#xe7;" horiz-adv-x="621" 
d="M30 267c0 91.333 25.168 160.502 75.501 207.502s121.833 70.5 214.5 70.5c87.333 0 155.166 -14.333 203.499 -43s72.5 -71 72.5 -127c0 -8.66699 -2.83301 -15.834 -8.5 -21.501s-12.834 -8.5 -21.501 -8.5h-73c-22 0 -40.667 12 -56 36
c-19.333 30.667 -54.333 46 -105 46c-46.667 0 -79.667 -12.5 -99 -37.5s-29 -65.833 -29 -122.5c0 -56 10 -96.5 30 -121.5s54.333 -37.5 103 -37.5c50.667 0 85.667 15.333 105 46c15.333 24 34 36 56 36h73c8.66699 0 15.834 -2.83301 21.501 -8.5
s8.5 -12.834 8.5 -21.501c0 -52 -20.833 -92.167 -62.5 -120.5s-101.167 -44.5 -178.5 -48.5v-30c72.667 -6 109 -37 109 -93c0 -70.667 -53 -106 -159 -106h-41c-13.333 0 -20 6.66699 -20 20v41c0 13.333 6.66699 20 20 20h41c43.333 0 65 8.33301 65 25
c0 17.333 -22 26 -66 26h-29c-13.333 0 -20 6.66699 -20 20v82c-153.333 22 -230 112.333 -230 271z" />
    <glyph glyph-name="egrave" unicode="&#xe8;" horiz-adv-x="630" 
d="M106 474c50.667 47.333 120.332 71 208.999 71c90 0 159.667 -23 209 -69c50.667 -46.667 76 -114 76 -202v-28c0 -20 -10 -30 -30 -30h-368c6.66699 -76.667 48.334 -115 125.001 -115c46 0 78 11 96 33c14 17.333 32.667 26 56 26h73c20 0 30 -10 30 -30
c0 -93.333 -89 -140 -267 -140c-90 0 -159.667 23.667 -209 71c-50.667 48 -76 116.667 -76 206s25.333 158.333 76 207zM189.998 769c6.66699 13.333 20.667 19.999 42 19.999h44c30 0 51.333 -18.667 64 -56l24 -92c2.66699 -9.33301 4 -17.333 4 -24
c0 -21.333 -12 -32 -36 -32h-23c-22 0 -42 15.333 -60 46l-53 92c-6.66699 10.667 -10 20.334 -10 29.001c0 6 1.33301 11.667 4 17zM200.998 318.999h227.001c-2.66699 76.667 -40.334 115 -113.001 115c-72 0 -110 -38.333 -114 -115z" />
    <glyph glyph-name="eacute" unicode="&#xe9;" horiz-adv-x="630" 
d="M106 474c50.667 47.333 120.332 71 208.999 71c90 0 159.667 -23 209 -69c50.667 -46.667 76 -114 76 -202v-28c0 -20 -10 -30 -30 -30h-368c6.66699 -76.667 48.334 -115 125.001 -115c46 0 78 11 96 33c14 17.333 32.667 26 56 26h73c20 0 30 -10 30 -30
c0 -93.333 -89 -140 -267 -140c-90 0 -159.667 23.667 -209 71c-50.667 48 -76 116.667 -76 206s25.333 158.333 76 207zM200.998 319h227.001c-2.66699 76.667 -40.334 115 -113.001 115c-72 0 -110 -38.333 -114 -115zM286.999 641l24 92c12.667 37.333 34 56 64 56h44
c21.333 0 35.333 -6.66699 42 -20c2.66699 -5.33301 4 -11 4 -17c0 -9.33301 -3.33301 -19 -10 -29l-53 -92c-18 -30.667 -38 -46 -60 -46h-23c-24 0 -36 10.667 -36 32c0 6.66699 1.33301 14.667 4 24z" />
    <glyph glyph-name="ecircumflex" unicode="&#xea;" horiz-adv-x="630" 
d="M315 545c90 0 160 -23.3311 210 -69.998s75 -113.667 75 -201v-28c0 -8.66699 -2.83301 -15.834 -8.5 -21.501s-12.834 -8.5 -21.501 -8.5h-368c3.33301 -40 14.833 -69.167 34.5 -87.5s49.834 -27.5 90.501 -27.5c46 0 78 11 96 33c14 17.333 32.667 26 56 26h73
c8.66699 0 15.834 -2.83301 21.501 -8.5s8.5 -12.834 8.5 -21.501c0 -93.333 -89 -140 -267 -140c-90 0 -160 23.833 -210 71.5s-75 116.167 -75 205.5s25.167 158 75.5 206s120.166 72 209.499 72zM130 602.002c-2 3.33301 -2.99805 6.66699 -2.99805 10c0 6 3 12 9 18
l76 70c30 28.667 54 43 72 43h60c18 0 42 -14.333 72 -43l77 -70c6 -6 9 -12 9 -18c0 -4 -1 -7.33301 -3 -10c-5.33301 -10 -14 -15 -26 -15h-71c-18.667 0 -42.334 13.667 -71.001 41l-17 15l-16 -15c-28.667 -27.333 -52.334 -41 -71.001 -41h-71c-12 0 -20.667 5 -26 15z
M201.002 319.003h227c-3.33301 76.667 -41 115 -113 115s-110 -38.333 -114 -115z" />
    <glyph glyph-name="edieresis" unicode="&#xeb;" horiz-adv-x="630" 
d="M315 545c90 0 160 -23.3311 210 -69.998s75 -113.667 75 -201v-28c0 -8.66699 -2.83301 -15.834 -8.5 -21.501s-12.834 -8.5 -21.501 -8.5h-368c3.33301 -40 14.833 -69.167 34.5 -87.5s49.834 -27.5 90.501 -27.5c46 0 78 11 96 33c14 17.333 32.667 26 56 26h73
c8.66699 0 15.834 -2.83301 21.501 -8.5s8.5 -12.834 8.5 -21.501c0 -93.333 -89 -140 -267 -140c-90 0 -160 23.833 -210 71.5s-75 116.167 -75 205.5s25.167 158 75.5 206s120.166 72 209.499 72zM113 655.002v19c0 17.333 5 31 15 41s23.667 15 41 15h47
c17.333 0 31 -5 41 -15s15 -23.667 15 -41v-19c0 -17.333 -5 -31 -15 -41s-23.667 -15 -41 -15h-47c-17.333 0 -31 5 -41 15s-15 23.667 -15 41zM201 319.002h227c-3.33301 76.667 -41 115 -113 115s-110 -38.333 -114 -115zM358 655.002v19c0 17.333 5 31 15 41
s23.667 15 41 15h47c17.333 0 31 -5 41 -15s15 -23.667 15 -41v-19c0 -17.333 -5 -31 -15 -41s-23.667 -15 -41 -15h-47c-17.333 0 -31 5 -41 15s-15 23.667 -15 41z" />
    <glyph glyph-name="igrave" unicode="&#xec;" horiz-adv-x="291" 
d="M19 769c6.66699 13.333 20.667 19.999 42 19.999h44c30 0 51.333 -18.667 64 -56l24 -92c2.66699 -9.33301 4 -17.333 4 -24c0 -21.333 -12 -32 -36 -32h-23c-22 0 -42 15.333 -60 46l-53 92c-6.66699 10.667 -10 20.334 -10 29.001c0 6 1.33301 11.667 4 17zM62 29.999
v463c0 20 10 30 30 30h109c20 0 30 -10 30 -30v-463c0 -20 -10 -30 -30 -30h-109c-20 0 -30 10 -30 30z" />
    <glyph glyph-name="iacute" unicode="&#xed;" horiz-adv-x="291" 
d="M60 30v463c0 20 10 30 30 30h109c20 0 30 -10 30 -30v-463c0 -20 -10 -30 -30 -30h-109c-20 0 -30 10 -30 30zM103 641l24 92c12.667 37.333 34 56 64 56h44c21.333 0 35.333 -6.66699 42 -20c2.66699 -5.33301 4 -11 4 -17c0 -9.33301 -3.33301 -19 -10 -29l-53 -92
c-18 -30.667 -38 -46 -60 -46h-23c-24 0 -36 10.667 -36 32c0 6.66699 1.33301 14.667 4 24z" />
    <glyph glyph-name="icircumflex" unicode="&#xee;" horiz-adv-x="315" 
d="M-27 602c-2 3.33301 -2.99805 6.66699 -2.99805 10c0 6 3 12 9 18l76 70c30 28.667 54 43 72 43h60c18 0 42 -14.333 72 -43l77 -70c6 -6 9 -12 9 -18c0 -4 -1 -7.33301 -3 -10c-5.33301 -10 -14 -15 -26 -15h-71c-18.667 0 -42.334 13.667 -71.001 41l-17 15l-16 -15
c-28.667 -27.333 -52.334 -41 -71.001 -41h-71c-12 0 -20.667 5 -26 15zM73.002 30.001v463c0 8.66699 2.83301 15.834 8.5 21.501s12.834 8.5 21.501 8.5h109c8.66699 0 15.834 -2.83301 21.501 -8.5s8.5 -12.834 8.5 -21.501v-463
c0 -8.66699 -2.83301 -15.834 -8.5 -21.501s-12.834 -8.5 -21.501 -8.5h-109c-8.66699 -0 -15.834 2.83301 -21.501 8.5s-8.5 12.834 -8.5 21.501z" />
    <glyph glyph-name="idieresis" unicode="&#xef;" horiz-adv-x="324" 
d="M-40 635v19c0 17.333 5 31 15 41s23.667 15 41 15h47c17.333 0 31 -5 41 -15s15 -23.667 15 -41v-19c0 -17.333 -5 -31 -15 -41s-23.667 -15 -41 -15h-47c-17.333 0 -31 5 -41 15s-15 23.667 -15 41zM77 30v463c0 8.66699 2.83301 15.834 8.5 21.501
s12.834 8.5 21.501 8.5h109c8.66699 0 15.834 -2.83301 21.501 -8.5s8.5 -12.834 8.5 -21.501v-463c0 -8.66699 -2.83301 -15.834 -8.5 -21.501s-12.834 -8.5 -21.501 -8.5h-109c-8.66699 0 -15.834 2.83301 -21.501 8.5s-8.5 12.834 -8.5 21.501zM205 635v19
c0 17.333 5 31 15 41s23.667 15 41 15h47c17.333 0 31 -5 41 -15s15 -23.667 15 -41v-19c0 -17.333 -5 -31 -15 -41s-23.667 -15 -41 -15h-47c-17.333 0 -31 5 -41 15s-15 23.667 -15 41z" />
    <glyph glyph-name="eth" unicode="&#xf0;" horiz-adv-x="648" 
d="M30 230c0 75.333 23.8311 134 71.498 176s108.5 63 182.5 63c90 0 153 -24.667 189 -74c-8 84.667 -50.333 149.667 -127 195l-44 -71c-6.66699 -10.667 -14.667 -16 -24 -16c-5.33301 0 -11.333 2 -18 6l-23 15c-7.33301 4.66699 -12 11 -14 19s-0.666992 15.667 4 23
l36 59c-36 10 -72.667 16.333 -110 19c-8.66699 0.666992 -13.667 3.83398 -15 9.50098s-0.666016 11.5 2.00098 17.5l7 41c2 9.33301 9 14 21 14c2 0 4.33301 -0.333008 7 -1c50 -3.33301 96 -10.333 138 -21l42 68c4.66699 7.33301 11 12 19 14h5
c6 0 11.667 -1.66699 17 -5l24 -15c7.33301 -4.66699 12 -11 14 -19s0.666992 -15.333 -4 -22l-32 -52c71.333 -33.333 125.833 -81.833 163.5 -145.5s56.5 -139.5 56.5 -227.5v-20c0 -84.667 -25.667 -154.167 -77 -208.5s-123.666 -81.5 -216.999 -81.5
c-96 0 -169 20.667 -219 62s-75 100.666 -75 177.999zM198.998 230c0 -41.333 10.833 -73.166 32.5 -95.499s52.5 -33.5 92.5 -33.5s70.833 11.167 92.5 33.5s32.5 54.166 32.5 95.499c0 40.667 -10.833 72.167 -32.5 94.5s-52.5 33.5 -92.5 33.5
s-70.833 -11.167 -92.5 -33.5s-32.5 -53.833 -32.5 -94.5z" />
    <glyph glyph-name="ntilde" unicode="&#xf1;" 
d="M60 30l0.00195312 475c0 8.66699 2.83301 15.834 8.5 21.501s12.834 8.5 21.501 8.5h109c8.66699 0 15.834 -2.83301 21.501 -8.5s8.5 -12.834 8.5 -21.501v-31c56 47.333 113 71 171 71c68.667 0 122.834 -19.333 162.501 -58s59.5 -97.667 59.5 -177v-280
c0 -8.66699 -2.83301 -15.834 -8.5 -21.501s-12.834 -8.5 -21.501 -8.5h-109c-8.66699 0 -15.834 2.83301 -21.501 8.5s-8.5 12.834 -8.5 21.501v280c0 78 -31 117 -93 117c-40.667 0 -84.334 -23.333 -131.001 -70v-327c0 -8.66699 -2.83301 -15.834 -8.5 -21.501
s-12.834 -8.5 -21.501 -8.5h-109c-8.66699 0 -15.834 2.83301 -21.501 8.5s-8.5 12.834 -8.5 21.501zM174.002 610c0 42.667 10.501 75 31.501 97s45.5 33 73.5 33c19.333 0 41.333 -6.66699 66 -20s42.667 -20 54 -20c12 0 21.667 5.83301 29 17.5s15.666 17.5 24.999 17.5
h40c10 0 15 -5 15 -15c0 -42.667 -10.333 -75 -31 -97s-45 -33 -73 -33c-20 0 -42 6.66699 -66 20s-42 20 -54 20s-21.833 -5.83301 -29.5 -17.5s-16.167 -17.5 -25.5 -17.5h-40c-10 0 -15 5 -15 15z" />
    <glyph glyph-name="ograve" unicode="&#xf2;" horiz-adv-x="650" 
d="M106 61c-50.667 46.667 -76 115.667 -76 207s25.333 160.333 76 207s123.667 70 219 70s168.333 -23.333 219 -70s76 -115.667 76 -207s-25.333 -160.5 -76 -207.5s-123.667 -70.5 -219 -70.5s-168.333 23.667 -219 71zM229 395c-20 -26.667 -29.999 -69 -29.999 -127
s10.167 -100.333 30.5 -127s52.166 -40 95.499 -40s75.166 13.333 95.499 40s30.5 69 30.5 127s-10.167 100.167 -30.5 126.5s-52.166 39.5 -95.499 39.5s-75.333 -13 -96 -39zM200.001 769c6.66699 13.333 20.667 19.999 42 19.999h44c30 0 51.333 -18.667 64 -56l24 -92
c2.66699 -9.33301 4 -17.333 4 -24c0 -21.333 -12 -32 -36 -32h-23c-22 0 -42 15.333 -60 46l-53 92c-6.66699 10.667 -10 20.334 -10 29.001c0 6 1.33301 11.667 4 17z" />
    <glyph glyph-name="oacute" unicode="&#xf3;" horiz-adv-x="650" 
d="M30 268c0 184.667 98.333 277 295 277s295 -92.333 295 -277c0 -91.333 -25.667 -160.666 -77 -207.999c-49.333 -46.667 -122 -70 -218 -70s-168.667 23.333 -218 70c-51.333 47.333 -77 116.666 -77 207.999zM199 268c0 -111.333 42 -167 126 -167s126 55.667 126 167
c0 110.667 -42 166 -126 166s-126 -55.333 -126 -166zM287 651l24 92.002c12.667 37.333 34 56 64 56h44c21.333 0 35.333 -7 42 -21c2.66699 -4.66699 4 -10 4 -16c0 -8.66699 -3.33301 -18.334 -10 -29.001l-53 -92c-18 -30.667 -38 -46 -60 -46h-23
c-24 0 -36 10.333 -36 31c0 7.33301 1.33301 15.666 4 24.999z" />
    <glyph glyph-name="ocircumflex" unicode="&#xf4;" horiz-adv-x="650" 
d="M106 61c-50.667 46.667 -76 115.667 -76 207s25.333 160.333 76 207s123.667 70 219 70s168.333 -23.333 219 -70s76 -115.667 76 -207s-25.333 -160.5 -76 -207.5s-123.667 -70.5 -219 -70.5s-168.333 23.667 -219 71zM145 622c-2 3.33301 -2.99805 6.66699 -2.99805 10
c0 6 3 12 9 18l76 70c30 28.667 54 43 72 43h60c18 0 42 -14.333 72 -43l77 -70c6 -6 9 -12 9 -18c0 -4 -1 -7.33301 -3 -10c-5.33301 -10 -14 -15 -26 -15h-71c-18.667 0 -42.334 13.667 -71.001 41l-17 15l-16 -15c-28.667 -27.333 -52.334 -41 -71.001 -41h-71
c-12 0 -20.667 5 -26 15zM229.002 395.001c-20 -26.667 -29.999 -69 -29.999 -127s10.167 -100.333 30.5 -127s52.166 -40 95.499 -40s75.166 13.333 95.499 40s30.5 69 30.5 127s-10.167 100.167 -30.5 126.5s-52.166 39.5 -95.499 39.5s-75.333 -13 -96 -39z" />
    <glyph glyph-name="otilde" unicode="&#xf5;" horiz-adv-x="650" 
d="M106 61c-50.667 46.667 -76 115.667 -76 207s25.333 160.333 76 207s123.667 70 219 70s168.333 -23.333 219 -70s76 -115.667 76 -207s-25.333 -160.5 -76 -207.5s-123.667 -70.5 -219 -70.5s-168.333 23.667 -219 71zM148 610c0 42.667 10.501 75 31.501 97
s45.5 33 73.5 33c19.333 0 41.333 -6.66699 66 -20s42.667 -20 54 -20c12 0 21.667 5.83301 29 17.5s15.666 17.5 24.999 17.5h40c10 0 15 -5 15 -15c0 -42.667 -10.333 -75 -31 -97s-45 -33 -73 -33c-20 0 -42 6.66699 -66 20s-42 20 -54 20s-21.833 -5.83301 -29.5 -17.5
s-16.167 -17.5 -25.5 -17.5h-40c-10 0 -15 5 -15 15zM229.001 395c-20 -26.667 -29.999 -69 -29.999 -127s10.167 -100.333 30.5 -127s52.166 -40 95.499 -40s75.166 13.333 95.499 40s30.5 69 30.5 127s-10.167 100.167 -30.5 126.5s-52.166 39.5 -95.499 39.5
s-75.333 -13 -96 -39z" />
    <glyph glyph-name="odieresis" unicode="&#xf6;" horiz-adv-x="650" 
d="M30 268c0 184.667 98.333 277 295 277s295 -92.333 295 -277c0 -91.333 -25.667 -160.666 -77 -207.999c-49.333 -46.667 -122 -70 -218 -70s-168.667 23.333 -218 70c-51.333 47.333 -77 116.666 -77 207.999zM131 657v19c0 37.333 18.667 56 56 56h47
c37.333 0 56 -18.667 56 -56v-19c0 -37.333 -18.667 -56 -56 -56h-47c-37.333 0 -56 18.667 -56 56zM199 268c0 -111.333 42 -167 126 -167s126 55.667 126 167c0 110.667 -42 166 -126 166s-126 -55.333 -126 -166zM376 657v19c0 37.333 18.667 56 56 56h47
c37.333 0 56 -18.667 56 -56v-19c0 -37.333 -18.667 -56 -56 -56h-47c-37.333 0 -56 18.667 -56 56z" />
    <glyph glyph-name="divide" unicode="&#xf7;" horiz-adv-x="618" 
d="M20 278v58c0 8.66699 2.83301 15.834 8.5 21.501s12.834 8.5 21.501 8.5h518c8.66699 0 15.834 -2.83301 21.501 -8.5s8.5 -12.834 8.5 -21.501v-58c0 -8.66699 -2.83301 -15.834 -8.5 -21.501s-12.834 -8.5 -21.501 -8.5h-518c-8.66699 0 -15.834 2.83301 -21.501 8.5
s-8.5 12.834 -8.5 21.501zM210 91v31c0 21.333 5.66699 37.666 17 48.999s27.666 17 48.999 17h60c21.333 0 37.666 -5.66699 48.999 -17s17 -27.666 17 -48.999v-31c0 -20.667 -5.66699 -36.834 -17 -48.501s-27.666 -17.5 -48.999 -17.5h-60
c-21.333 0 -37.666 5.83301 -48.999 17.5s-17 27.834 -17 48.501zM210 492v31c0 20.667 5.66699 36.834 17 48.501s27.666 17.5 48.999 17.5h60c21.333 0 37.666 -5.83301 48.999 -17.5s17 -27.834 17 -48.501v-31c0 -21.333 -5.66699 -37.666 -17 -48.999
s-27.666 -17 -48.999 -17h-60c-21.333 0 -37.666 5.66699 -48.999 17s-17 27.666 -17 48.999z" />
    <glyph glyph-name="oslash" unicode="&#xf8;" horiz-adv-x="662" 
d="M32 16l-2 6.00098c0 8 4 16 12 24l42 45c-32 44.667 -48 103.667 -48 177c0 91.333 25.333 160.333 76 207s123.667 70 219 70c50 0 98.333 -12.667 145 -38c13.333 18.667 35 28 65 28h62c15.333 0 24.333 -5 27 -15c0.666992 -2.66699 1 -5.33398 1 -8.00098
c0 -8 -3.66699 -15.667 -11 -23l-43 -46c32.667 -44.667 49 -103 49 -175c0 -91.333 -25.333 -160.5 -76 -207.5s-123.667 -70.5 -219 -70.5c-50 0 -98.333 12.667 -145 38c-13.333 -18.667 -35 -28 -65 -28h-62c-15.333 -0 -24.333 5.33301 -27 16zM205 268.001
c0 -12.667 0.666992 -27.667 2 -45l186 198c-16.667 8.66699 -37.334 13 -62.001 13c-43.333 0 -75.166 -13.167 -95.499 -39.5s-30.5 -68.5 -30.5 -126.5zM269 113.001c16.667 -8 37.334 -12 62.001 -12c43.333 0 75.166 13.333 95.499 40s30.5 69 30.5 127
c0 15.333 -1 30 -3 44z" />
    <glyph glyph-name="ugrave" unicode="&#xf9;" 
d="M60 225l-0.00195312 280c0 20 10 30 30 30h109c20 0 30 -10 30 -30v-280c0 -78 31 -117 93 -117c40.667 0 84.334 23.333 131.001 70v327c0 20 10 30 30 30h109c20 0 30 -10 30 -30v-475c0 -20 -10 -30 -30 -30h-109c-20 0 -30 10 -30 30v31
c-56.667 -47.333 -113.667 -71 -171 -71c-69.333 0 -122.666 18.333 -159.999 55c-41.333 41.333 -62 101.333 -62 180zM209.998 769c6.66699 13.333 20.667 19.999 42 19.999h44c30 0 51.333 -18.667 64 -56l24 -92c2.66699 -9.33301 4 -17.333 4 -24
c0 -21.333 -12 -32 -36 -32h-23c-22 0 -42 15.333 -60 46l-53 92c-6.66699 10.667 -10 20.334 -10 29.001c0 6 1.33301 11.667 4 17z" />
    <glyph glyph-name="uacute" unicode="&#xfa;" 
d="M60 225l-0.00195312 280c0 20 10 30 30 30h109c20 0 30 -10 30 -30v-280c0 -78 31 -117 93 -117c40.667 0 84.334 23.333 131.001 70v327c0 20 10 30 30 30h109c20 0 30 -10 30 -30v-475c0 -20 -10 -30 -30 -30h-109c-20 0 -30 10 -30 30v31
c-56.667 -47.333 -113.667 -71 -171 -71c-69.333 0 -122.666 18.333 -159.999 55c-41.333 41.333 -62 101.333 -62 180zM296.998 641l24 92c12.667 37.333 34 56 64 56h44c21.333 0 35.333 -6.66699 42 -20c2.66699 -5.33301 4 -11 4 -17c0 -9.33301 -3.33301 -19 -10 -29
l-53 -92c-18 -30.667 -38 -46 -60 -46h-23c-24 0 -36 10.667 -36 32c0 6.66699 1.33301 14.667 4 24z" />
    <glyph glyph-name="ucircumflex" unicode="&#xfb;" 
d="M60 225l-0.00195312 280c0 8.66699 2.83301 15.834 8.5 21.501s12.834 8.5 21.501 8.5h109c8.66699 0 15.834 -2.83301 21.501 -8.5s8.5 -12.834 8.5 -21.501v-280c0 -78 31 -117 93 -117c40.667 0 84.334 23.333 131.001 70v327c0 8.66699 2.83301 15.834 8.5 21.501
s12.834 8.5 21.501 8.5h109c8.66699 0 15.834 -2.83301 21.501 -8.5s8.5 -12.834 8.5 -21.501v-475c0 -8.66699 -2.83301 -15.834 -8.5 -21.501s-12.834 -8.5 -21.501 -8.5h-109c-8.66699 0 -15.834 2.83301 -21.501 8.5s-8.5 12.834 -8.5 21.501v31
c-56 -47.333 -113 -71 -171 -71c-68.667 0 -122.834 19.333 -162.501 58s-59.5 97.667 -59.5 177zM155.998 622c-2 3.33301 -2.99805 6.66699 -2.99805 10c0 6 3 12 9 18l76 70c30 28.667 54 43 72 43h60c18 0 42 -14.333 72 -43l77 -70c6 -6 9 -12 9 -18
c0 -4 -1 -7.33301 -3 -10c-5.33301 -10 -14 -15 -26 -15h-71c-18.667 0 -42.334 13.667 -71.001 41l-17 15l-16 -15c-28.667 -27.333 -52.334 -41 -71.001 -41h-71c-12 0 -20.667 5 -26 15z" />
    <glyph glyph-name="udieresis" unicode="&#xfc;" 
d="M60 225l-0.00195312 280c0 20 10 30 30 30h109c20 0 30 -10 30 -30v-280c0 -78 31 -117 93 -117c40.667 0 84.334 23.333 131.001 70v327c0 20 10 30 30 30h109c20 0 30 -10 30 -30v-475c0 -20 -10 -30 -30 -30h-109c-20 0 -30 10 -30 30v31
c-56.667 -47.333 -113.667 -71 -171 -71c-69.333 0 -122.666 18.333 -159.999 55c-41.333 41.333 -62 101.333 -62 180zM146.998 671v19c0 37.333 18.667 56 56 56h47c37.333 0 56 -18.667 56 -56v-19c0 -37.333 -18.667 -56 -56 -56h-47c-37.333 0 -56 18.667 -56 56z
M391.998 671v19c0.666992 37.333 19.334 56 56.001 56h47c37.333 0 56 -18.667 56 -56v-19c0 -37.333 -18.667 -56 -56 -56h-47c-36.667 0 -55.334 18.667 -56.001 56z" />
    <glyph glyph-name="yacute" unicode="&#xfd;" horiz-adv-x="632" 
d="M17 506c-1.33301 2.66699 -2.00098 5.33301 -2.00098 8c0 4.66699 1.66699 8.66699 5 12c5.33301 6 12 9 20 9h102c22.667 0 37.334 -11 44.001 -33l64 -207c28 -90 63.667 -135 107 -135l97 342c5.33301 22 19 33 41 33h103c8 0 14.333 -3 19 -9
c3.33301 -4 5 -8.66699 5 -14c0 -2 -0.333008 -4 -1 -6l-128 -456c-22.667 -80.667 -50.667 -138 -84 -172c-34 -35.333 -79.333 -53 -136 -53c-51.333 0 -93.666 3.33301 -126.999 10c-20 3.33301 -30 13.333 -30 30v54c0 20 10 30 30 30h18
c9.33301 0 19.666 -1.33301 30.999 -4c12.667 -2.66699 23.667 -4 33 -4c46 0 78 33.667 96 101c-54.667 0 -99.667 15.667 -135 47c-38.667 34.667 -71.667 95 -99 181zM284.999 650.999l24 92.002c12.667 37.333 34 56 64 56h44c21.333 0 35.333 -7 42 -21
c2.66699 -4.66699 4 -10 4 -16c0 -8.66699 -3.33301 -18.334 -10 -29.001l-53 -92c-18 -30.667 -38 -46 -60 -46h-23c-24 0 -36 10.333 -36 31c0 7.33301 1.33301 15.666 4 24.999z" />
    <glyph glyph-name="thorn" unicode="&#xfe;" horiz-adv-x="662" 
d="M60 -135v805c0 8.66699 2.83301 15.834 8.5 21.501s12.834 8.5 21.501 8.5h109c8.66699 0 15.834 -2.83301 21.501 -8.5s8.5 -12.834 8.5 -21.501v-150c52.667 16.667 99.667 25 141 25c80 0 143.667 -23.667 191 -71s71 -116 71 -206s-23.667 -158.833 -71 -206.5
s-111 -71.5 -191 -71.5c-41.333 0 -88.333 8.33301 -141 25v-150c0 -8.66699 -2.83301 -15.834 -8.5 -21.501s-12.834 -8.5 -21.501 -8.5h-109c-8.66699 0 -15.834 2.83301 -21.501 8.5s-8.5 12.834 -8.5 21.501zM229 128c42 -13.333 77.333 -20 106 -20
c44.667 0 76.334 12.667 95.001 38s28 66 28 122s-9.33301 96.5 -28 121.5s-50.334 37.5 -95.001 37.5c-28.667 0 -64 -6.66699 -106 -20v-279z" />
    <glyph glyph-name="ydieresis" unicode="&#xff;" horiz-adv-x="632" 
d="M17 506c-0.666992 2.66699 -1.00098 5.00195 -1.00098 7.00195c0 4.66699 1.66699 9 5 13c4.66699 6 11 9 19 9h102c9.33301 0 18.333 -3.16699 27 -9.5s14.334 -14.166 17.001 -23.499l64 -207c16 -50.667 32.167 -85.834 48.5 -105.501s35.833 -29.5 58.5 -29.5l97 342
c2.66699 9.33301 7.83398 17.166 15.501 23.499s16.167 9.5 25.5 9.5h103c8 0 14.333 -3 19 -9c3.33301 -4 5 -8.66699 5 -14c0 -2 -0.333008 -4 -1 -6l-128 -456c-22.667 -80.667 -50.834 -138.334 -84.501 -173.001s-78.834 -52 -135.501 -52
c-49.333 0 -91.666 3.33301 -126.999 10c-8.66699 1.33301 -15.834 4.83301 -21.501 10.5s-8.5 12.167 -8.5 19.5v54c0 8.66699 2.83301 15.834 8.5 21.501s12.834 8.5 21.501 8.5h18c7.33301 0 17.833 -1.33301 31.5 -4s24.5 -4 32.5 -4c46 0 78 33.667 96 101
c-55.333 0 -101.5 16.667 -138.5 50s-68.833 92.666 -95.5 177.999zM123.999 635.002v19c0 17.333 5 31 15 41s23.667 15 41 15h47c17.333 0 31 -5 41 -15s15 -23.667 15 -41v-19c0 -17.333 -5 -31 -15 -41s-23.667 -15 -41 -15h-47c-17.333 0 -31 5 -41 15
s-15 23.667 -15 41zM368.999 635.002v19c0 17.333 5 31 15 41s23.667 15 41 15h47c17.333 0 31 -5 41 -15s15 -23.667 15 -41v-19c0 -17.333 -5 -31 -15 -41s-23.667 -15 -41 -15h-47c-17.333 0 -31 5 -41 15s-15 23.667 -15 41z" />
    <glyph glyph-name="Ccaron" unicode="&#x10c;" horiz-adv-x="817" 
d="M392 704l109 -0.000976562c74 0 139.333 -19.167 196 -57.5s85 -90.833 85 -157.5c0 -19.333 -5.66699 -33.166 -17 -41.499s-22.333 -12.5 -33 -12.5h-58c-30 0 -53.333 18 -70 54c-24 51.333 -64 77 -120 77h-87c-71.333 0 -119.666 -15.333 -144.999 -46
s-38 -87.334 -38 -170.001s12.667 -139.334 38 -170.001s73.666 -46 144.999 -46h97c56 0 96 25.667 120 77c16.667 36 40 54 70 54h58c6 0 12.333 -1.16699 19 -3.5s13.5 -8 20.5 -17s10.5 -20.167 10.5 -33.5c0 -66.667 -28.333 -119.167 -85 -157.5
s-122 -57.5 -196 -57.5h-119c-120.667 0 -211.167 28.833 -271.5 86.5s-90.5 146.834 -90.5 267.501s30.167 209.834 90.5 267.501s150.833 86.5 271.5 86.5zM234 882.999c5.33301 10 13.998 15 25.998 15h71c18.667 0 42.334 -13.667 71.001 -41l16 -15l17 15
c28.667 27.333 52.334 41 71.001 41h71c12 0 20.667 -5 26 -15c2 -4 3 -7.33301 3 -10c0 -6.66699 -3 -12.667 -9 -18l-77 -70c-30 -28.667 -54 -43 -72 -43h-60c-18 0 -42 14.333 -72 43l-76 70c-6 5.33301 -9 11.333 -9 18c0 2.66699 1 6 3 10z" />
    <glyph glyph-name="ccaron" unicode="&#x10d;" horiz-adv-x="621" 
d="M30 267c0 91.333 25.167 160.502 75.5 207.502s121.833 70.5 214.5 70.5c87.333 0 155.166 -14.333 203.499 -43s72.5 -71 72.5 -127c0 -8.66699 -2.83301 -15.834 -8.5 -21.501s-12.834 -8.5 -21.501 -8.5h-73c-22 0 -40.667 12 -56 36
c-19.333 30.667 -54.333 46 -105 46c-46.667 0 -79.667 -12.5 -99 -37.5s-29 -65.833 -29 -122.5c0 -56 10 -96.5 30 -121.5s54.333 -37.5 103 -37.5c50.667 0 85.667 15.333 105 46c15.333 24 34 36 56 36h73c8.66699 0 15.834 -2.83301 21.501 -8.5
s8.5 -12.834 8.5 -21.501c0 -56 -24.167 -98.333 -72.5 -127s-116.166 -43 -203.499 -43c-95.333 0 -168.333 23.5 -219 70.5s-76 115.833 -76 206.5zM155 729.002c5.33301 9.33301 13.998 14 25.998 14h71c18.667 0 42.334 -13.667 71.001 -41l16 -15l17 15
c28.667 27.333 52.334 41 71.001 41h71c12 0 20.667 -4.66699 26 -14c2 -4 3 -7.66699 3 -11c0 -6 -3 -12 -9 -18l-77 -70c-30 -28.667 -54 -43 -72 -43h-60c-18 0 -42 14.333 -72 43l-76 70c-6 6 -9 12 -9 18c0 3.33301 1 7 3 11z" />
    <glyph glyph-name="Dcaron" unicode="&#x10e;" horiz-adv-x="824" 
d="M70 45v607.999c0 13.333 4.5 24.5 13.5 33.5s19.833 13.5 32.5 13.5h273c141.333 0 244.166 -28.167 308.499 -84.5s96.5 -144.833 96.5 -265.5s-32.167 -209.167 -96.5 -265.5s-167.166 -84.5 -308.499 -84.5h-273c-12.667 0 -23.5 4.33301 -32.5 13
s-13.5 19.334 -13.5 32.001zM227 892.999c5.33301 10 13.998 15 25.998 15h71c18.667 0 42.334 -13.667 71.001 -41l16 -15l17 15c28.667 27.333 52.334 41 71.001 41h71c12 0 20.667 -5 26 -15s3.33301 -19.333 -6 -28l-77 -70c-30 -28.667 -54 -43 -72 -43h-60
c-18 0 -42 14.333 -72 43l-76 70c-6 6 -9 11.667 -9 17c0 4 1 7.66699 3 11zM253.998 137.999h130c87.333 0 146.833 16 178.5 48s47.5 86.667 47.5 164s-15.833 132 -47.5 164s-91.167 48 -178.5 48h-130v-424z" />
    <glyph glyph-name="dcaron" unicode="&#x10f;" horiz-adv-x="760" 
d="M30 267c0 90 24.333 159.333 73 208c46 46.667 109 70 189 70c42 0 89 -8.33301 141 -25v150c0 20 10 30 30 30h109c20 0 30 -10 30 -30v-640c0 -20 -10 -30 -30 -30h-94c-20 0 -30 10 -30 30v15c-50.667 -36.667 -107.667 -55 -171 -55
c-73.333 0 -132.333 23.333 -177 70c-46.667 48.667 -70 117.667 -70 207zM204 267c0 -55.333 8.99902 -95.666 26.999 -120.999c17.333 -25.333 46 -38 86 -38c30 0 68.667 14.667 116 44v255c-43.333 13.333 -78.666 20 -105.999 20c-44 0 -75.667 -12.667 -95 -38
c-18.667 -24.667 -28 -65.334 -28 -122.001zM653.999 479l2 165c0 14.667 4.5 27.667 13.5 39s20.167 17 33.5 17h39c17.333 0 30.666 -5 39.999 -15c6.66699 -8 10 -17.667 10 -29c0 -4 -0.333008 -7.66699 -1 -11l-34 -176c-5.33301 -24 -21.666 -36 -48.999 -36h-14
c-14 0 -24.167 3.5 -30.5 10.5s-9.5 18.833 -9.5 35.5z" />
    <glyph glyph-name="Ecaron" unicode="&#x11a;" horiz-adv-x="745" 
d="M70 47l-0.000976562 608c0 12.667 4.5 23.334 13.5 32.001s19.833 13 32.5 13h563c12.667 0 23.5 -4.5 32.5 -13.5s13.5 -19.833 13.5 -32.5v-46c0 -12.667 -4.5 -23.5 -13.5 -32.5s-19.833 -13.5 -32.5 -13.5h-425v-142h366c12.667 0 23.5 -4.5 32.5 -13.5
s13.5 -19.833 13.5 -32.5v-46c0 -12.667 -4.5 -23.5 -13.5 -32.5s-19.833 -13.5 -32.5 -13.5h-366v-144h424c12.667 0 23.334 -4.33301 32.001 -13s13 -19.334 13 -32.001v-47c0 -12.667 -4.5 -23.5 -13.5 -32.5s-19.833 -13.5 -32.5 -13.5h-561
c-12.667 0 -23.5 4.5 -32.5 13.5s-13.5 20.167 -13.5 33.5zM207.999 883c5.33301 10 13.998 15 25.998 15h71c18.667 0 42.334 -13.667 71.001 -41l16 -15l17 15c28.667 27.333 52.334 41 71.001 41h71c12 0 20.667 -5 26 -15c2 -4 3 -7.33301 3 -10
c0 -6.66699 -3 -12.667 -9 -18l-77 -70c-30 -28.667 -54 -43 -72 -43h-60c-18 0 -42 14.333 -72 43l-76 70c-6 5.33301 -9 11.333 -9 18c0 2.66699 1 6 3 10z" />
    <glyph glyph-name="ecaron" unicode="&#x11b;" horiz-adv-x="630" 
d="M315 545c90 0 160 -23.3311 210 -69.998s75 -113.667 75 -201v-28c0 -8.66699 -2.83301 -15.834 -8.5 -21.501s-12.834 -8.5 -21.501 -8.5h-368c3.33301 -40 14.833 -69.167 34.5 -87.5s49.834 -27.5 90.501 -27.5c46 0 78 11 96 33c14 17.333 32.667 26 56 26h73
c8.66699 0 15.834 -2.83301 21.501 -8.5s8.5 -12.834 8.5 -21.501c0 -93.333 -89 -140 -267 -140c-90 0 -160 23.833 -210 71.5s-75 116.167 -75 205.5s25.167 158 75.5 206s120.166 72 209.499 72zM146 729.002c5.33301 9.33301 13.998 14 25.998 14h71
c18.667 0 42.334 -13.667 71.001 -41l16 -15l17 15c28.667 27.333 52.334 41 71.001 41h71c12 0 20.667 -4.66699 26 -14c2 -4 3 -7.66699 3 -11c0 -6 -3 -12 -9 -18l-77 -70c-30 -28.667 -54 -43 -72 -43h-60c-18 0 -42 14.333 -72 43l-76 70c-6 6 -9 12 -9 18
c0 3.33301 1 7 3 11zM200.998 319.002h227c-3.33301 76.667 -41 115 -113 115s-110 -38.333 -114 -115z" />
    <glyph glyph-name="hbar" unicode="&#x127;" horiz-adv-x="729" 
d="M10 545l0.00195312 53c0 8.66699 2.83301 15.834 8.5 21.501s12.834 8.5 21.501 8.5h67v42c0 8.66699 2.83301 15.834 8.5 21.501s12.834 8.5 21.501 8.5h109c8.66699 0 15.834 -2.83301 21.501 -8.5s8.5 -12.834 8.5 -21.501v-42h77
c8.66699 0 15.834 -2.83301 21.501 -8.5s8.5 -12.834 8.5 -21.501v-53c0 -8.66699 -2.83301 -15.834 -8.5 -21.501s-12.834 -8.5 -21.501 -8.5h-77v-111c56 47.333 113 71 171 71c68.667 0 122.834 -19.333 162.501 -58s59.5 -97.667 59.5 -177v-210
c0 -8.66699 -2.83301 -15.834 -8.5 -21.501s-12.834 -8.5 -21.501 -8.5h-109c-8.66699 0 -15.834 2.83301 -21.501 8.5s-8.5 12.834 -8.5 21.501v210c0 78 -31 117 -93 117c-40.667 0 -84.334 -23.333 -131.001 -70v-257c0 -8.66699 -2.83301 -15.834 -8.5 -21.501
s-12.834 -8.5 -21.501 -8.5h-109c-8.66699 0 -15.834 2.83301 -21.501 8.5s-8.5 12.834 -8.5 21.501v485h-67c-8.66699 0 -15.834 2.83301 -21.501 8.5s-8.5 12.834 -8.5 21.501z" />
    <glyph glyph-name="Itilde" unicode="&#x128;" horiz-adv-x="324" 
d="M-5 775c0 42.667 10.501 75 31.501 97s45.5 33 73.5 33c20 0 42 -6.66699 66 -20s42 -20 54 -20s21.667 5.83301 29 17.5s15.666 17.5 24.999 17.5h40c10 0 15 -5 15 -15c0 -42.667 -10.333 -75 -31 -97s-45 -33 -73 -33c-19.333 0 -41.333 6.66699 -66 20
s-42.667 20 -54 20c-12 0 -21.833 -5.83301 -29.5 -17.5s-16.167 -17.5 -25.5 -17.5h-40c-10 0 -15 5 -15 15zM70.001 45v608.999c0 12.667 4.5 23.5 13.5 32.5s19.833 13.5 32.5 13.5h91c13.333 0 24.5 -4.5 33.5 -13.5s13.5 -19.833 13.5 -32.5v-608
c0 -12.667 -4.66699 -23.5 -14 -32.5s-20.333 -13.5 -33 -13.5h-91c-12.667 0 -23.5 4.33301 -32.5 13s-13.5 19.334 -13.5 32.001z" />
    <glyph glyph-name="itilde" unicode="&#x129;" horiz-adv-x="314" 
d="M-10 600c0 42.667 10.501 75 31.501 97s45.5 33 73.5 33c19.333 0 41.333 -6.66699 66 -20s42.667 -20 54 -20c12 0 21.667 5.83301 29 17.5s15.666 17.5 24.999 17.5h40c10 0 15 -5 15 -15c0 -42.667 -10.333 -75 -31 -97s-45 -33 -73 -33c-20 0 -42 6.66699 -66 20
s-42 20 -54 20s-21.833 -5.83301 -29.5 -17.5s-16.167 -17.5 -25.5 -17.5h-40c-10 0 -15 5 -15 15zM72.001 30v463c0 8.66699 2.83301 15.834 8.5 21.501s12.834 8.5 21.501 8.5h109c8.66699 0 15.834 -2.83301 21.501 -8.5s8.5 -12.834 8.5 -21.501v-463
c0 -8.66699 -2.83301 -15.834 -8.5 -21.501s-12.834 -8.5 -21.501 -8.5h-109c-8.66699 0 -15.834 2.83301 -21.501 8.5s-8.5 12.834 -8.5 21.501z" />
    <glyph glyph-name="dotlessi" unicode="&#x131;" horiz-adv-x="309" 
d="M70 30v475c0 8.66699 2.83301 15.834 8.5 21.501s12.834 8.5 21.501 8.5h109c8.66699 0 15.834 -2.83301 21.501 -8.5s8.5 -12.834 8.5 -21.501v-475c0 -8.66699 -2.83301 -15.834 -8.5 -21.501s-12.834 -8.5 -21.501 -8.5h-109c-8.66699 0 -15.834 2.83301 -21.501 8.5
s-8.5 12.834 -8.5 21.501z" />
    <glyph glyph-name="ij" unicode="&#x133;" horiz-adv-x="594" 
d="M60 637v17c0 17.333 5 31 15 41s23.667 15 41 15h61c17.333 0 31 -5 41 -15s15 -23.667 15 -41v-17c0 -17.333 -5 -31 -15 -41s-23.667 -15 -41 -15h-61c-17.333 0 -31 5 -41 15s-15 23.667 -15 41zM62 30v463c0 8.66699 2.83301 15.834 8.5 21.501
s12.834 8.5 21.501 8.5h109c8.66699 0 15.834 -2.83301 21.501 -8.5s8.5 -12.834 8.5 -21.501v-463c0 -8.66699 -2.83301 -15.834 -8.5 -21.501s-12.834 -8.5 -21.501 -8.5h-109c-8.66699 0 -15.834 2.83301 -21.501 8.5s-8.5 12.834 -8.5 21.501zM193 -82
c0 8.66699 2.83105 15.833 8.49805 21.5s12.834 8.5 21.501 8.5h15c6 0 14.167 -1.16699 24.5 -3.5s18.833 -3.5 25.5 -3.5c18 0 33.333 9 46 27s19 47 19 87v438c0 8.66699 2.83301 15.834 8.5 21.501s12.834 8.5 21.501 8.5h109c8.66699 0 15.834 -2.83301 21.501 -8.5
s8.5 -12.834 8.5 -21.501v-438c0 -153.333 -63 -230 -189 -230c-44.667 0 -81.334 3.33301 -110.001 10c-20 4.66699 -30 14.667 -30 30v53zM350.998 636.999v17c0 17.333 5 31 15 41s23.667 15 41 15h61c17.333 0 31 -5 41 -15s15 -23.667 15 -41v-17
c0 -17.333 -5 -31 -15 -41s-23.667 -15 -41 -15h-61c-17.333 0 -31 5 -41 15s-15 23.667 -15 41z" />
    <glyph glyph-name="Jcircumflex" unicode="&#x134;" horiz-adv-x="553" 
d="M0 46l0.000976562 54.999c0 12.667 4.33301 23.5 13 32.5s19.667 13.5 33 13.5h16c8.66699 0 22 -1.5 40 -4.5s32 -4.5 42 -4.5h35c45.333 0 78.166 9.33301 98.499 28s30.5 50 30.5 94v394c0 12.667 4.5 23.5 13.5 32.5s19.833 13.5 32.5 13.5h91
c13.333 0 24.5 -4.5 33.5 -13.5s13.5 -19.833 13.5 -32.5v-393c0 -83.333 -27.667 -147.666 -83 -192.999s-130.333 -68 -225 -68h-138c-12.667 0 -23.5 4.5 -32.5 13.5s-13.5 19.833 -13.5 32.5zM211.001 774.999c-2 4 -2.99805 7.66699 -2.99805 11c0 6 3 12 9 18l76 70
c30 28.667 54 43 72 43h60c18 0 42 -14.333 72 -43l77 -70c6 -6 9 -12 9 -18c0 -3.33301 -1 -7 -3 -11c-5.33301 -9.33301 -14 -14 -26 -14h-71c-18.667 0 -42.334 13.667 -71.001 41l-17 15l-16 -15c-28.667 -27.333 -52.334 -41 -71.001 -41h-71
c-12 0 -20.667 4.66699 -26 14z" />
    <glyph glyph-name="jcircumflex" unicode="&#x135;" horiz-adv-x="318" 
d="M-80 -82c0 8.66699 2.83105 15.833 8.49805 21.5s12.834 8.5 21.501 8.5h15c6 0 14.167 -1.16699 24.5 -3.5s18.833 -3.5 25.5 -3.5c18 0 33.333 9 46 27s19 47 19 87v438c0 8.66699 2.83301 15.834 8.5 21.501s12.834 8.5 21.501 8.5h109
c8.66699 0 15.834 -2.83301 21.501 -8.5s8.5 -12.834 8.5 -21.501v-438c0 -153.333 -63 -230 -189 -230c-44.667 0 -81.334 3.33301 -110.001 10c-20 4.66699 -30 14.667 -30 30v53zM-24.002 590.999c-2 4 -2.99902 7.66699 -2.99902 11c0 6 3 12 9 18l76 70
c30 28.667 54 43 72 43h60c18 0 42 -14.333 72 -43l77 -70c6 -6 9 -12 9 -18c0 -3.33301 -1 -7 -3 -11c-5.33301 -9.33301 -14 -14 -26 -14h-71c-18.667 0 -42.334 13.667 -71.001 41l-17 15l-16 -15c-28 -27.333 -51.667 -41 -71 -41h-71c-12 0 -20.667 4.66699 -26 14z
" />
    <glyph glyph-name="kcommaaccent" unicode="&#x137;" horiz-adv-x="610" 
d="M60 30l-0.000976562 640c0 8.66699 2.83301 15.834 8.5 21.501s12.834 8.5 21.501 8.5h109c8.66699 0 15.834 -2.83301 21.501 -8.5s8.5 -12.834 8.5 -21.501v-347c56.667 0 95.334 22 116.001 66l47 100c6.66699 14 16.334 25.167 29.001 33.5s26.334 12.5 41.001 12.5
h92c16.667 0 25 -6.33301 25 -19c0 -7.33301 -2.66699 -16.333 -8 -27l-63 -133c-10.667 -22 -25.334 -41 -44.001 -57s-38.667 -26.333 -60 -31c40 -12 74.667 -41.333 104 -88l83 -134c5.33301 -9.33301 8.33301 -17.666 9 -24.999
c0 -2.66699 -0.666992 -5.33398 -2 -8.00098c-3.33301 -8.66699 -11.333 -13 -24 -13h-92c-31.333 -0 -56.333 15.333 -75 46l-62 101c-26.667 43.333 -65.334 65 -116.001 65v-182c0 -8.66699 -2.83301 -15.834 -8.5 -21.501s-12.834 -8.5 -21.501 -8.5h-109
c-8.66699 0 -15.834 2.83301 -21.501 8.5s-8.5 12.834 -8.5 21.501zM255.999 -181l1.99902 135c0 14.667 4.5 27.667 13.5 39s20.167 17 33.5 17h39c17.333 0 30.333 -5 39 -15c7.33301 -8 11 -17.667 11 -29c0 -4 -0.333008 -7.66699 -1 -11l-34 -146
c-5.33301 -24 -21.666 -36 -48.999 -36h-14c-14 0 -24.167 3.5 -30.5 10.5s-9.5 18.833 -9.5 35.5z" />
    <glyph glyph-name="kgreenlandic" unicode="&#x138;" horiz-adv-x="610" 
d="M60 30l-0.000976562 475c0 8.66699 2.83301 15.834 8.5 21.501s12.834 8.5 21.501 8.5h109c8.66699 0 15.834 -2.83301 21.501 -8.5s8.5 -12.834 8.5 -21.501v-182c56.667 0 95.334 22 116.001 66l47 100c6.66699 14 16.334 25.167 29.001 33.5s26.334 12.5 41.001 12.5
h92c16.667 0 25 -6.33301 25 -19c0 -7.33301 -2.66699 -16.333 -8 -27l-63 -133c-10.667 -22 -25.334 -41 -44.001 -57s-38.667 -26.333 -60 -31c40 -12 74.667 -41.333 104 -88l83 -134c5.33301 -9.33301 8.33301 -17.666 9 -24.999
c0 -2.66699 -0.666992 -5.33398 -2 -8.00098c-3.33301 -8.66699 -11.333 -13 -24 -13h-92c-31.333 -0 -56.333 15.333 -75 46l-62 101c-26.667 43.333 -65.334 65 -116.001 65v-182c0 -8.66699 -2.83301 -15.834 -8.5 -21.501s-12.834 -8.5 -21.501 -8.5h-109
c-8.66699 0 -15.834 2.83301 -21.501 8.5s-8.5 12.834 -8.5 21.501z" />
    <glyph glyph-name="Lacute" unicode="&#x139;" horiz-adv-x="735" 
d="M70 45l0.000976562 608c0 13.333 4.33301 24.333 13 33c9.33301 9.33301 20.333 14 33 14h92c12.667 0 23.667 -4.66699 33 -14c8.66699 -8.66699 13 -19.667 13 -33v-515h425c12.667 0 23.334 -4.33301 32.001 -13c9.33301 -9.33301 14 -20.333 14 -33v-46
c0 -12.667 -4.66699 -23.667 -14 -33c-8.66699 -8.66699 -19.334 -13 -32.001 -13h-563c-12.667 -0 -23.334 4.33301 -32.001 13c-9.33301 9.33301 -14 20 -14 32zM117.001 811l24 92c12.667 37.333 34 56 64 56h44c21.333 0 35.333 -7 42 -21c2.66699 -4.66699 4 -10 4 -16
c0 -9.33301 -3.33301 -19 -10 -29l-53 -92c-18 -30.667 -38 -46 -60 -46h-23c-24 0 -36 10.667 -36 32c0 6.66699 1.33301 14.667 4 24z" />
    <glyph glyph-name="lacute" unicode="&#x13a;" horiz-adv-x="289" 
d="M60 30v640c0 20 10 30 30 30h109c20 0 30 -10 30 -30v-640c0 -20 -10 -30 -30 -30h-109c-20 0 -30 10 -30 30zM107 821l24 92.001c12.667 37.333 34 56 64 56h44c21.333 0 35.333 -6.66699 42 -20c2.66699 -5.33301 4 -11 4 -17c0 -9.33301 -3.33301 -19 -10 -29l-53 -92
c-18 -30.667 -38 -46 -60 -46h-23c-24 0 -36 10.333 -36 31c0 7.33301 1.33301 15.666 4 24.999z" />
    <glyph glyph-name="Lcaron" unicode="&#x13d;" horiz-adv-x="735" 
d="M70 45l0.000976562 608c0 13.333 4.33301 24.333 13 33c9.33301 9.33301 20.333 14 33 14h92c12.667 0 23.667 -4.66699 33 -14c8.66699 -8.66699 13 -19.667 13 -33v-515h425c12.667 0 23.334 -4.33301 32.001 -13c9.33301 -9.33301 14 -20.333 14 -33v-46
c0 -12.667 -4.66699 -23.667 -14 -33c-8.66699 -8.66699 -19.334 -13 -32.001 -13h-563c-12.667 -0 -23.334 4.33301 -32.001 13c-9.33301 9.33301 -14 20 -14 32zM308.001 479l2 165c0 14.667 4.5 27.667 13.5 39s20.167 17 33.5 17h39c17.333 0 30.666 -5 39.999 -15
c6.66699 -8 10 -17.667 10 -29c0 -4 -0.333008 -7.66699 -1 -11l-34 -176c-5.33301 -24 -21.666 -36 -48.999 -36h-14c-14 0 -24.167 3.5 -30.5 10.5s-9.5 18.833 -9.5 35.5z" />
    <glyph glyph-name="lcaron" unicode="&#x13e;" horiz-adv-x="390" 
d="M60 30v640c0 20 10 30 30 30h109c20 0 30 -10 30 -30v-640c0 -20 -10 -30 -30 -30h-109c-20 0 -30 10 -30 30zM284 479l2 165c0 14.667 4.5 27.667 13.5 39s20.167 17 33.5 17h39c17.333 0 30.666 -5 39.999 -15c6.66699 -8 10 -17.667 10 -29
c0 -4 -0.333008 -7.66699 -1 -11l-34 -176c-5.33301 -24 -21.666 -36 -48.999 -36h-14c-14 0 -24.167 3.5 -30.5 10.5s-9.5 18.833 -9.5 35.5z" />
    <glyph glyph-name="ldot" unicode="&#x140;" horiz-adv-x="470" 
d="M60 30v640c0 8.66699 2.83301 15.834 8.5 21.501s12.834 8.5 21.501 8.5h109c8.66699 0 15.834 -2.83301 21.501 -8.5s8.5 -12.834 8.5 -21.501v-640c0 -8.66699 -2.83301 -15.834 -8.5 -21.501s-12.834 -8.5 -21.501 -8.5h-109c-8.66699 0 -15.834 2.83301 -21.501 8.5
s-8.5 12.834 -8.5 21.501zM281 317v19c0 37.333 18.667 56 56 56h47c37.333 0 56 -18.667 56 -56v-19c0 -37.333 -18.667 -56 -56 -56h-47c-37.333 0 -56 18.667 -56 56z" />
    <glyph glyph-name="Lslash" unicode="&#x141;" horiz-adv-x="765" 
d="M0 238v77.999c0 17.333 10 30.666 30 39.999l70 34v263c0 13.333 4.5 24.5 13.5 33.5s19.833 13.5 32.5 13.5h92c12.667 0 23.5 -4.5 32.5 -13.5s13.5 -20.167 13.5 -33.5v-174l75 37c7.33301 3.33301 14.166 3 20.499 -1s9.5 -10.333 9.5 -19v-78
c0 -17.333 -10 -30.666 -30 -39.999l-75 -37v-203h425c12.667 0 23.5 -4.5 32.5 -13.5s13.5 -19.833 13.5 -32.5v-46c0 -12.667 -4.5 -23.5 -13.5 -32.5s-19.833 -13.5 -32.5 -13.5h-563c-12.667 0 -23.5 4.33301 -32.5 13s-13.5 19.334 -13.5 32.001v207l-70 -34
c-7.33301 -3.33301 -14.166 -3 -20.499 1s-9.5 10.333 -9.5 19z" />
    <glyph glyph-name="lslash" unicode="&#x142;" horiz-adv-x="379" 
d="M0 243v78c0 17.333 10 30.666 30 39.999l70 34v275c0 8.66699 2.83301 15.834 8.5 21.501s12.834 8.5 21.501 8.5h109c8.66699 0 15.834 -2.83301 21.501 -8.5s8.5 -12.834 8.5 -21.501v-193l80 39c7.33301 3.33301 14.166 3 20.499 -1s9.5 -10.333 9.5 -19v-78
c0 -17.333 -10 -30.666 -30 -39.999l-80 -39v-309c0 -8.66699 -2.83301 -15.834 -8.5 -21.501s-12.834 -8.5 -21.501 -8.5h-109c-8.66699 0 -15.834 2.83301 -21.501 8.5s-8.5 12.834 -8.5 21.501v227l-70 -34c-7.33301 -3.33301 -14.166 -3 -20.499 1s-9.5 10.333 -9.5 19z
" />
    <glyph glyph-name="Nacute" unicode="&#x143;" horiz-adv-x="867" 
d="M70 46l-0.000976562 607.999c0 12.667 4.33301 23.5 13 32.5s19.334 13.5 32.001 13.5h144c11.333 0 23.333 -4.5 36 -13.5s23 -19.833 31 -32.5l295 -454v455c0 12.667 4.5 23.334 13.5 32.001s19.833 13 32.5 13h84c12.667 0 23.5 -4.33301 32.5 -13
s13.5 -19.667 13.5 -33v-608c0 -12.667 -4.5 -23.5 -13.5 -32.5s-19.833 -13.5 -32.5 -13.5h-162c-12.667 0 -25.667 4.5 -39 13.5s-24 19.833 -32 32.5l-270 419v-419c0 -12.667 -4.5 -23.5 -13.5 -32.5s-19.833 -13.5 -32.5 -13.5h-86c-12.667 0 -23.5 4.5 -32.5 13.5
s-13.5 19.833 -13.5 32.5zM403.999 785.999l24 92c12.667 37.333 34 56 64 56h44c21.333 0 35.333 -6.66699 42 -20c2.66699 -5.33301 4 -11 4 -17c0 -9.33301 -3.33301 -19 -10 -29l-53 -92c-18 -30.667 -38 -46 -60 -46h-23c-24 0 -36 10.667 -36 32
c0 6.66699 1.33301 14.667 4 24z" />
    <glyph glyph-name="nacute" unicode="&#x144;" 
d="M60 30l0.00195312 475c0 8.66699 2.83301 15.834 8.5 21.501s12.834 8.5 21.501 8.5h109c8.66699 0 15.834 -2.83301 21.501 -8.5s8.5 -12.834 8.5 -21.501v-31c56 47.333 113 71 171 71c68.667 0 122.834 -19.333 162.501 -58s59.5 -97.667 59.5 -177v-280
c0 -8.66699 -2.83301 -15.834 -8.5 -21.501s-12.834 -8.5 -21.501 -8.5h-109c-8.66699 0 -15.834 2.83301 -21.501 8.5s-8.5 12.834 -8.5 21.501v280c0 78 -31 117 -93 117c-40.667 0 -84.334 -23.333 -131.001 -70v-327c0 -8.66699 -2.83301 -15.834 -8.5 -21.501
s-12.834 -8.5 -21.501 -8.5h-109c-8.66699 0 -15.834 2.83301 -21.501 8.5s-8.5 12.834 -8.5 21.501zM312.002 641l24 92c12.667 37.333 34 56 64 56h44c21.333 0 35.333 -6.66699 42 -20c2.66699 -5.33301 4 -11 4 -17c0 -9.33301 -3.33301 -19 -10 -29l-53 -92
c-18 -30.667 -38 -46 -60 -46h-23c-24 0 -36 10.667 -36 32c0 6.66699 1.33301 14.667 4 24z" />
    <glyph glyph-name="Ncaron" unicode="&#x147;" horiz-adv-x="867" 
d="M70 46l-0.000976562 607.999c0 12.667 4.33301 23.5 13 32.5s19.334 13.5 32.001 13.5h144c11.333 0 23.333 -4.5 36 -13.5s23 -19.833 31 -32.5l295 -454v455c0 12.667 4.5 23.334 13.5 32.001s19.833 13 32.5 13h84c12.667 0 23.5 -4.33301 32.5 -13
s13.5 -19.667 13.5 -33v-608c0 -12.667 -4.5 -23.5 -13.5 -32.5s-19.833 -13.5 -32.5 -13.5h-162c-12.667 0 -25.667 4.5 -39 13.5s-24 19.833 -32 32.5l-270 419v-419c0 -12.667 -4.5 -23.5 -13.5 -32.5s-19.833 -13.5 -32.5 -13.5h-86c-12.667 0 -23.5 4.5 -32.5 13.5
s-13.5 19.833 -13.5 32.5zM258.999 872.999c5.33301 10 13.998 15 25.998 15h71c18.667 0 42.334 -13.667 71.001 -41l16 -15l17 15c28.667 27.333 52.334 41 71.001 41h71c12 0 20.667 -5 26 -15c2 -3.33301 3 -7 3 -11c0 -6 -3 -11.667 -9 -17l-77 -70
c-30 -28.667 -54 -43 -72 -43h-60c-18 0 -42 14.333 -72 43l-76 70c-6 6 -9 11.667 -9 17c0 4 1 7.66699 3 11z" />
    <glyph glyph-name="ncaron" unicode="&#x148;" 
d="M60 30l0.00195312 475c0 8.66699 2.83301 15.834 8.5 21.501s12.834 8.5 21.501 8.5h109c8.66699 0 15.834 -2.83301 21.501 -8.5s8.5 -12.834 8.5 -21.501v-31c56 47.333 113 71 171 71c68.667 0 122.834 -19.333 162.501 -58s59.5 -97.667 59.5 -177v-280
c0 -8.66699 -2.83301 -15.834 -8.5 -21.501s-12.834 -8.5 -21.501 -8.5h-109c-8.66699 0 -15.834 2.83301 -21.501 8.5s-8.5 12.834 -8.5 21.501v280c0 78 -31 117 -93 117c-40.667 0 -84.334 -23.333 -131.001 -70v-327c0 -8.66699 -2.83301 -15.834 -8.5 -21.501
s-12.834 -8.5 -21.501 -8.5h-109c-8.66699 0 -15.834 2.83301 -21.501 8.5s-8.5 12.834 -8.5 21.501zM166.002 718c5.33301 10 13.998 15 25.998 15h71c18.667 0 42.334 -13.667 71.001 -41l16 -15l17 15c28.667 27.333 52.334 41 71.001 41h71c12 0 20.667 -5 26 -15
c2 -3.33301 3 -6.66602 3 -9.99902c0 -6 -3 -12 -9 -18l-77 -70c-30 -28.667 -54 -43 -72 -43h-60c-18 0 -42 14.333 -72 43l-76 70c-6 6 -9 12 -9 18c0 3.33301 1 6.66602 3 9.99902z" />
    <glyph glyph-name="OE" unicode="&#x152;" horiz-adv-x="1215" 
d="M435 700l713.999 0.000976562c12.667 0 23.5 -4.5 32.5 -13.5s13.5 -19.833 13.5 -32.5v-46c0 -12.667 -4.5 -23.5 -13.5 -32.5s-19.833 -13.5 -32.5 -13.5h-425v-142h366c12.667 0 23.5 -4.5 32.5 -13.5s13.5 -19.833 13.5 -32.5v-46c0 -12.667 -4.5 -23.5 -13.5 -32.5
s-19.833 -13.5 -32.5 -13.5h-366v-144h424c12.667 0 23.334 -4.33301 32.001 -13s13 -19.334 13 -32.001v-47c0 -12.667 -4.5 -23.5 -13.5 -32.5s-19.833 -13.5 -32.5 -13.5h-712c-141.333 0 -244.166 28.167 -308.499 84.5s-96.5 144.833 -96.5 265.5
s32.167 209.167 96.5 265.5s167.166 84.5 308.499 84.5zM439.999 138.001h100v424h-100c-87.333 0 -146.833 -16 -178.5 -48s-47.5 -86.667 -47.5 -164s15.833 -132 47.5 -164s91.167 -48 178.5 -48z" />
    <glyph glyph-name="oe" unicode="&#x153;" horiz-adv-x="1050" 
d="M325 545c91.333 0 161.333 -27.665 210 -82.998c47.333 55.333 114 83 200 83c90 0 160 -23.333 210 -70s75 -113.667 75 -201v-28c0 -8.66699 -2.83301 -15.834 -8.5 -21.501s-12.834 -8.5 -21.501 -8.5h-368c3.33301 -40 14.833 -69.167 34.5 -87.5
s49.834 -27.5 90.501 -27.5c46 0 78 11 96 33c14 17.333 32.667 26 56 26h73c8.66699 0 15.834 -2.83301 21.501 -8.5s8.5 -12.834 8.5 -21.501c0 -93.333 -89 -140 -267 -140c-86.667 0 -153.334 27.333 -200.001 82c-48.667 -54.667 -118.667 -82 -210 -82
c-95.333 0 -168.333 23.5 -219 70.5s-76 116.167 -76 207.5s25.333 160.333 76 207s123.667 70 219 70zM229 395.002c-20 -26.667 -29.999 -69 -29.999 -127s10.167 -100.333 30.5 -127s52.166 -40 95.499 -40s75.166 13.333 95.499 40s30.5 69 30.5 127
s-10.167 100.167 -30.5 126.5s-52.166 39.5 -95.499 39.5s-75.333 -13 -96 -39zM621.001 319.002h227c-3.33301 76.667 -41 115 -113 115s-110 -38.333 -114 -115z" />
    <glyph glyph-name="Racute" unicode="&#x154;" horiz-adv-x="808" 
d="M70 46l-0.000976562 608.002c0 13.333 4.33301 24.333 13 33s19.334 13 32.001 13h403c74 0 134.667 -19.667 182 -59c48.667 -40.667 73 -95 73 -163c0 -94.667 -61.333 -154 -184 -178c34.667 -13.333 71.667 -51 111 -113l89 -141c5.33301 -8.66699 8 -17 8 -25
c0 -2.66699 -0.333008 -5.33398 -1 -8.00098c-2.66699 -8.66699 -10.667 -13 -24 -13h-117c-31.333 0 -56.333 15.333 -75 46l-83 130c-34 53.333 -75.333 80 -124 80h-119v-210c0 -12.667 -4.33301 -23.334 -13 -32.001c-9.33301 -9.33301 -20.333 -14 -33 -14h-92
c-12 0 -22.667 4.66699 -32 14s-14 20 -14 32zM253.999 394.002h208c33.333 0 61.666 6 84.999 18c28 14.667 42 36.667 42 66s-14 51.333 -42 66c-23.333 12 -51.666 18 -84.999 18h-208v-168zM346.999 811.002l24 92c12.667 37.333 34 56 64 56h44
c21.333 0 35.333 -7 42 -21c2.66699 -4.66699 4 -10 4 -16c0 -9.33301 -3.33301 -19 -10 -29l-53 -92c-18 -30.667 -38 -46 -60 -46h-23c-24 0 -36 10.667 -36 32c0 6.66699 1.33301 14.667 4 24z" />
    <glyph glyph-name="racute" unicode="&#x155;" horiz-adv-x="486" 
d="M60 30l0.000976562 475c0 20 10 30 30 30h109c20 0 30 -10 30 -30v-31c65.333 47.333 137.666 71 216.999 71c20 0 30 -10 30 -30v-74c0 -20 -10 -30 -30 -30l-91 3c-44 0 -86 -24 -126 -72v-312c0 -20 -10 -30 -30 -30h-109c-20 0 -30 10 -30 30zM217.001 651l24 92.002
c12.667 37.333 34 56 64 56h44c21.333 0 35.333 -7 42 -21c2.66699 -4.66699 4 -10 4 -16c0 -8.66699 -3.33301 -18.334 -10 -29.001l-53 -92c-18 -30.667 -38 -46 -60 -46h-23c-24 0 -36 10.333 -36 31c0 7.33301 1.33301 15.666 4 24.999z" />
    <glyph glyph-name="Rcommaaccent" unicode="&#x156;" horiz-adv-x="808" 
d="M70 46l-0.000976562 607.998c0 12.667 4.33301 23.5 13 32.5s19.334 13.5 32.001 13.5h403c74.667 0 135.834 -20 183.501 -60s71.5 -94 71.5 -162c0 -94.667 -61.333 -154 -184 -178c19.333 -7.33301 37.333 -19.666 54 -36.999s35.667 -42.666 57 -75.999l89 -141
c5.33301 -9.33301 8 -17.666 8 -24.999c0 -2.66699 -0.333008 -5.33398 -1 -8.00098c-3.33301 -8.66699 -11.333 -13 -24 -13h-117c-12.667 0 -26.334 4.5 -41.001 13.5s-26 19.833 -34 32.5l-83 130c-34 53.333 -75.333 80 -124 80h-119v-210
c0 -12.667 -4.5 -23.5 -13.5 -32.5s-19.833 -13.5 -32.5 -13.5h-92c-12.667 0 -23.5 4.5 -32.5 13.5s-13.5 19.833 -13.5 32.5zM253.999 393.998l208 0.00195312c33.333 0 62.833 6.66699 88.5 20s38.5 34.666 38.5 63.999s-12.833 50.666 -38.5 63.999s-55.167 20 -88.5 20
h-208v-168zM343.999 -181l2 135c0 14.667 4.5 27.667 13.5 39s20.167 17 33.5 17h39c17.333 0 30.666 -5 39.999 -15c6.66699 -8 10 -17.667 10 -29c0 -4 -0.333008 -7.66699 -1 -11l-34 -146c-5.33301 -24 -21.666 -36 -48.999 -36h-14c-14 0 -24.167 3.5 -30.5 10.5
s-9.5 18.833 -9.5 35.5z" />
    <glyph glyph-name="rcommaaccent" unicode="&#x157;" horiz-adv-x="486" 
d="M60 30v475.002c0 8.66699 2.83301 15.834 8.5 21.501s12.834 8.5 21.501 8.5h109c8.66699 0 15.834 -2.83301 21.501 -8.5s8.5 -12.834 8.5 -21.501v-31c33.333 24 65.333 41.833 96 53.5s71 17.5 121 17.5c8.66699 0 15.834 -2.83301 21.501 -8.5
s8.5 -12.834 8.5 -21.501v-74c0 -8.66699 -2.83301 -15.834 -8.5 -21.501s-12.834 -8.5 -21.501 -8.5h-16c-7.33301 0 -19.5 0.5 -36.5 1.5s-29.833 1.5 -38.5 1.5c-44 0 -86 -24 -126 -72v-312c0 -8.66699 -2.83301 -15.834 -8.5 -21.501s-12.834 -8.5 -21.501 -8.5h-109
c-8.66699 0 -15.834 2.83301 -21.501 8.5s-8.5 12.834 -8.5 21.501zM71 -230.998l2 135c0 14.667 4.5 27.667 13.5 39s20.167 17 33.5 17h39c17.333 0 30.666 -5 39.999 -15c6.66699 -8 10 -17.667 10 -29c0 -3.33301 -0.333008 -7 -1 -11l-34 -146
c-5.33301 -24 -21.666 -36 -48.999 -36h-14c-14 0 -24.167 3.5 -30.5 10.5s-9.5 18.833 -9.5 35.5z" />
    <glyph glyph-name="Rcaron" unicode="&#x158;" horiz-adv-x="808" 
d="M70 46l-0.000976562 607.998c0 12.667 4.33301 23.5 13 32.5s19.334 13.5 32.001 13.5h403c74.667 0 135.834 -20 183.501 -60s71.5 -94 71.5 -162c0 -94.667 -61.333 -154 -184 -178c19.333 -7.33301 37.333 -19.666 54 -36.999s35.667 -42.666 57 -75.999l89 -141
c5.33301 -9.33301 8 -17.666 8 -24.999c0 -2.66699 -0.333008 -5.33398 -1 -8.00098c-3.33301 -8.66699 -11.333 -13 -24 -13h-117c-12.667 0 -26.334 4.5 -41.001 13.5s-26 19.833 -34 32.5l-83 130c-34 53.333 -75.333 80 -124 80h-119v-210
c0 -12.667 -4.5 -23.5 -13.5 -32.5s-19.833 -13.5 -32.5 -13.5h-92c-12.667 0 -23.5 4.5 -32.5 13.5s-13.5 19.833 -13.5 32.5zM228.999 882.998c5.33301 10 13.998 15 25.998 15h71c18.667 0 42.334 -13.667 71.001 -41l16 -15l17 15c28.667 27.333 52.334 41 71.001 41h71
c12 0 20.667 -5 26 -15c2 -4 3 -7.33301 3 -10c0 -6.66699 -3 -12.667 -9 -18l-77 -70c-30 -28.667 -54 -43 -72 -43h-60c-18 0 -42 14.333 -72 43l-76 70c-6 5.33301 -9 11.333 -9 18c0 2.66699 1 6 3 10zM253.997 393.998l208 0.00195312c33.333 0 62.833 6.66699 88.5 20
s38.5 34.666 38.5 63.999s-12.833 50.666 -38.5 63.999s-55.167 20 -88.5 20h-208v-168z" />
    <glyph glyph-name="rcaron" unicode="&#x159;" horiz-adv-x="486" 
d="M60 30v475.002c0 8.66699 2.83301 15.834 8.5 21.501s12.834 8.5 21.501 8.5h109c8.66699 0 15.834 -2.83301 21.501 -8.5s8.5 -12.834 8.5 -21.501v-31c33.333 24 65.333 41.833 96 53.5s71 17.5 121 17.5c8.66699 0 15.834 -2.83301 21.501 -8.5
s8.5 -12.834 8.5 -21.501v-74c0 -8.66699 -2.83301 -15.834 -8.5 -21.501s-12.834 -8.5 -21.501 -8.5h-16c-7.33301 0 -19.5 0.5 -36.5 1.5s-29.833 1.5 -38.5 1.5c-44 0 -86 -24 -126 -72v-312c0 -8.66699 -2.83301 -15.834 -8.5 -21.501s-12.834 -8.5 -21.501 -8.5h-109
c-8.66699 0 -15.834 2.83301 -21.501 8.5s-8.5 12.834 -8.5 21.501zM88 738.002c5.33301 10 13.998 15 25.998 15h71c18.667 0 42.334 -13.667 71.001 -41l16 -15l17 15c28.667 27.333 52.334 41 71.001 41h71c12 0 20.667 -5 26 -15c2 -3.33301 3 -6.66602 3 -9.99902
c0 -6 -3 -12 -9 -18l-77 -70c-30 -28.667 -54 -43 -72 -43h-60c-18 0 -42 14.333 -72 43l-76 70c-6 6 -9 12 -9 18c0 3.33301 1 6.66602 3 9.99902z" />
    <glyph glyph-name="Scaron" unicode="&#x160;" horiz-adv-x="779" 
d="M30 179c0 19.333 5.66406 33.168 16.9971 41.501s22.333 12.5 33 12.5h58c29.333 0 51.333 -15.333 66 -46c16 -33.333 50.667 -50 104 -50l171 -3c57.333 0 86 18.667 86 56c0 15.333 -9.66699 28.5 -29 39.5s-44.666 20.167 -75.999 27.5s-65.833 14.666 -103.5 21.999
s-75.167 16.5 -112.5 27.5s-71.666 24 -102.999 39s-56.666 35.667 -75.999 62s-29 57.166 -29 92.499c0 65.333 23.333 115.666 70 150.999s126.667 53 240 53l124 -3c66.667 0 126.834 -17.167 180.501 -51.5s80.5 -77.166 80.5 -128.499
c0 -19.333 -5.66699 -33.166 -17 -41.499s-22.333 -12.5 -33 -12.5h-58c-29.333 0 -51.333 15.333 -66 46c-16 33.333 -50.667 50 -104 50l-147 3c-57.333 0 -86 -18.667 -86 -56c0 -20.667 18.167 -37.5 54.5 -50.5s80.333 -24.5 132 -34.5s103.5 -22 155.5 -36
s96.167 -37 132.5 -69s54.5 -72 54.5 -120c0 -65.333 -23.333 -115.666 -70 -150.999s-126.667 -53 -240 -53l-148 3c-66.667 0 -126.834 17.167 -180.501 51.5s-80.5 77.166 -80.5 128.499zM211.997 898.002c5.33301 10 13.998 15 25.998 15h71
c18.667 0 42.334 -13.667 71.001 -41l16 -15l17 15c28.667 27.333 52.334 41 71.001 41h71c12 0 20.667 -5 26 -15c2 -3.33301 3 -6.66602 3 -9.99902c0 -6 -3 -12 -9 -18l-77 -70c-30 -28.667 -54 -43 -72 -43h-60c-18 0 -42 14.333 -72 43l-76 70c-6 6 -9 12 -9 18
c0 3.33301 1 6.66602 3 9.99902z" />
    <glyph glyph-name="scaron" unicode="&#x161;" horiz-adv-x="598" 
d="M30 387c0 105.333 84.667 157.998 254 157.998c178.667 0 268 -46.667 268 -140c0 -8.66699 -2.83301 -15.834 -8.5 -21.501s-12.834 -8.5 -21.501 -8.5h-73c-23.333 0 -42 8.66699 -56 26c-18 22 -50.333 33 -97 33c-64.667 0 -97 -15.667 -97 -47
c0 -14.667 12.667 -26.834 38 -36.501s56.166 -18.167 92.499 -25.5s72.5 -16.666 108.5 -27.999s66.667 -29.5 92 -54.5s38 -56.5 38 -94.5c0 -105.333 -89.667 -158 -269 -158c-178.667 0 -268 46.667 -268 140c0 8.66699 2.83301 15.834 8.5 21.501
s12.834 8.5 21.501 8.5h73c23.333 0 42 -8.66699 56 -26c18 -22 50.333 -33 97 -33c74.667 0 112 15.667 112 47c0 14.667 -12.667 26.834 -38 36.501s-56.166 18.334 -92.499 26.001s-72.5 17.167 -108.5 28.5s-66.667 29.5 -92 54.5s-38 56.167 -38 93.5zM113 728.998
c5.33301 9.33301 13.998 14 25.998 14h71c18.667 0 42.334 -13.667 71.001 -41l16 -15l17 15c28.667 27.333 52.334 41 71.001 41h71c12 0 20.667 -4.66699 26 -14c2 -4 3 -7.66699 3 -11c0 -6 -3 -12 -9 -18l-77 -70c-30 -28.667 -54 -43 -72 -43h-60
c-18 0 -42 14.333 -72 43l-76 70c-6 6 -9 12 -9 18c0 3.33301 1 7 3 11z" />
    <glyph glyph-name="Tcaron" unicode="&#x164;" horiz-adv-x="732" 
d="M10 608v46c0 13.333 4.33301 24.333 13 33s19.667 13 33 13h620c13.333 0 24.333 -4.33301 33 -13s13 -19.667 13 -33v-46c0 -13.333 -4.33301 -24.333 -13 -33s-19.667 -13 -33 -13h-218v-517c0 -12.667 -4.5 -23.334 -13.5 -32.001s-19.833 -13 -32.5 -13h-92
c-12.667 0 -23.5 4.33301 -32.5 13s-13.5 19.334 -13.5 32.001v517h-218c-13.333 0 -24.333 4.33301 -33 13s-13 19.667 -13 33zM187 878c5.33301 10 13.998 15 25.998 15h71c18.667 0 42.334 -13.667 71.001 -41l16 -15l17 15c28.667 27.333 52.334 41 71.001 41h71
c12 0 20.667 -5 26 -15c2 -3.33301 3 -6.66602 3 -9.99902c0 -6 -3 -12 -9 -18l-77 -70c-30 -28.667 -54 -43 -72 -43h-60c-18 0 -42 14.333 -72 43l-76 70c-6 6 -9 12 -9 18c0 3.33301 1 6.66602 3 9.99902z" />
    <glyph glyph-name="tcaron" unicode="&#x165;" horiz-adv-x="450" 
d="M60 210l-0.00195312 460c0 20 10 30 30 30h109c20 0 30 -10 30 -30v-163h136c20 0 30 -10 30 -30v-58c0 -20 -10 -30 -30 -30h-136v-179c0 -69.333 28.667 -104 86 -104c9.33301 0 21 1 35 3c14.667 2 25.334 3 32.001 3h18c20 0 30 -10 30 -30v-52
c0 -17.333 -10 -27.333 -30 -30c-31.333 -6.66699 -74.666 -10 -129.999 -10c-140 0 -210 73.333 -210 220zM293.998 599l1.99902 165c0 14.667 4.5 27.667 13.5 39s20.167 17 33.5 17h39c17.333 0 30.333 -5 39 -15c7.33301 -8 11 -17.667 11 -29
c0 -3.33301 -0.333008 -7 -1 -11l-34 -176c-5.33301 -24 -21.666 -36 -48.999 -36h-14c-14 0 -24.167 3.5 -30.5 10.5s-9.5 18.833 -9.5 35.5z" />
    <glyph glyph-name="Uring" unicode="&#x16e;" horiz-adv-x="824" 
d="M60 277l-0.00195312 377c0 12.667 4.66699 23.667 14 33c8.66699 8.66699 19.667 13 33 13h91c12.667 0 23.334 -4.33301 32.001 -13c9.33301 -9.33301 14 -20.333 14 -33v-378c0 -94.667 43 -142 129 -142h78c86 0 129 47.333 129 142v378
c0 12.667 4.66699 23.667 14 33c8.66699 8.66699 19.334 13 32.001 13h91c13.333 0 24.333 -4.33301 33 -13c9.33301 -9.33301 14 -20.333 14 -33v-377c0 -88.667 -25.667 -157.667 -77 -207c-53.333 -49.333 -130.333 -74 -231 -74h-88c-100 0 -176.667 24.667 -230 74
c-52 49.333 -78 118.333 -78 207zM281.998 826c0 41.333 13.333 73.333 40 96c24.667 22.667 57 34 97 34c39.333 0 71.333 -11.333 96 -34c26.667 -22.667 40 -54.667 40 -96c0 -40 -13.333 -72 -40 -96c-24.667 -22.667 -56.667 -34 -96 -34c-40 0 -72.333 11.333 -97 34
c-26.667 24 -40 56 -40 96zM418.998 761c34.667 0 52 21.667 52 65s-17.333 65 -52 65c-35.333 0 -53 -21.667 -53 -65s17.667 -65 53 -65z" />
    <glyph glyph-name="uring" unicode="&#x16f;" 
d="M60 225l-0.00195312 280c0 20 10 30 30 30h109c20 0 30 -10 30 -30v-280c0 -78 31 -117 93 -117c40.667 0 84.334 23.333 131.001 70v327c0 20 10 30 30 30h109c20 0 30 -10 30 -30v-475c0 -20 -10 -30 -30 -30h-109c-20 0 -30 10 -30 30v31
c-56.667 -47.333 -113.667 -71 -171 -71c-69.333 0 -122.666 18.333 -159.999 55c-41.333 41.333 -62 101.333 -62 180zM212.998 677c0 41.333 13.333 73.333 40 96c24.667 22.667 57 34 97 34c39.333 0 71.333 -11.333 96 -34c26.667 -22.667 40 -54.667 40 -96
c0 -40 -13.333 -72 -40 -96c-24.667 -22.667 -56.667 -34 -96 -34c-40 0 -72.333 11.333 -97 34c-26.667 24 -40 56 -40 96zM349.998 612c34.667 0 52 21.667 52 65s-17.333 65 -52 65c-35.333 0 -53 -21.667 -53 -65s17.667 -65 53 -65z" />
    <glyph glyph-name="Ydieresis" unicode="&#x178;" horiz-adv-x="742" 
d="M11 686c3.33301 9.33301 11.333 14 24 14h93c36.667 0 65 -15.333 85 -46l158 -244l158 244c20 30.667 48.333 46 85 46h93c12.667 0 20.667 -4.66699 24 -14c0.666992 -3.33301 1 -6.33301 1 -9c0 -7.33301 -2.66699 -15 -8 -23l-261 -404v-205
c0 -12.667 -4.5 -23.334 -13.5 -32.001s-19.833 -13 -32.5 -13h-92c-12.667 0 -23.5 4.33301 -32.5 13s-13.5 19.334 -13.5 32.001v205l-261 404c-5.33301 8 -8 15.667 -8 23c0 2.66699 0.333008 5.66699 1 9zM169 790v19c0 17.333 5 31 15 41s23.667 15 41 15h47
c17.333 0 31 -5 41 -15s15 -23.667 15 -41v-19c0 -17.333 -5 -31 -15 -41s-23.667 -15 -41 -15h-47c-17.333 0 -31 5 -41 15s-15 23.667 -15 41zM414 790v19c0 17.333 5 31 15 41s23.667 15 41 15h47c17.333 0 31 -5 41 -15s15 -23.667 15 -41v-19c0 -17.333 -5 -31 -15 -41
s-23.667 -15 -41 -15h-47c-17.333 0 -31 5 -41 15s-15 23.667 -15 41z" />
    <glyph glyph-name="Zcaron" unicode="&#x17d;" horiz-adv-x="717" 
d="M25 608l0.000976562 45.998c0 13.333 4.5 24.333 13.5 33s19.833 13 32.5 13h570c12.667 0 23.5 -4.33301 32.5 -13s13.5 -19.667 13.5 -33v-55c0 -13.333 -2.83301 -26.166 -8.5 -38.499s-10.834 -21.166 -15.501 -26.499l-22 -22l-384 -374h389
c13.333 0 24.333 -4.33301 33 -13s13 -19.667 13 -33v-46c0 -13.333 -4.33301 -24.333 -13 -33s-19.667 -13 -33 -13h-567c-12.667 -0 -23.5 4.33301 -32.5 13s-13.5 19.667 -13.5 33v54c0 31.333 15.333 62.333 46 93l372 369h-380c-12.667 0 -23.5 4.33301 -32.5 13
s-13.5 19.667 -13.5 33zM172.001 914.998c5.33301 9.33301 13.998 14 25.998 14h71c18.667 0 42.334 -13.667 71.001 -41l16 -15l17 15c28.667 27.333 52.334 41 71.001 41h71c12 0 20.667 -4.66699 26 -14c2 -4 3 -7.66699 3 -11c0 -6 -3 -12 -9 -18l-77 -70
c-30 -28.667 -54 -43 -72 -43h-60c-18 0 -42 14.333 -72 43l-76 70c-6 6 -9 12 -9 18c0 3.33301 1 7 3 11z" />
    <glyph glyph-name="zcaron" unicode="&#x17e;" horiz-adv-x="559" 
d="M25 447v58c0 8.66699 2.83301 15.834 8.5 21.501s12.834 8.5 21.501 8.5h445c8.66699 0 15.834 -2.83301 21.501 -8.5s8.5 -12.834 8.5 -21.501v-47c0 -24 -11.667 -47.667 -35 -71l-266 -269h275c8.66699 0 15.834 -2.83301 21.501 -8.5s8.5 -12.834 8.5 -21.501v-58
c0 -8.66699 -2.83301 -15.834 -8.5 -21.501s-12.834 -8.5 -21.501 -8.5h-449c-8.66699 0 -15.834 2.83301 -21.501 8.5s-8.5 12.834 -8.5 21.501v47c0 24 11.667 47.667 35 71l257 269h-262c-8.66699 0 -15.834 2.83301 -21.501 8.5s-8.5 12.834 -8.5 21.501zM95 738
c5.33301 10 13.998 15 25.998 15h71c18.667 0 42.334 -13.667 71.001 -41l16 -15l17 15c28.667 27.333 52.334 41 71.001 41h71c12 0 20.667 -5 26 -15c2 -3.33301 3 -6.66602 3 -9.99902c0 -6 -3 -12 -9 -18l-77 -70c-30 -28.667 -54 -43 -72 -43h-60
c-18 0 -42 14.333 -72 43l-76 70c-6 6 -9 12 -9 18c0 3.33301 1 6.66602 3 9.99902z" />
    <glyph glyph-name="florin" unicode="&#x192;" horiz-adv-x="593" 
d="M-99 -135l9 53.002c1.33301 8.66699 5.33301 15.834 12 21.501s14.334 8.5 23.001 8.5h15c6 0 14 -1.16699 24 -3.5s18.333 -3.5 25 -3.5c17.333 0 34 9 50 27s27.333 47 34 87l72 405c15.333 90.667 47.166 155 95.499 193s124.5 57 228.5 57
c53.333 0 96 -3.33301 128 -10c8 -1.33301 14.333 -4.83301 19 -10.5s6.66699 -12.167 6 -19.5l-10 -54c-1.33301 -8.66699 -5.33301 -15.834 -12 -21.501s-14.334 -8.5 -23.001 -8.5h-18c-7.33301 0 -18 1.33301 -32 4s-25.333 4 -34 4
c-64.667 0 -108.334 -8.66699 -131.001 -26s-38.667 -53.333 -48 -108l-2 -8h177c8.66699 0 15.334 -2.83301 20.001 -8.5s6.33398 -12.834 5.00098 -21.501l-10 -58c-1.33301 -8.66699 -5.5 -15.834 -12.5 -21.501s-14.833 -8.5 -23.5 -8.5h-177l-49 -279
c-26.667 -153.333 -103 -230 -229 -230c-44.667 0 -80.667 3.33301 -108 10c-16.667 4 -25 11.667 -25 23c0 2.66699 0.333008 5 1 7z" />
    <glyph glyph-name="uni01F4" unicode="&#x1f4;" horiz-adv-x="828" 
d="M30 350c0 120.667 30.1641 209.832 90.4971 267.499s150.833 86.5 271.5 86.5h109c72 0 136.833 -17.167 194.5 -51.5s86.5 -77.166 86.5 -128.499c0 -19.333 -5.66699 -33.166 -17 -41.499s-22.333 -12.5 -33 -12.5h-58c-28 0 -50 15.333 -66 46
c-17.333 33.333 -58.666 50 -123.999 50h-87c-71.333 0 -119.666 -15.333 -144.999 -46s-38 -87.334 -38 -170.001c0 -81.333 11.333 -137.666 34 -168.999s63.334 -47 122.001 -47h100c52.667 0 90.167 10 112.5 30s33.833 48.667 34.5 86h-110
c-12.667 0 -23.5 4.5 -32.5 13.5s-13.5 19.833 -13.5 32.5v38c0 12.667 4.5 23.5 13.5 32.5s19.833 13.5 32.5 13.5h245c12.667 0 23.5 -4.5 32.5 -13.5s13.5 -19.833 13.5 -32.5v-54c0 -91.333 -27.333 -161.5 -82 -210.5s-135 -73.5 -241 -73.5h-110
c-108 0 -190.833 29.167 -248.5 87.5s-86.5 147.166 -86.5 266.499zM361.997 810.998l24 92c12.667 37.333 34 56 64 56h44c21.333 0 35.333 -7 42 -21c2.66699 -4.66699 4 -10 4 -16c0 -9.33301 -3.33301 -19 -10 -29l-53 -92c-18 -30.667 -38 -46 -60 -46h-23
c-24 0 -36 10.667 -36 32c0 6.66699 1.33301 14.667 4 24z" />
    <glyph glyph-name="uni01F5" unicode="&#x1f5;" horiz-adv-x="652" 
d="M30 291c0 80.667 25.832 143.167 77.499 187.5s125.834 66.5 222.501 66.5c47.333 0 96.333 -5.33301 147 -16s89 -23.667 115 -39v-452c0 -72.667 -24 -126.334 -72 -161.001s-113 -52 -195 -52c-90.667 0 -159.334 10.833 -206.001 32.5s-70 57.5 -70 107.5
c0 8.66699 2.83301 15.834 8.5 21.501s12.834 8.5 21.501 8.5h73c23.333 0 42 -8.66699 56 -26c18 -22 53 -33 105 -33c39.333 0 67.5 7.5 84.5 22.5s25.5 41.5 25.5 79.5v23c-52 -13.333 -100.667 -20 -146 -20c-74 0 -133.667 22.333 -179 67s-68 105.667 -68 183z
M203.999 291c0 -88 37.668 -132 113.001 -132c31.333 0 66.666 5 105.999 15v242c-28 7.33301 -62.333 11 -103 11c-77.333 0 -116 -45.333 -116 -136zM269 650l24 92c12.667 37.333 34 56 64 56h44c21.333 0 35.333 -7 42 -21c2.66699 -4.66699 4 -10 4 -16
c0 -9.33301 -3.33301 -19 -10 -29l-53 -92c-18 -30.667 -38 -46 -60 -46h-23c-24 0 -36 10.667 -36 32c0 6.66699 1.33301 14.667 4 24z" />
    <glyph glyph-name="circumflex" unicode="&#x2c6;" horiz-adv-x="396" 
d="M12 782c-2 3.33301 -2.99805 6.66602 -2.99805 9.99902c0 6 3 12 9 18l76 70c30 28.667 54 43 72 43h60c18 0 42 -14.333 72 -43l77 -70c6 -6 9 -12 9 -18c0 -3.33301 -1 -6.66602 -3 -9.99902c-5.33301 -10 -14 -15 -26 -15h-71c-18.667 0 -42.334 13.667 -71.001 41
l-17 15l-16 -15c-28.667 -27.333 -52.334 -41 -71.001 -41h-71c-12 0 -20.667 5 -26 15z" />
    <glyph glyph-name="caron" unicode="&#x2c7;" horiz-adv-x="396" 
d="M12 909c5.33301 9.33301 13.998 14 25.998 14h71c18.667 0 42.334 -13.667 71.001 -41l16 -15l17 15c28.667 27.333 52.334 41 71.001 41h71c12 0 20.667 -4.66699 26 -14c2 -4 3 -7.66699 3 -11c0 -6 -3 -12 -9 -18l-77 -70c-30 -28.667 -54 -43 -72 -43h-60
c-18 0 -42 14.333 -72 43l-76 70c-6 6 -9 12 -9 18c0 3.33301 1 7 3 11z" />
    <glyph glyph-name="ring" unicode="&#x2da;" horiz-adv-x="350" 
d="M-122 104c-32 28.667 -47.999 68 -47.999 118s16.167 89.5 48.5 118.5s72.833 43.5 121.5 43.5s89.167 -14.5 121.5 -43.5s48.5 -68.5 48.5 -118.5s-16.167 -89.5 -48.5 -118.5s-72.833 -43.5 -121.5 -43.5s-89.334 14.667 -122.001 44zM-47.999 281
c-12 -14 -18 -33.666 -18 -58.999s6 -45.166 18 -59.499s28 -21.5 48 -21.5s36 7.16699 48 21.5s18 34.166 18 59.499s-6 45.166 -18 59.499s-28 21.5 -48 21.5s-36 -7.33301 -48 -22z" />
    <glyph glyph-name="tilde" unicode="&#x2dc;" horiz-adv-x="374" 
d="M20 620c0 42.667 10.501 75 31.501 97s45.5 33 73.5 33c19.333 0 41.333 -6.66699 66 -20s42.667 -20 54 -20c12 0 21.667 5.83301 29 17.5s15.666 17.5 24.999 17.5h40c10 0 15 -5 15 -15c0 -42.667 -10.333 -75 -31 -97s-45 -33 -73 -33c-20 0 -42 6.66699 -66 20
s-42 20 -54 20s-21.833 -5.83301 -29.5 -17.5s-16.167 -17.5 -25.5 -17.5h-40c-10 0 -15 5 -15 15z" />
    <glyph glyph-name="afii10023" unicode="&#x401;" horiz-adv-x="745" 
d="M70 47l-0.000976562 608c0 12.667 4.5 23.334 13.5 32.001s19.833 13 32.5 13h563c12.667 0 23.5 -4.5 32.5 -13.5s13.5 -19.833 13.5 -32.5v-46c0 -12.667 -4.5 -23.5 -13.5 -32.5s-19.833 -13.5 -32.5 -13.5h-425v-142h366c12.667 0 23.5 -4.5 32.5 -13.5
s13.5 -19.833 13.5 -32.5v-46c0 -12.667 -4.5 -23.5 -13.5 -32.5s-19.833 -13.5 -32.5 -13.5h-366v-144h424c12.667 0 23.334 -4.33301 32.001 -13s13 -19.334 13 -32.001v-47c0 -12.667 -4.5 -23.5 -13.5 -32.5s-19.833 -13.5 -32.5 -13.5h-561
c-12.667 0 -23.5 4.5 -32.5 13.5s-13.5 20.167 -13.5 33.5zM192.999 808v19c0 17.333 5 31 15 41s23.667 15 41 15h47c17.333 0 31 -5 41 -15s15 -23.667 15 -41v-19c0 -17.333 -5 -31 -15 -41s-23.667 -15 -41 -15h-47c-17.333 0 -31 5 -41 15s-15 23.667 -15 41z
M437.999 808v19c0 17.333 5 31 15 41s23.667 15 41 15h47c17.333 0 31 -5 41 -15s15 -23.667 15 -41v-19c0 -17.333 -5 -31 -15 -41s-23.667 -15 -41 -15h-47c-17.333 0 -31 5 -41 15s-15 23.667 -15 41z" />
    <glyph glyph-name="afii10051" unicode="&#x402;" horiz-adv-x="767" 
d="M10 594v75.999c0 8.66699 2.83301 15.834 8.5 21.501s12.834 8.5 21.501 8.5h312c8.66699 0 15.834 -2.83301 21.501 -8.5s8.5 -12.834 8.5 -21.501v-76c0 -8.66699 -2.83301 -15.834 -8.5 -21.501s-12.834 -8.5 -21.501 -8.5h-64v-144c47.333 40.667 106 61 176 61
c84 0 152.167 -21.333 204.5 -64s78.5 -106.667 78.5 -192v-25c0 -140 -67.667 -210 -203 -210c-53.333 0 -90 1.66699 -110 5c-8.66699 1.33301 -15.834 4.83301 -21.501 10.5s-8.5 12.167 -8.5 19.5v63c0 8.66699 2.83301 15.834 8.5 21.501s12.834 8.5 21.501 8.5h15
c6 0 14.167 -1.16699 24.5 -3.5s18.833 -3.5 25.5 -3.5c16.667 0 31.5 7.66699 44.5 23s19.5 37.333 19.5 66v25c0 78.667 -42 118 -126 118c-59.333 0 -109 -23.333 -149 -70v-227c0 -12.667 -4.5 -23.5 -13.5 -32.5s-19.833 -13.5 -32.5 -13.5h-91
c-13.333 0 -24.5 4.5 -33.5 13.5s-13.5 19.833 -13.5 32.5v518h-64c-8.66699 0 -15.834 2.83301 -21.501 8.5s-8.5 12.834 -8.5 21.501z" />
    <glyph glyph-name="afii10052" unicode="&#x403;" horiz-adv-x="644" 
d="M70 45v609c0 13.333 4.33301 24.333 13 33s19.667 13 33 13h472c13.333 0 24.333 -4.33301 33 -13s13 -19.667 13 -33v-46c0 -13.333 -4.33301 -24.333 -13 -33s-19.667 -13 -33 -13h-334v-517c0 -12.667 -4.5 -23.334 -13.5 -32.001s-19.833 -13 -32.5 -13h-92
c-12.667 0 -23.5 4.33301 -32.5 13s-13.5 19.334 -13.5 32.001zM285 806l39 128.999c4.66699 15.333 14.167 28.5 28.5 39.5s29.5 16.5 45.5 16.5h40c26.667 0 45.667 -7 57 -21c5.33301 -7.33301 8 -15.333 8 -24c0 -9.33301 -3 -19.666 -9 -30.999l-68 -119
c-21.333 -37.333 -47 -56 -77 -56h-19c-33.333 0 -50 13 -50 39c0 8 1.66699 17 5 27z" />
    <glyph glyph-name="afii10053" unicode="&#x404;" horiz-adv-x="817" 
d="M392 704l108.998 -0.00390625c46.667 0 91 -7.66699 133 -23s77.167 -39 105.5 -71s42.5 -69 42.5 -111c0 -19.333 -5.66699 -33.166 -17 -41.499s-22.333 -12.5 -33 -12.5h-58c-29.333 0 -52.666 18 -69.999 54c-22 44.667 -62 67 -120 67h-87
c-62 0 -106.667 -11.167 -134 -33.5s-42.666 -60.833 -45.999 -115.5h262c12.667 0 23.5 -4.5 32.5 -13.5s13.5 -19.833 13.5 -32.5v-41c0 -12.667 -4.5 -23.5 -13.5 -32.5s-19.833 -13.5 -32.5 -13.5h-262c2.66699 -55.333 17.834 -94.166 45.501 -116.499
s72.5 -33.5 134.5 -33.5h97c58 0 98 22.333 120 67c17.333 36 40.666 54 69.999 54h58c6 0 12.333 -1.16699 19 -3.5s13.5 -8 20.5 -17s10.5 -20.167 10.5 -33.5c0 -42 -14.167 -79 -42.5 -111s-63.5 -55.667 -105.5 -71s-86.333 -23 -133 -23h-119
c-120.667 0 -211.167 28.833 -271.5 86.5s-90.5 146.834 -90.5 267.501s30.167 209.834 90.5 267.501s150.833 86.5 271.5 86.5z" />
    <glyph glyph-name="afii10054" unicode="&#x405;" horiz-adv-x="779" 
d="M30 179c0 19.333 5.66406 33.168 16.9971 41.501s22.333 12.5 33 12.5h58c29.333 0 51.333 -15.333 66 -46c16 -33.333 50.667 -50 104 -50l171 -3c57.333 0 86 18.667 86 56c0 15.333 -9.66699 28.5 -29 39.5s-44.666 20.167 -75.999 27.5s-65.833 14.666 -103.5 21.999
s-75.167 16.5 -112.5 27.5s-71.666 24 -102.999 39s-56.666 35.667 -75.999 62s-29 57.166 -29 92.499c0 65.333 23.333 115.666 70 150.999s126.667 53 240 53l124 -3c66.667 0 126.834 -17.167 180.501 -51.5s80.5 -77.166 80.5 -128.499
c0 -19.333 -5.66699 -33.166 -17 -41.499s-22.333 -12.5 -33 -12.5h-58c-29.333 0 -51.333 15.333 -66 46c-16 33.333 -50.667 50 -104 50l-147 3c-57.333 0 -86 -18.667 -86 -56c0 -20.667 18.167 -37.5 54.5 -50.5s80.333 -24.5 132 -34.5s103.5 -22 155.5 -36
s96.167 -37 132.5 -69s54.5 -72 54.5 -120c0 -65.333 -23.333 -115.666 -70 -150.999s-126.667 -53 -240 -53l-148 3c-66.667 0 -126.834 17.167 -180.501 51.5s-80.5 77.166 -80.5 128.499z" />
    <glyph glyph-name="afii10055" unicode="&#x406;" horiz-adv-x="324" 
d="M70 45v608.999c0 12.667 4.5 23.5 13.5 32.5s19.833 13.5 32.5 13.5h91c13.333 0 24.5 -4.5 33.5 -13.5s13.5 -19.833 13.5 -32.5v-608c0 -12.667 -4.66699 -23.5 -14 -32.5s-20.333 -13.5 -33 -13.5h-91c-12.667 0 -23.5 4.33301 -32.5 13s-13.5 19.334 -13.5 32.001z
" />
    <glyph glyph-name="afii10056" unicode="&#x407;" horiz-adv-x="324" 
d="M-20 808v19c0 17.333 5 31 15 41s23.667 15 41 15h39c17.333 0 31 -5 41 -15s15 -23.667 15 -41v-19c0 -17.333 -5 -31 -15 -41s-23.667 -15 -41 -15h-39c-17.333 0 -31 5 -41 15s-15 23.667 -15 41zM70 45v608.999c0 12.667 4.5 23.5 13.5 32.5s19.833 13.5 32.5 13.5
h91c13.333 0 24.5 -4.5 33.5 -13.5s13.5 -19.833 13.5 -32.5v-608c0 -12.667 -4.66699 -23.5 -14 -32.5s-20.333 -13.5 -33 -13.5h-91c-12.667 0 -23.5 4.33301 -32.5 13s-13.5 19.334 -13.5 32.001zM193 807.999v19c0 17.333 5 31 15 41s23.667 15 41 15h39
c17.333 0 31 -5 41 -15s15 -23.667 15 -41v-19c0 -17.333 -5 -31 -15 -41s-23.667 -15 -41 -15h-39c-17.333 0 -31 5 -41 15s-15 23.667 -15 41z" />
    <glyph glyph-name="afii10057" unicode="&#x408;" horiz-adv-x="552" 
d="M0 46l0.000976562 54.999c0 12.667 4.33301 23.5 13 32.5s19.667 13.5 33 13.5h16c8.66699 0 22 -1.5 40 -4.5s32 -4.5 42 -4.5h35c45.333 0 78.166 9.33301 98.499 28s30.5 50 30.5 94v394c0 12.667 4.5 23.5 13.5 32.5s19.833 13.5 32.5 13.5h91
c13.333 0 24.5 -4.5 33.5 -13.5s13.5 -19.833 13.5 -32.5v-393c0 -83.333 -27.667 -147.666 -83 -192.999s-130.333 -68 -225 -68h-138c-12.667 0 -23.5 4.5 -32.5 13.5s-13.5 19.833 -13.5 32.5z" />
    <glyph glyph-name="afii10058" unicode="&#x409;" horiz-adv-x="1235" 
d="M12 41l123.998 469.003c33.333 126.667 141.333 190 324 190h229c11.333 0 21 -4.66699 29 -14s12 -20 12 -32v-192h219c76.667 0 140.167 -20.333 190.5 -61s75.5 -97.334 75.5 -170.001s-25.167 -129.334 -75.5 -170.001s-113.833 -61 -190.5 -61h-357
c-12.667 0 -23.5 4.5 -32.5 13.5s-13.5 19.833 -13.5 32.5v516h-104c-31.333 0 -58.666 -8.83301 -81.999 -26.5s-39 -41.5 -47 -71.5l-112 -418c-3.33301 -13.333 -10.666 -24.333 -21.999 -33s-23.333 -13 -36 -13h-99c-11.333 0 -20 4.33301 -26 13
c-4.66699 5.33301 -7 11.666 -7 18.999c0 2.66699 0.333008 5.66699 1 9zM729.998 138.003h219c54.667 0 82 31 82 93s-27.333 93 -82 93h-219v-186z" />
    <glyph glyph-name="afii10059" unicode="&#x40a;" horiz-adv-x="1248" 
d="M70 46v608.002c0 12.667 4.5 23.5 13.5 32.5s20.167 13.5 33.5 13.5h91c12.667 0 23.5 -4.5 32.5 -13.5s13.5 -19.833 13.5 -32.5v-210h304v210c0 12.667 4.5 23.5 13.5 32.5s19.833 13.5 32.5 13.5h91c13.333 0 24.5 -4.5 33.5 -13.5s13.5 -19.833 13.5 -32.5v-210h220
c76 0 139.333 -19.833 190 -59.5s76 -93.834 76 -162.501s-25.333 -122.834 -76 -162.501s-114 -59.5 -190 -59.5h-358c-12.667 -0 -23.5 4.33301 -32.5 13s-13.5 19.334 -13.5 32.001v261h-304v-261c0 -12.667 -4.5 -23.334 -13.5 -32.001s-19.833 -13 -32.5 -13h-91
c-12.667 0 -23.667 4.5 -33 13.5s-14 19.833 -14 32.5zM742 138.002h220c27.333 0 47.833 7.5 61.5 22.5s20.5 35.5 20.5 61.5s-6.83301 46.5 -20.5 61.5s-34.167 22.5 -61.5 22.5h-220v-168z" />
    <glyph glyph-name="afii10060" unicode="&#x40b;" horiz-adv-x="777" 
d="M10 594v76c0 8.66699 2.83301 15.834 8.5 21.501s12.834 8.5 21.501 8.5h312c8.66699 0 15.834 -2.83301 21.501 -8.5s8.5 -12.834 8.5 -21.501v-76c0 -8.66699 -2.83301 -15.834 -8.5 -21.501s-12.834 -8.5 -21.501 -8.5h-64v-144c47.333 40.667 106 61 176 61
c84 0 152.167 -21.333 204.5 -64s78.5 -106.667 78.5 -192v-179c0 -12.667 -4.66699 -23.5 -14 -32.5s-20.333 -13.5 -33 -13.5h-91c-12.667 0 -23.5 4.5 -32.5 13.5s-13.5 19.833 -13.5 32.5v179c0 78.667 -42 118 -126 118c-59.333 0 -109 -23.333 -149 -70v-227
c0 -12.667 -4.5 -23.5 -13.5 -32.5s-19.833 -13.5 -32.5 -13.5h-91c-13.333 0 -24.5 4.5 -33.5 13.5s-13.5 19.833 -13.5 32.5v518h-64c-8.66699 0 -15.834 2.83301 -21.501 8.5s-8.5 12.834 -8.5 21.501z" />
    <glyph glyph-name="afii10061" unicode="&#x40c;" horiz-adv-x="795" 
d="M70 47l0.00195312 606.999c0 12.667 4.5 23.667 13.5 33s19.833 14 32.5 14h92c12.667 0 23.5 -4.66699 32.5 -14s13.5 -20.333 13.5 -33v-234h105c28.667 0 53.834 7.83301 75.501 23.5s42.167 40.834 61.5 75.501l76 135c17.333 31.333 40.666 47 69.999 47h113
c12.667 0 20 -4.66699 22 -14c0.666992 -2 1 -4 1 -6c0 -8 -2.66699 -17 -8 -27l-106 -192c-15.333 -28 -32.5 -51.167 -51.5 -69.5s-43.833 -31.166 -74.5 -38.499c21.333 -4.66699 43.333 -18.167 66 -40.5s42.667 -46.833 60 -73.5l122 -194
c5.33301 -9.33301 8 -17.666 8 -24.999c0 -2.66699 -0.333008 -5.33398 -1 -8.00098c-3.33301 -8.66699 -11.333 -13 -24 -13h-112c-12.667 0 -26.334 4.5 -41.001 13.5s-26 19.833 -34 32.5l-86 136c-20.667 33.333 -41.334 58.333 -62.001 75s-45.667 25 -75 25h-105v-237
c0 -12.667 -4.5 -23.334 -13.5 -32.001s-19.833 -13 -32.5 -13h-92c-12.667 0 -23.5 4.66699 -32.5 14s-13.5 20.333 -13.5 33zM350.002 785.999l39 128.999c4.66699 15.333 14.167 28.5 28.5 39.5s29.5 16.5 45.5 16.5h40c26.667 0 45.667 -7 57 -21
c5.33301 -7.33301 8 -15.333 8 -24c0 -9.33301 -3 -19.666 -9 -30.999l-68 -119c-21.333 -37.333 -47 -56 -77 -56h-19c-33.333 0 -50 13 -50 39c0 8 1.66699 17 5 27z" />
    <glyph glyph-name="afii10062" unicode="&#x40e;" horiz-adv-x="779" 
d="M14 654c-2.66699 6 -3.99902 11.832 -3.99902 17.499s1.33301 10.834 4 15.501c5.33301 8.66699 14.333 13 27 13h103c31.333 0 53 -14.667 65 -44l56 -136c16.667 -39.333 37.5 -68.666 62.5 -87.999s58.167 -29 99.5 -29h60l88 252c4.66699 14 12.667 25 24 33
s23.666 12 36.999 12h99c12.667 0 22 -4.33301 28 -13c4 -5.33301 6 -11.333 6 -18c0 -4 -1 -8.33301 -3 -13l-159 -456c-22 -64 -55.333 -113.333 -100 -148s-107 -52 -187 -52h-118c-12.667 0 -23.5 4.5 -32.5 13.5s-13.5 19.833 -13.5 32.5v55
c0 12.667 4.33301 23.5 13 32.5s19.667 13.5 33 13.5h16c8.66699 0 22 -1.5 40 -4.5s32 -4.5 42 -4.5h10c64.667 0 109 42.333 133 127h-42c-82 0 -146 16.667 -192 50s-85.333 87.666 -118 162.999zM243.001 879.999c0 16.667 9 25 27 25h40c16 0 27.333 -8.33301 34 -25
c9.33301 -23.333 30.333 -35 63 -35s53.667 11.667 63 35c6.66699 16.667 18 25 34 25h40c18 0 27 -8.33301 27 -25c0 -44.667 -15 -80 -45 -106s-69.667 -39 -119 -39s-89 13 -119 39s-45 61.333 -45 106z" />
    <glyph glyph-name="afii10145" unicode="&#x40f;" horiz-adv-x="865" 
d="M70 46l0.000976562 608c0 12.667 4.5 23.5 13.5 32.5s19.833 13.5 32.5 13.5h92c12.667 0 23.5 -4.5 32.5 -13.5s13.5 -19.833 13.5 -32.5v-516h357v516c0 12.667 4.5 23.5 13.5 32.5s19.833 13.5 32.5 13.5h91c12.667 0 23.667 -4.5 33 -13.5s14 -19.833 14 -32.5v-608
c0 -12.667 -4.5 -23.5 -13.5 -32.5s-19.833 -13.5 -32.5 -13.5h-234v-134c0 -12.667 -4.66699 -23.5 -14 -32.5s-20.333 -13.5 -33 -13.5h-72c-12.667 0 -23.5 4.5 -32.5 13.5s-13.5 19.833 -13.5 32.5v134h-235c-12.667 0 -23.334 4.5 -32.001 13.5s-13 19.833 -13 32.5z
" />
    <glyph glyph-name="afii10017" unicode="&#x410;" horiz-adv-x="834" 
d="M12 45l123 465.001c33.333 126.667 141.333 190 324 190h263c12 0 22 -4.5 30 -13.5s12 -19.5 12 -31.5v-610c0 -12.667 -4.5 -23.334 -13.5 -32.001s-19.833 -13 -32.5 -13h-92c-13.333 -0 -24.333 4.33301 -33 13s-13 19.667 -13 33v123h-347l-33 -123
c-3.33301 -13.333 -10.666 -24.333 -21.999 -33s-23.333 -13 -36 -13h-96c-12.667 -0 -22.334 4.33301 -29.001 13c-4.66699 6 -7 12.667 -7 20zM269 307.001h310.999v255h-139c-31.333 0 -58.666 -8.83301 -81.999 -26.5s-39 -41.5 -47 -71.5z" />
    <glyph glyph-name="afii10018" unicode="&#x411;" horiz-adv-x="791" 
d="M70 45l0.000976562 608.997c0 13.333 4.33301 24.333 13 33s19.667 13 33 13h550c12.667 0 23.5 -4.5 32.5 -13.5s13.5 -19.833 13.5 -32.5v-46c0 -12.667 -4.33301 -23.5 -13 -32.5s-19.334 -13.5 -32.001 -13.5h-413v-118h241c79.333 0 143.5 -18.667 192.5 -56
s73.5 -92.666 73.5 -165.999s-24.5 -128.666 -73.5 -165.999s-113.167 -56 -192.5 -56h-381c-12.667 0 -23.167 4.33301 -31.5 13s-12.5 19.334 -12.5 32.001zM254.001 137.997h241c54.667 0 82 28 82 84s-27.333 84 -82 84h-241v-168z" />
    <glyph glyph-name="afii10019" unicode="&#x412;" horiz-adv-x="825" 
d="M70 654c0 12.667 4.49805 23.501 13.498 32.501s19.833 13.5 32.5 13.5h397c44.667 0 85.334 -6.16699 122.001 -18.5s67.834 -34 93.501 -65s38.5 -69.5 38.5 -115.5c0 -50 -22 -93 -66 -129c62.667 -33.333 94 -87.333 94 -162c0 -66.667 -25 -118.334 -75 -155.001
s-111.333 -55 -184 -55h-420c-12.667 0 -23.5 4.5 -32.5 13.5s-13.5 19.833 -13.5 32.5v608zM253.998 132.001h279c25.333 0 44.666 7.5 57.999 22.5s20 35.5 20 61.5s-6.66699 46.5 -20 61.5s-32.666 22.5 -57.999 22.5h-279v-168zM253.998 428.001h261
c20.667 0 37.167 6.16699 49.5 18.5s18.5 29.5 18.5 51.5s-6.16699 39.167 -18.5 51.5s-28.833 18.5 -49.5 18.5h-261v-140z" />
    <glyph glyph-name="afii10020" unicode="&#x413;" horiz-adv-x="644" 
d="M70 45v609c0 13.333 4.33301 24.333 13 33s19.667 13 33 13h472c13.333 0 24.333 -4.33301 33 -13s13 -19.667 13 -33v-46c0 -13.333 -4.33301 -24.333 -13 -33s-19.667 -13 -33 -13h-334v-517c0 -12.667 -4.5 -23.334 -13.5 -32.001s-19.833 -13 -32.5 -13h-92
c-12.667 0 -23.5 4.33301 -32.5 13s-13.5 19.334 -13.5 32.001z" />
    <glyph glyph-name="afii10021" unicode="&#x414;" horiz-adv-x="872" 
d="M0 46v47.001c0 12.667 4.5 23.334 13.5 32.001s19.833 13 32.5 13h38l91 370c31.333 128 137 192 317 192h264c12.667 0 23.5 -4.33301 32.5 -13s13.5 -19.334 13.5 -32.001v-610c0 -12.667 -4.5 -23.334 -13.5 -32.001s-19.833 -13 -32.5 -13h-710
c-12.667 0 -23.5 4.5 -32.5 13.5s-13.5 19.833 -13.5 32.5zM272 138.001h345.999v424h-146c-30.667 0 -56.167 -8.5 -76.5 -25.5s-34.166 -40.5 -41.499 -70.5z" />
    <glyph glyph-name="afii10022" unicode="&#x415;" horiz-adv-x="745" 
d="M70 47l-0.000976562 608c0 12.667 4.5 23.334 13.5 32.001s19.833 13 32.5 13h563c12.667 0 23.5 -4.5 32.5 -13.5s13.5 -19.833 13.5 -32.5v-46c0 -12.667 -4.5 -23.5 -13.5 -32.5s-19.833 -13.5 -32.5 -13.5h-425v-142h366c12.667 0 23.5 -4.5 32.5 -13.5
s13.5 -19.833 13.5 -32.5v-46c0 -12.667 -4.5 -23.5 -13.5 -32.5s-19.833 -13.5 -32.5 -13.5h-366v-144h424c12.667 0 23.334 -4.33301 32.001 -13s13 -19.334 13 -32.001v-47c0 -12.667 -4.5 -23.5 -13.5 -32.5s-19.833 -13.5 -32.5 -13.5h-561
c-12.667 0 -23.5 4.5 -32.5 13.5s-13.5 20.167 -13.5 33.5z" />
    <glyph glyph-name="afii10024" unicode="&#x416;" horiz-adv-x="1100" 
d="M2 13c-1.33301 2.66699 -1.99707 5.33398 -1.99707 8.00098c0 7.33301 3 15.666 9 24.999l122 194c17.333 26.667 37.333 51.167 60 73.5s44.667 35.833 66 40.5c-30.667 7.33301 -55.5 20.166 -74.5 38.499s-36.167 41.5 -51.5 69.5l-106 192c-5.33301 10 -8 19 -8 27
c0 2 0.333008 4 1 6c2 9.33301 9.33301 14 22 14h113c29.333 0 52.666 -15.667 69.999 -47l76 -135c19.333 -34.667 39.833 -59.834 61.5 -75.501s46.834 -23.5 75.501 -23.5h22v234c0 12.667 4.5 23.667 13.5 33s19.833 14 32.5 14h92c12.667 0 23.5 -4.66699 32.5 -14
s13.5 -20.333 13.5 -33v-234h22c28.667 0 53.834 7.83301 75.501 23.5s42.167 40.834 61.5 75.501l76 135c17.333 31.333 40.666 47 69.999 47h113c12.667 0 20.334 -4.66699 23.001 -14v-6c0 -8 -2.66699 -17 -8 -27l-106 -192c-15.333 -28 -32.5 -51.167 -51.5 -69.5
s-43.833 -31.166 -74.5 -38.499c21.333 -4.66699 43.333 -18.167 66 -40.5s42.667 -46.833 60 -73.5l122 -194c5.33301 -9.33301 8.33301 -17.666 9 -24.999c0 -2.66699 -0.666992 -5.33398 -2 -8.00098c-3.33301 -8.66699 -11.333 -13 -24 -13h-112
c-12.667 0 -26.334 4.5 -41.001 13.5s-26 19.833 -34 32.5l-86 136c-20.667 33.333 -41.334 58.333 -62.001 75s-45.667 25 -75 25h-22v-237c0 -12.667 -4.5 -23.334 -13.5 -32.001s-19.833 -13 -32.5 -13h-92c-12.667 0 -23.5 4.33301 -32.5 13s-13.5 19.334 -13.5 32.001
v237h-22c-29.333 0 -54.333 -8.33301 -75 -25s-41.334 -41.667 -62.001 -75l-86 -136c-8 -12.667 -19.333 -23.5 -34 -32.5s-28.334 -13.5 -41.001 -13.5h-112c-12.667 -0 -20.667 4.33301 -24 13z" />
    <glyph glyph-name="afii10025" unicode="&#x417;" horiz-adv-x="781" 
d="M25 191c0 19.333 5.66797 33.166 17.001 41.499s22.333 12.5 33 12.5h58c30 0 53.333 -18 70 -54c8 -17.333 21.667 -31.166 41 -41.499s40.666 -15.5 63.999 -15.5h153c35.333 0 61.833 5.66699 79.5 17s26.5 30.666 26.5 57.999s-8.83301 46.666 -26.5 57.999
s-44.167 17 -79.5 17h-126c-12.667 0 -23.5 4.5 -32.5 13.5s-13.5 19.833 -13.5 32.5v40c0 12 4.33301 22.667 13 32s19 14 31 14h110c39.333 0 68.166 5.83301 86.499 17.5s27.5 30.834 27.5 57.501s-9.16699 45.834 -27.5 57.501s-47.166 17.5 -86.499 17.5h-119
c-52.667 0 -89 -20 -109 -60c-14.667 -30.667 -36.667 -46 -66 -46h-58c-6 0 -12.333 1.16699 -19 3.5s-13.5 8 -20.5 17s-10.5 20.167 -10.5 33.5c0 55.333 28 100.833 84 136.5s116.667 53.5 182 53.5h150c189.333 0 284 -71.333 284 -214
c0 -59.333 -22.333 -106 -67 -140c51.333 -32 77 -79 77 -141c0 -75.333 -23.5 -129.666 -70.5 -162.999s-114.5 -50 -202.5 -50h-187c-66 0 -126.833 18.167 -182.5 54.5s-83.5 83.166 -83.5 140.499z" />
    <glyph glyph-name="afii10026" unicode="&#x418;" horiz-adv-x="852" 
d="M70 46v608.001c0 13.333 4.33301 24.333 13 33s19.667 13 33 13h86c12.667 0 23.5 -4.33301 32.5 -13s13.5 -19.334 13.5 -32.001v-489l278 488c7.33301 12.667 17.5 23.5 30.5 32.5s25.167 13.5 36.5 13.5h144c12.667 0 23.334 -4.5 32.001 -13.5s13 -19.833 13 -32.5
v-608c0 -12.667 -4.5 -23.5 -13.5 -32.5s-19.833 -13.5 -32.5 -13.5h-86c-12.667 0 -23.5 4.5 -32.5 13.5s-13.5 19.833 -13.5 32.5v453l-255 -453c-7.33301 -12.667 -17.833 -23.5 -31.5 -32.5s-26.834 -13.5 -39.501 -13.5h-162c-12.667 0 -23.5 4.5 -32.5 13.5
s-13.5 19.833 -13.5 32.5z" />
    <glyph glyph-name="afii10027" unicode="&#x419;" horiz-adv-x="852" 
d="M70 46v608.001c0 13.333 4.33301 24.333 13 33s19.667 13 33 13h86c12.667 0 23.5 -4.33301 32.5 -13s13.5 -19.334 13.5 -32.001v-489l278 488c7.33301 12.667 17.5 23.5 30.5 32.5s25.167 13.5 36.5 13.5h144c12.667 0 23.334 -4.5 32.001 -13.5s13 -19.833 13 -32.5
v-608c0 -12.667 -4.5 -23.5 -13.5 -32.5s-19.833 -13.5 -32.5 -13.5h-86c-12.667 0 -23.5 4.5 -32.5 13.5s-13.5 19.833 -13.5 32.5v453l-255 -453c-7.33301 -12.667 -17.833 -23.5 -31.5 -32.5s-26.834 -13.5 -39.501 -13.5h-162c-12.667 0 -23.5 4.5 -32.5 13.5
s-13.5 19.833 -13.5 32.5zM262 900.001c0 16.667 9 25 27 25h40c16 0 27.333 -8.33301 34 -25c9.33301 -23.333 30.333 -35 63 -35s53.667 11.667 63 35c6.66699 16.667 18 25 34 25h40c18 0 27 -8.33301 27 -25c0 -44.667 -15 -80 -45 -106s-69.667 -39 -119 -39
s-89 13 -119 39s-45 61.333 -45 106z" />
    <glyph glyph-name="afii10028" unicode="&#x41a;" horiz-adv-x="795" 
d="M70 47l0.00195312 606.999c0 12.667 4.5 23.667 13.5 33s19.833 14 32.5 14h92c12.667 0 23.5 -4.66699 32.5 -14s13.5 -20.333 13.5 -33v-234h105c28.667 0 53.834 7.83301 75.501 23.5s42.167 40.834 61.5 75.501l76 135c17.333 31.333 40.666 47 69.999 47h113
c12.667 0 20 -4.66699 22 -14c0.666992 -2 1 -4 1 -6c0 -8 -2.66699 -17 -8 -27l-106 -192c-15.333 -28 -32.5 -51.167 -51.5 -69.5s-43.833 -31.166 -74.5 -38.499c21.333 -4.66699 43.333 -18.167 66 -40.5s42.667 -46.833 60 -73.5l122 -194
c5.33301 -9.33301 8 -17.666 8 -24.999c0 -2.66699 -0.333008 -5.33398 -1 -8.00098c-3.33301 -8.66699 -11.333 -13 -24 -13h-112c-12.667 0 -26.334 4.5 -41.001 13.5s-26 19.833 -34 32.5l-86 136c-20.667 33.333 -41.334 58.333 -62.001 75s-45.667 25 -75 25h-105v-237
c0 -12.667 -4.5 -23.334 -13.5 -32.001s-19.833 -13 -32.5 -13h-92c-12.667 0 -23.5 4.66699 -32.5 14s-13.5 20.333 -13.5 33z" />
    <glyph glyph-name="afii10029" unicode="&#x41b;" horiz-adv-x="815" 
d="M12 41l123.999 469.001c33.333 126.667 141.333 190 324 190h244c11.333 0 21 -4.66699 29 -14s12 -20 12 -32v-608c0 -12.667 -4.33301 -23.5 -13 -32.5s-19.334 -13.5 -32.001 -13.5h-93c-12.667 0 -23.5 4.5 -32.5 13.5s-13.5 19.833 -13.5 32.5v516h-119
c-31.333 0 -58.666 -8.83301 -81.999 -26.5s-39 -41.5 -47 -71.5l-112 -418c-3.33301 -13.333 -10.666 -24.333 -21.999 -33s-23.333 -13 -36 -13h-99c-11.333 0 -20 4.33301 -26 13c-4.66699 5.33301 -7 11.666 -7 18.999c0 2.66699 0.333008 5.66699 1 9z" />
    <glyph glyph-name="afii10030" unicode="&#x41c;" horiz-adv-x="1034" 
d="M70 47l-0.00195312 606c0 13.333 4.33301 24.5 13 33.5s19.334 13.5 32.001 13.5h199c12.667 0 24.667 -4.5 36 -13.5s19 -19.833 23 -32.5l144 -417l144 417c4 12.667 11.667 23.5 23 32.5s23.333 13.5 36 13.5h199c12.667 0 23.334 -4.5 32.001 -13.5
s13 -20.167 13 -33.5v-606c0 -13.333 -4.5 -24.5 -13.5 -33.5s-19.833 -13.5 -32.5 -13.5h-88c-12.667 0 -23.5 4.5 -32.5 13.5s-13.5 20.167 -13.5 33.5v477l-172 -480c-4.66699 -12 -12.667 -22.333 -24 -31s-23.333 -13 -36 -13h-70c-12.667 -0 -24.667 4.33301 -36 13
s-19.333 19 -24 31l-172 480v-477c0 -13.333 -4.5 -24.5 -13.5 -33.5s-19.833 -13.5 -32.5 -13.5h-88c-12.667 0 -23.5 4.5 -32.5 13.5s-13.5 20.167 -13.5 33.5z" />
    <glyph glyph-name="afii10031" unicode="&#x41d;" horiz-adv-x="844" 
d="M70 46v608c0 12.667 4.5 23.5 13.5 32.5s20.167 13.5 33.5 13.5h91c12.667 0 23.5 -4.5 32.5 -13.5s13.5 -19.833 13.5 -32.5v-220h336v220c0 12.667 4.5 23.5 13.5 32.5s19.833 13.5 32.5 13.5h91c13.333 0 24.5 -4.5 33.5 -13.5s13.5 -19.833 13.5 -32.5v-608
c0 -12.667 -4.66699 -23.5 -14 -32.5s-20.333 -13.5 -33 -13.5h-91c-12.667 -0 -23.5 4.33301 -32.5 13s-13.5 19.334 -13.5 32.001v251h-336v-251c0 -12.667 -4.5 -23.334 -13.5 -32.001s-19.833 -13 -32.5 -13h-91c-12.667 0 -23.667 4.5 -33 13.5s-14 19.833 -14 32.5z
" />
    <glyph glyph-name="afii10032" unicode="&#x41e;" horiz-adv-x="846" 
d="M130 72c-66.667 58.667 -100 151.333 -100 278s33.333 219.167 100 277.5s164.334 87.5 293.001 87.5s226.334 -29.167 293.001 -87.5s100 -150.833 100 -277.5s-33.333 -219.167 -100 -277.5s-164.334 -87.5 -293.001 -87.5s-226.334 29 -293.001 87zM263 523.999
c-32.667 -38.667 -49.001 -96.667 -49.001 -174s16.5 -135.5 49.5 -174.5s86.167 -58.5 159.5 -58.5s126.5 19.5 159.5 58.5s49.5 97.167 49.5 174.5s-16.5 135.5 -49.5 174.5s-86.167 58.5 -159.5 58.5s-126.666 -19.667 -159.999 -59z" />
    <glyph glyph-name="afii10033" unicode="&#x41f;" horiz-adv-x="865" 
d="M70 46l-0.000976562 608c0 12.667 4.33301 23.5 13 32.5s19.334 13.5 32.001 13.5h634c12.667 0 23.5 -4.5 32.5 -13.5s13.5 -19.833 13.5 -32.5v-608c0 -12.667 -4.66699 -23.5 -14 -32.5s-20.333 -13.5 -33 -13.5h-91c-12.667 0 -23.5 4.5 -32.5 13.5
s-13.5 19.833 -13.5 32.5v516h-357v-516c0 -12.667 -4.5 -23.5 -13.5 -32.5s-19.833 -13.5 -32.5 -13.5h-92c-12.667 0 -23.5 4.5 -32.5 13.5s-13.5 19.833 -13.5 32.5z" />
    <glyph glyph-name="afii10034" unicode="&#x420;" horiz-adv-x="803" 
d="M70 46l-0.000976562 608c0 12.667 4.33301 23.5 13 32.5s19.334 13.5 32.001 13.5h373c196.667 0 295 -90.667 295 -272s-98.333 -272 -295 -272h-234v-110c0 -12.667 -4.5 -23.5 -13.5 -32.5s-19.833 -13.5 -32.5 -13.5h-92c-12.667 0 -23.5 4.5 -32.5 13.5
s-13.5 19.833 -13.5 32.5zM253.999 294h178c54.667 0 96.167 9.16699 124.5 27.5s42.5 53.833 42.5 106.5s-14.167 88.167 -42.5 106.5s-69.833 27.5 -124.5 27.5h-178v-268z" />
    <glyph glyph-name="afii10035" unicode="&#x421;" horiz-adv-x="817" 
d="M392 704l109 -0.000976562c74 0 139.333 -19.167 196 -57.5s85 -90.833 85 -157.5c0 -19.333 -5.66699 -33.166 -17 -41.499s-22.333 -12.5 -33 -12.5h-58c-30 0 -53.333 18 -70 54c-24 51.333 -64 77 -120 77h-87c-71.333 0 -119.666 -15.333 -144.999 -46
s-38 -87.334 -38 -170.001s12.667 -139.334 38 -170.001s73.666 -46 144.999 -46h97c56 0 96 25.667 120 77c16.667 36 40 54 70 54h58c6 0 12.333 -1.16699 19 -3.5s13.5 -8 20.5 -17s10.5 -20.167 10.5 -33.5c0 -66.667 -28.333 -119.167 -85 -157.5
s-122 -57.5 -196 -57.5h-119c-120.667 0 -211.167 28.833 -271.5 86.5s-90.5 146.834 -90.5 267.501s30.167 209.834 90.5 267.501s150.833 86.5 271.5 86.5z" />
    <glyph glyph-name="afii10036" unicode="&#x422;" horiz-adv-x="732" 
d="M10 608v46c0 13.333 4.33301 24.333 13 33s19.667 13 33 13h620c13.333 0 24.333 -4.33301 33 -13s13 -19.667 13 -33v-46c0 -13.333 -4.33301 -24.333 -13 -33s-19.667 -13 -33 -13h-218v-517c0 -12.667 -4.5 -23.334 -13.5 -32.001s-19.833 -13 -32.5 -13h-92
c-12.667 0 -23.5 4.33301 -32.5 13s-13.5 19.334 -13.5 32.001v517h-218c-13.333 0 -24.333 4.33301 -33 13s-13 19.667 -13 33z" />
    </font>
</defs>
</svg>
